<svg width="22" height="22" viewBox="0 0 22 22" fill="none" xmlns="http://www.w3.org/2000/svg">
<g clip-path="url(#clip0)">
<path d="M1.77954 9.42053H1.62954V9.57053V15.6201C1.62954 16.3212 2.19979 16.8914 2.90088 16.8914H18.8804C19.5815 16.8914 20.1517 16.3212 20.1517 15.6201L20.1516 9.57053V9.42053H20.0016H1.77954ZM20.0017 7.73894L20.1517 7.73893V7.58894V6.59278C20.1517 5.89164 19.5815 5.32144 18.8804 5.32144H2.90093C2.19983 5.32144 1.62959 5.89163 1.62959 6.59278V7.59026V7.74027L1.7796 7.74026L20.0017 7.73894ZM2.90088 4.23252H18.8804C20.1817 4.23252 21.2407 5.29141 21.2406 6.59282V15.6201C21.2406 16.9215 20.1816 17.9804 18.8804 17.9804H2.90088C1.59952 17.9804 0.540625 16.9215 0.540625 15.6201V6.59282C0.540625 5.29141 1.59951 4.23252 2.90088 4.23252Z" fill="#272727" stroke="white" stroke-width="0.3"/>
<path d="M3.50344 15.4532H7.30581C7.44195 15.4532 7.55242 15.3429 7.55242 15.2067V14.4565C7.55242 14.3203 7.44195 14.21 7.30581 14.21H3.50344C3.3673 14.21 3.25684 14.3203 3.25684 14.4565V15.2067C3.25679 15.3429 3.36726 15.4532 3.50344 15.4532Z" fill="#272727"/>
<path d="M14.6609 11.9834C15.056 11.9834 15.4202 12.1157 15.7119 12.3383C16.0036 12.1158 16.3676 11.9834 16.7629 11.9834C17.7212 11.9834 18.498 12.7602 18.498 13.7185C18.498 14.6767 17.7211 15.4535 16.7629 15.4535C16.3677 15.4535 16.0036 15.3211 15.7119 15.0986C15.4202 15.3211 15.0561 15.4535 14.6609 15.4535C13.7026 15.4535 12.9258 14.6767 12.9258 13.7185C12.9258 12.7602 13.7027 11.9834 14.6609 11.9834Z" fill="#272727"/>
</g>
<defs>
<clipPath id="clip0">
<rect width="21" height="21" fill="white" transform="translate(0.390625 0.606445)"/>
</clipPath>
</defs>
</svg>
