<svg width="168" height="58" viewBox="0 0 168 58" fill="none" xmlns="http://www.w3.org/2000/svg">
<g clip-path="url(#clip0)">
<path d="M78.4781 27.5469H81.7781L86.3781 10.4469V27.5469H90.0781V4.94687H84.9781L80.3781 21.5469L75.7781 4.94687H70.5781V27.5469H73.7781V10.4469L78.4781 27.5469ZM105.578 16.3469C105.578 12.3469 103.578 10.8469 99.4781 10.8469C96.8781 10.8469 94.8781 11.6469 93.6781 12.3469V15.5469C94.6781 14.7469 96.9781 13.9469 98.9781 13.9469C100.878 13.9469 101.678 14.6469 101.678 16.3469V17.2469H101.078C95.1781 17.2469 92.4781 19.2469 92.4781 22.5469C92.4781 25.8469 94.4781 27.7469 97.4781 27.7469C99.7781 27.7469 100.778 27.0469 101.478 26.2469H101.678C101.678 26.6469 101.878 27.2469 101.978 27.5469H105.778C105.678 26.2469 105.578 24.8469 105.578 23.5469V16.3469ZM101.678 23.6469C101.178 24.3469 100.278 24.9469 98.8781 24.9469C97.2781 24.9469 96.4781 23.9469 96.4781 22.5469C96.4781 20.6469 97.7781 19.9469 101.178 19.9469H101.778V23.6469H101.678ZM112.278 11.1469H108.678V32.2469H112.578V25.6469C113.578 27.1469 114.978 27.8469 116.678 27.8469C120.478 27.8469 123.078 24.8469 123.078 19.3469C123.078 13.8469 120.578 10.8469 116.878 10.8469C115.078 10.8469 113.578 11.6469 112.478 13.2469L112.278 11.1469ZM115.578 24.8469C113.578 24.8469 112.478 23.1469 112.478 19.4469C112.478 15.6469 113.578 13.9469 115.778 13.9469C117.878 13.9469 118.978 15.6469 118.978 19.3469C118.978 23.1469 117.878 24.8469 115.578 24.8469ZM135.178 27.5469H139.578L133.378 18.7469L138.878 11.1469H134.978L129.478 18.7469V11.1469H125.578V27.5469H129.478V19.5469L135.178 27.5469ZM152.578 26.4469V23.2469C151.378 24.0469 149.378 24.7469 147.478 24.7469C144.678 24.7469 143.578 23.4469 143.378 20.6469H152.678V18.5469C152.678 12.8469 150.178 10.7469 146.278 10.7469C141.578 10.7469 139.278 14.3469 139.278 19.3469C139.278 25.0469 142.078 27.8469 146.978 27.8469C149.678 27.8469 151.478 27.2469 152.578 26.4469ZM146.278 13.9469C148.178 13.9469 148.778 15.5469 148.778 17.5469V17.8469H143.378C143.478 15.2469 144.478 13.9469 146.278 13.9469ZM166.578 14.2469V11.1469H153.578V14.2469H158.178V27.5469H162.078V14.2469H166.578Z" fill="#303030"/>
<path d="M47.4777 31.5469C55.7777 31.5469 62.4777 24.8469 62.4777 16.5469C62.4777 8.24687 55.7777 1.54688 47.4777 1.54688C39.1777 1.54688 32.4777 8.24687 32.4777 16.5469C32.3777 24.8469 39.1777 31.5469 47.4777 31.5469Z" fill="#FED42B"/>
<path d="M15.3789 31.5469C23.6632 31.5469 30.3789 24.8311 30.3789 16.5469C30.3789 8.2626 23.6632 1.54688 15.3789 1.54688C7.09464 1.54688 0.378906 8.2626 0.378906 16.5469C0.378906 24.8311 7.09464 31.5469 15.3789 31.5469Z" fill="#FC3F1D"/>
<path d="M17.5797 9.94687H16.0797C13.4797 9.94687 12.1797 11.2469 12.1797 13.2469C12.1797 15.4469 13.0797 16.5469 14.9797 17.8469L16.4797 18.9469L12.1797 25.6469H8.67969L12.7797 19.5469C10.3797 17.8469 9.07969 16.2469 9.07969 13.4469C9.07969 9.94687 11.4797 7.54688 16.0797 7.54688H20.6797V25.5469H17.6797V9.94687H17.5797Z" fill="white"/>
<path d="M40.0789 9.74688L26.8789 27.0469L30.3789 31.0469L40.1789 18.0469L39.1789 25.1469L44.6789 27.0469L51.3789 16.3469C51.0789 18.3469 50.5789 22.9469 54.9789 24.3469C61.8789 26.4469 67.8789 14.0469 70.6789 7.74688L66.6789 5.64688C63.5789 12.1469 58.7789 19.3469 56.8789 18.8469C54.9789 18.3469 56.6789 12.2469 57.7789 8.34688V8.24688L51.6789 6.14688L44.3789 18.0469L45.3789 11.5469L40.0789 9.74688Z" fill="#303030"/>
</g>
<path d="M50.3616 48.2152C50.2591 47.8983 49.978 47.6731 49.6454 47.6432L45.1277 47.233L43.3413 43.0517C43.2095 42.7452 42.9096 42.5469 42.5763 42.5469C42.243 42.5469 41.943 42.7452 41.8112 43.0524L40.0248 47.233L35.5064 47.6432C35.1744 47.6739 34.894 47.8983 34.791 48.2152C34.6879 48.5321 34.7831 48.8798 35.0342 49.0989L38.4491 52.0938L37.4421 56.5294C37.3684 56.8555 37.495 57.1927 37.7656 57.3883C37.9111 57.4934 38.0812 57.5469 38.2529 57.5469C38.4008 57.5469 38.5476 57.507 38.6793 57.4282L42.5763 55.0991L46.4718 57.4282C46.7568 57.5997 47.1162 57.584 47.3862 57.3883C47.6569 57.1921 47.7834 56.8548 47.7097 56.5294L46.7027 52.0938L50.1176 49.0995C50.3687 48.8798 50.4646 48.5327 50.3616 48.2152Z" fill="#FED42B"/>
<path d="M71.0139 48.2152C70.9114 47.8983 70.6303 47.6731 70.2977 47.6432L65.78 47.233L63.9936 43.0517C63.8619 42.7452 63.5619 42.5469 63.2286 42.5469C62.8953 42.5469 62.5953 42.7452 62.4636 43.0524L60.6772 47.233L56.1588 47.6432C55.8268 47.6739 55.5464 47.8983 55.4433 48.2152C55.3402 48.5321 55.4354 48.8798 55.6866 49.0989L59.1014 52.0938L58.0944 56.5294C58.0208 56.8555 58.1474 57.1927 58.418 57.3883C58.5634 57.4934 58.7336 57.5469 58.9052 57.5469C59.0532 57.5469 59.1999 57.507 59.3317 57.4282L63.2286 55.0991L67.1241 57.4282C67.4092 57.5997 67.7685 57.584 68.0385 57.3883C68.3092 57.1921 68.4357 56.8548 68.362 56.5294L67.3551 52.0938L70.7699 49.0995C71.0211 48.8798 71.117 48.5327 71.0139 48.2152Z" fill="#FED42B"/>
<path d="M91.6662 48.2152C91.5638 47.8983 91.2827 47.6731 90.9501 47.6432L86.4324 47.233L84.646 43.0517C84.5142 42.7452 84.2142 42.5469 83.8809 42.5469C83.5476 42.5469 83.2477 42.7452 83.1159 43.0524L81.3295 47.233L76.8111 47.6432C76.4791 47.6739 76.1987 47.8983 76.0956 48.2152C75.9926 48.5321 76.0878 48.8798 76.3389 49.0989L79.7538 52.0938L78.7468 56.5294C78.6731 56.8555 78.7997 57.1927 79.0703 57.3883C79.2158 57.4934 79.3859 57.5469 79.5575 57.5469C79.7055 57.5469 79.8523 57.507 79.984 57.4282L83.8809 55.0991L87.7765 57.4282C88.0615 57.5997 88.4209 57.584 88.6909 57.3883C88.9616 57.1921 89.0881 56.8548 89.0144 56.5294L88.0074 52.0938L91.4223 49.0995C91.6734 48.8798 91.7693 48.5327 91.6662 48.2152Z" fill="#FED42B"/>
<path d="M112.319 48.2152C112.216 47.8983 111.935 47.6731 111.602 47.6432L107.085 47.233L105.298 43.0517C105.167 42.7452 104.867 42.5469 104.533 42.5469C104.2 42.5469 103.9 42.7452 103.768 43.0524L101.982 47.233L97.4634 47.6432C97.1315 47.6739 96.8511 47.8983 96.748 48.2152C96.6449 48.5321 96.7401 48.8798 96.9913 49.0989L100.406 52.0938L99.3991 56.5294C99.3255 56.8555 99.452 57.1927 99.7226 57.3883C99.8681 57.4934 100.038 57.5469 100.21 57.5469C100.358 57.5469 100.505 57.507 100.636 57.4282L104.533 55.0991L108.429 57.4282C108.714 57.5997 109.073 57.584 109.343 57.3883C109.614 57.1921 109.74 56.8548 109.667 56.5294L108.66 52.0938L112.075 49.0995C112.326 48.8798 112.422 48.5327 112.319 48.2152Z" fill="#FED42B"/>
<path d="M132.971 48.2152C132.868 47.8983 132.587 47.6731 132.255 47.6432L127.737 47.233L125.951 43.0517C125.819 42.7452 125.519 42.5469 125.186 42.5469C124.852 42.5469 124.552 42.7452 124.421 43.0524L122.634 47.233L118.116 47.6432C117.784 47.6739 117.503 47.8983 117.4 48.2152C117.297 48.5321 117.392 48.8798 117.644 49.0989L121.058 52.0938L120.051 56.5294C119.978 56.8555 120.104 57.1927 120.375 57.3883C120.52 57.4934 120.691 57.5469 120.862 57.5469C121.01 57.5469 121.157 57.507 121.289 57.4282L125.186 55.0991L129.081 57.4282C129.366 57.5997 129.726 57.584 129.996 57.3883C130.266 57.1921 130.393 56.8548 130.319 56.5294L129.312 52.0938L132.727 49.0995C132.978 48.8798 133.074 48.5327 132.971 48.2152Z" fill="#FED42B"/>
<defs>
<clipPath id="clip0">
<rect width="167" height="32" fill="white" transform="translate(0.378906 0.546875)"/>
</clipPath>
</defs>
</svg>
