<svg width="40" height="19" viewBox="0 0 40 19" fill="none" xmlns="http://www.w3.org/2000/svg">
<rect x="0.375488" y="0.234863" width="39.6005" height="18" rx="3" fill="white"/>
<path d="M29.7372 9.20747C29.7372 12.0652 27.4291 14.4008 24.5439 14.4008C21.6862 14.4008 19.3506 12.0652 19.3506 9.20747C19.3506 6.34977 21.6587 4.01416 24.5164 4.01416C27.4291 4.01416 29.7372 6.34977 29.7372 9.20747Z" fill="#FFB600"/>
<path d="M24.5439 4.01416C27.4016 4.01416 29.7372 6.34977 29.7372 9.20747C29.7372 12.0652 27.4291 14.4008 24.5439 14.4008C21.6862 14.4008 19.3506 12.0652 19.3506 9.20747" fill="#F7981D"/>
<path d="M24.5439 4.01416C27.4016 4.01416 29.7373 6.34977 29.7373 9.20747C29.7373 12.0652 27.4291 14.4008 24.5439 14.4008" fill="#FF8500"/>
<path d="M17.5656 4.01416C14.7354 4.04164 12.4272 6.34977 12.4272 9.20747C12.4272 12.0652 14.7354 14.4008 17.6206 14.4008C18.967 14.4008 20.176 13.8787 21.1102 13.0544C21.3026 12.8895 21.4674 12.6971 21.6323 12.5048H20.5607C20.4233 12.3399 20.2859 12.1476 20.176 11.9827H22.017C22.1269 11.8179 22.2368 11.6255 22.3193 11.4332H19.8737C19.7913 11.2683 19.7089 11.076 19.6539 10.8836H22.5116C22.6765 10.3615 22.7864 9.81198 22.7864 9.23494C22.7864 8.85025 22.7314 8.49304 22.6765 8.13583H19.489C19.5165 7.94349 19.5715 7.77862 19.6264 7.58628H22.4841C22.4292 7.39393 22.3467 7.20159 22.2643 7.03672H19.8463C19.9287 6.84437 20.0386 6.67951 20.1485 6.48716H21.9895C21.8796 6.29482 21.7422 6.10247 21.5774 5.93761H20.5607C20.7255 5.74526 20.8904 5.5804 21.0828 5.41553C20.176 4.56372 18.9395 4.06912 17.5931 4.06912C17.5931 4.01416 17.5931 4.01416 17.5656 4.01416Z" fill="#FF5050"/>
<path d="M12.4263 9.20622C12.4263 12.0639 14.7344 14.3995 17.6196 14.3995C18.966 14.3995 20.175 13.8774 21.1093 13.0531C21.3016 12.8882 21.4665 12.6959 21.6313 12.5036H20.5597C20.4223 12.3387 20.2849 12.1463 20.175 11.9815H22.016C22.1259 11.8166 22.2358 11.6243 22.3183 11.4319H19.8728C19.7903 11.2671 19.7079 11.0747 19.6529 10.8824H22.5106C22.6755 10.3603 22.7854 9.81073 22.7854 9.2337C22.7854 8.84901 22.7304 8.4918 22.6755 8.13459H19.4881C19.5155 7.94224 19.5705 7.77738 19.6255 7.58503H22.4831C22.4282 7.39269 22.3458 7.20034 22.2633 7.03548H19.8453C19.9277 6.84313 20.0376 6.67826 20.1475 6.48592H21.9885C21.8786 6.29357 21.7412 6.10123 21.5764 5.93636H20.5597C20.7246 5.74402 20.8894 5.57915 21.0818 5.41428C20.175 4.56247 18.9385 4.06787 17.5921 4.06787H17.5646" fill="#E52836"/>
<path d="M17.6194 14.401C18.9658 14.401 20.1748 13.8789 21.1091 13.0546C21.3014 12.8897 21.4663 12.6974 21.6312 12.505H20.5595C20.4221 12.3402 20.2848 12.1478 20.1748 11.9829H22.0159C22.1258 11.8181 22.2357 11.6257 22.3181 11.4334H19.8726C19.7902 11.2685 19.7077 11.0762 19.6528 10.8838H22.5105C22.6753 10.3618 22.7852 9.8122 22.7852 9.23516C22.7852 8.85048 22.7303 8.49326 22.6753 8.13605H19.4879C19.5154 7.94371 19.5703 7.77884 19.6253 7.5865H22.483C22.428 7.39415 22.3456 7.20181 22.2632 7.03694H19.8451C19.9275 6.8446 20.0375 6.67973 20.1474 6.48738H21.9884C21.8785 6.29504 21.7411 6.10269 21.5762 5.93783H20.5595C20.7244 5.74548 20.8893 5.58062 21.0816 5.41575C20.1748 4.56394 18.9383 4.06934 17.5919 4.06934H17.5645" fill="#CB2026"/>
<path d="M19.4614 10.5255L19.5438 10.0583C19.5164 10.0583 19.4614 10.0858 19.4065 10.0858C19.2141 10.0858 19.1866 9.97591 19.2141 9.92095L19.379 8.95923H19.6812L19.7637 8.43716H19.4889L19.5438 8.10742H18.9943C18.9943 8.10742 18.6646 9.92096 18.6646 10.1408C18.6646 10.4705 18.8569 10.6079 19.1042 10.6079C19.2691 10.6079 19.4065 10.5529 19.4614 10.5255Z" fill="white"/>
<path d="M19.6528 9.64623C19.6528 10.4156 20.1749 10.608 20.6146 10.608C21.0267 10.608 21.1916 10.5255 21.1916 10.5255L21.3015 10.0034C21.3015 10.0034 20.9992 10.1408 20.7245 10.1408C20.12 10.1408 20.2299 9.70118 20.2299 9.70118H21.3565C21.3565 9.70118 21.4389 9.34397 21.4389 9.20658C21.4389 8.84937 21.2465 8.40973 20.642 8.40973C20.065 8.35477 19.6528 8.95928 19.6528 9.64623ZM20.6146 8.84937C20.9168 8.84937 20.8619 9.20658 20.8619 9.23406H20.2573C20.2573 9.20658 20.3123 8.84937 20.6146 8.84937Z" fill="white"/>
<path d="M24.1041 10.5257L24.214 9.92119C24.214 9.92119 23.9392 10.0586 23.7468 10.0586C23.3622 10.0586 23.1973 9.75632 23.1973 9.42659C23.1973 8.76712 23.527 8.40991 23.9117 8.40991C24.1865 8.40991 24.4063 8.57477 24.4063 8.57477L24.4887 7.99774C24.4887 7.99774 24.159 7.86035 23.8568 7.86035C23.2248 7.86035 22.5928 8.40991 22.5928 9.45406C22.5928 10.141 22.9225 10.6081 23.582 10.6081C23.8018 10.6081 24.1041 10.5257 24.1041 10.5257Z" fill="white"/>
<path d="M16.4377 8.35449C16.053 8.35449 15.7782 8.4644 15.7782 8.4644L15.6958 8.93153C15.6958 8.93153 15.9431 8.82162 16.3003 8.82162C16.4927 8.82162 16.6575 8.84909 16.6575 9.01396C16.6575 9.12387 16.6301 9.15135 16.6301 9.15135C16.6301 9.15135 16.4652 9.15135 16.3828 9.15135C15.9156 9.15135 15.3936 9.34369 15.3936 9.97568C15.3936 10.4703 15.7233 10.5802 15.9156 10.5802C16.3003 10.5802 16.4652 10.3329 16.4927 10.3329L16.4652 10.5527H16.9598L17.1796 9.04144C17.1796 8.38197 16.6301 8.35449 16.4377 8.35449ZM16.5476 9.59099C16.5476 9.67343 16.4927 10.1131 16.1629 10.1131C15.9981 10.1131 15.9431 9.97568 15.9431 9.89325C15.9431 9.75586 16.0255 9.56352 16.4377 9.56352C16.5201 9.59099 16.5476 9.59099 16.5476 9.59099Z" fill="white"/>
<path d="M17.7023 10.5803C17.8397 10.5803 18.5266 10.6078 18.5266 9.86591C18.5266 9.17896 17.8672 9.31635 17.8672 9.04157C17.8672 8.90418 17.9771 8.84923 18.1694 8.84923C18.2519 8.84923 18.5541 8.8767 18.5541 8.8767L18.6365 8.3821C18.6365 8.3821 18.4442 8.32715 18.1145 8.32715C17.7023 8.32715 17.2901 8.49202 17.2901 9.04157C17.2901 9.67356 17.9771 9.61861 17.9771 9.86591C17.9771 10.0308 17.7847 10.0583 17.6473 10.0583C17.4 10.0583 17.1527 9.97582 17.1527 9.97582L17.0703 10.4704C17.0978 10.5254 17.2352 10.5803 17.7023 10.5803Z" fill="white"/>
<path d="M28.6654 7.91504L28.5554 8.65694C28.5554 8.65694 28.3356 8.38216 28.0334 8.38216C27.5388 8.38216 27.0991 8.98667 27.0991 9.7011C27.0991 10.1407 27.3189 10.6079 27.7861 10.6079C28.1158 10.6079 28.3081 10.388 28.3081 10.388L28.2807 10.5804H28.8302L29.2424 7.94252L28.6654 7.91504ZM28.4181 9.37136C28.4181 9.67362 28.2807 10.0583 27.9784 10.0583C27.7861 10.0583 27.6762 9.89344 27.6762 9.61866C27.6762 9.17902 27.8685 8.90424 28.1158 8.90424C28.3081 8.90424 28.4181 9.04163 28.4181 9.37136Z" fill="white"/>
<path d="M13.443 10.5524L13.7727 8.57402L13.8277 10.5524H14.2124L14.9268 8.57402L14.6245 10.5524H15.2016L15.6412 7.91455H14.7344L14.1849 9.53574L14.1574 7.91455H13.3605L12.9209 10.5524H13.443Z" fill="white"/>
<path d="M21.961 10.5529C22.1258 9.64617 22.1533 8.90427 22.538 9.04166C22.5929 8.68445 22.6754 8.54706 22.7303 8.40967C22.7303 8.40967 22.7029 8.40967 22.6204 8.40967C22.3731 8.40967 22.1808 8.7394 22.1808 8.7394L22.2357 8.43715H21.7137L21.3564 10.5804H21.961V10.5529Z" fill="white"/>
<path d="M25.3679 8.35449C24.9832 8.35449 24.7084 8.4644 24.7084 8.4644L24.626 8.93153C24.626 8.93153 24.8733 8.82162 25.2305 8.82162C25.4228 8.82162 25.5877 8.84909 25.5877 9.01396C25.5877 9.12387 25.5602 9.15135 25.5602 9.15135C25.5602 9.15135 25.3954 9.15135 25.3129 9.15135C24.8458 9.15135 24.3237 9.34369 24.3237 9.97568C24.3237 10.4703 24.6535 10.5802 24.8458 10.5802C25.2305 10.5802 25.3954 10.3329 25.4228 10.3329L25.3954 10.5527H25.89L26.1098 9.04144C26.1373 8.38197 25.5602 8.35449 25.3679 8.35449ZM25.5053 9.59099C25.5053 9.67343 25.4503 10.1131 25.1206 10.1131C24.9557 10.1131 24.9008 9.97568 24.9008 9.89325C24.9008 9.75586 24.9832 9.56352 25.3954 9.56352C25.4778 9.59099 25.4778 9.59099 25.5053 9.59099Z" fill="white"/>
<path d="M26.5781 10.5529C26.743 9.64617 26.7705 8.90427 27.1552 9.04166C27.2101 8.68445 27.2926 8.54706 27.3475 8.40967C27.3475 8.40967 27.32 8.40967 27.2376 8.40967C26.9903 8.40967 26.798 8.7394 26.798 8.7394L26.8529 8.43715H26.3308L25.9736 10.5804H26.5781V10.5529Z" fill="white"/>
<path d="M18.6094 10.1408C18.6094 10.4705 18.8017 10.6079 19.049 10.6079C19.2414 10.6079 19.4062 10.5529 19.4612 10.5255L19.5436 10.0583C19.5161 10.0583 19.4612 10.0858 19.4062 10.0858C19.2139 10.0858 19.1864 9.97591 19.2139 9.92095L19.3788 8.95923H19.681L19.7634 8.43716H19.4887L19.5436 8.10742" fill="#DCE5E5"/>
<path d="M19.9277 9.64623C19.9277 10.4156 20.175 10.608 20.6147 10.608C21.0268 10.608 21.1917 10.5255 21.1917 10.5255L21.3016 10.0034C21.3016 10.0034 20.9994 10.1408 20.7246 10.1408C20.1201 10.1408 20.23 9.70118 20.23 9.70118H21.3566C21.3566 9.70118 21.439 9.34397 21.439 9.20658C21.439 8.84937 21.2467 8.40973 20.6422 8.40973C20.0651 8.35477 19.9277 8.95928 19.9277 9.64623ZM20.6147 8.84937C20.9169 8.84937 20.9719 9.20658 20.9719 9.23406H20.2575C20.2575 9.20658 20.3124 8.84937 20.6147 8.84937Z" fill="#DCE5E5"/>
<path d="M24.1047 10.5257L24.2146 9.92119C24.2146 9.92119 23.9398 10.0586 23.7475 10.0586C23.3628 10.0586 23.1979 9.75632 23.1979 9.42659C23.1979 8.76712 23.5276 8.40991 23.9123 8.40991C24.1871 8.40991 24.4069 8.57477 24.4069 8.57477L24.4894 7.99774C24.4894 7.99774 24.1596 7.86035 23.8574 7.86035C23.2254 7.86035 22.8682 8.40991 22.8682 9.45406C22.8682 10.141 22.9231 10.6081 23.5826 10.6081C23.8024 10.6081 24.1047 10.5257 24.1047 10.5257Z" fill="#DCE5E5"/>
<path d="M15.6958 8.95922C15.6958 8.95922 15.9431 8.84931 16.3003 8.84931C16.4927 8.84931 16.6575 8.87679 16.6575 9.04166C16.6575 9.15157 16.6301 9.17905 16.6301 9.17905C16.6301 9.17905 16.4652 9.17905 16.3828 9.17905C15.9156 9.17905 15.3936 9.37139 15.3936 10.0034C15.3936 10.498 15.7233 10.6079 15.9156 10.6079C16.3003 10.6079 16.4652 10.3606 16.4927 10.3606L16.4652 10.5804H16.9598L17.1796 9.06913C17.1796 8.43715 16.6301 8.40967 16.4102 8.40967L15.6958 8.95922ZM16.8224 9.59121C16.8224 9.67365 16.4927 10.1133 16.1629 10.1133C15.9981 10.1133 15.9431 9.9759 15.9431 9.89347C15.9431 9.75608 16.0255 9.56374 16.4377 9.56374C16.5201 9.59121 16.8224 9.59121 16.8224 9.59121Z" fill="#DCE5E5"/>
<path d="M17.0981 10.5254C17.0981 10.5254 17.263 10.5803 17.7301 10.5803C17.8675 10.5803 18.5545 10.6078 18.5545 9.86591C18.5545 9.17896 17.895 9.31635 17.895 9.04157C17.895 8.90418 18.0049 8.84923 18.1973 8.84923C18.2797 8.84923 18.5819 8.8767 18.5819 8.8767L18.6644 8.3821C18.6644 8.3821 18.472 8.32715 18.1423 8.32715C17.7301 8.32715 17.5927 8.49202 17.5927 9.04157C17.5927 9.67356 18.0049 9.61861 18.0049 9.86591C18.0049 10.0308 17.8126 10.0583 17.6752 10.0583" fill="#DCE5E5"/>
<path d="M28.5556 8.65778C28.5556 8.65778 28.3358 8.383 28.0335 8.383C27.5389 8.383 27.3741 8.98751 27.3741 9.70194C27.3741 10.1416 27.3191 10.6087 27.7862 10.6087C28.116 10.6087 28.3083 10.3889 28.3083 10.3889L28.2808 10.5812H28.8304L29.2426 7.94336L28.5556 8.65778ZM28.5281 9.3722C28.5281 9.67446 28.2808 10.0591 27.9786 10.0591C27.7862 10.0591 27.6763 9.89428 27.6763 9.6195C27.6763 9.17986 27.8687 8.90508 28.116 8.90508C28.3083 8.90508 28.5281 9.04247 28.5281 9.3722Z" fill="#DCE5E5"/>
<path d="M13.443 10.5524L13.7727 8.57402L13.8277 10.5524H14.2124L14.9268 8.57402L14.6245 10.5524H15.2016L15.6412 7.91455H14.9543L14.1849 9.53574L14.1574 7.91455H13.8551L12.9209 10.5524H13.443Z" fill="#DCE5E5"/>
<path d="M21.3843 10.5529H21.9613C22.1262 9.64617 22.1537 8.90427 22.5383 9.04166C22.5933 8.68445 22.6757 8.54706 22.7307 8.40967C22.7307 8.40967 22.7032 8.40967 22.6208 8.40967C22.3735 8.40967 22.1811 8.7394 22.1811 8.7394L22.2361 8.43715" fill="#DCE5E5"/>
<path d="M24.626 8.95922C24.626 8.95922 24.8733 8.84931 25.2305 8.84931C25.4228 8.84931 25.5877 8.87679 25.5877 9.04166C25.5877 9.15157 25.5602 9.17905 25.5602 9.17905C25.5602 9.17905 25.3954 9.17905 25.3129 9.17905C24.8458 9.17905 24.3237 9.37139 24.3237 10.0034C24.3237 10.498 24.6535 10.6079 24.8458 10.6079C25.2305 10.6079 25.3954 10.3606 25.4228 10.3606L25.3954 10.5804H25.89L26.1098 9.06913C26.1098 8.43715 25.5602 8.40967 25.3404 8.40967L24.626 8.95922ZM25.7526 9.59121C25.7526 9.67365 25.4228 10.1133 25.0931 10.1133C24.9282 10.1133 24.8733 9.9759 24.8733 9.89347C24.8733 9.75608 24.9557 9.56374 25.3679 9.56374C25.4778 9.59121 25.7526 9.59121 25.7526 9.59121Z" fill="#DCE5E5"/>
<path d="M26 10.5529H26.577C26.7419 9.64617 26.7694 8.90427 27.1541 9.04166C27.209 8.68445 27.2915 8.54706 27.3464 8.40967C27.3464 8.40967 27.3189 8.40967 27.2365 8.40967C26.9892 8.40967 26.7969 8.7394 26.7969 8.7394L26.8518 8.43715" fill="#DCE5E5"/>
</svg>
