<svg width="41" height="19" viewBox="0 0 41 19" fill="none" xmlns="http://www.w3.org/2000/svg">
<rect x="0.431152" y="0.884766" width="39.7037" height="18" rx="3" fill="white"/>
<path d="M29.8695 9.85737C29.8695 12.7151 27.5553 15.0507 24.6627 15.0507C21.7975 15.0507 19.4558 12.7151 19.4558 9.85737C19.4558 6.99968 21.77 4.66406 24.6351 4.66406C27.5554 4.66406 29.8695 6.99968 29.8695 9.85737Z" fill="#FFBC00"/>
<path d="M24.6627 4.66406C27.5278 4.66406 29.8695 6.99968 29.8695 9.85737C29.8695 12.7151 27.5553 15.0507 24.6627 15.0507C21.7975 15.0507 19.4558 12.7151 19.4558 9.85737" fill="#FF8500"/>
<path d="M24.6626 4.66406C27.5277 4.66406 29.8694 6.99968 29.8694 9.85737C29.8694 12.7151 27.5553 15.0507 24.6626 15.0507" fill="#FF8500"/>
<path d="M17.6662 4.66406C14.8286 4.69154 12.5144 6.99968 12.5144 9.85737C12.5144 12.7151 14.8286 15.0507 17.7213 15.0507C19.0712 15.0507 20.2834 14.5286 21.22 13.7043C21.4129 13.5394 21.5782 13.347 21.7435 13.1547H20.669C20.5313 12.9898 20.3935 12.7975 20.2834 12.6326H22.1292C22.2394 12.4678 22.3496 12.2754 22.4322 12.0831H19.9803C19.8977 11.9182 19.815 11.7259 19.7599 11.5335H22.6251C22.7904 11.0114 22.9005 10.4619 22.9005 9.88485C22.9005 9.50016 22.8454 9.14294 22.7904 8.78573H19.5946C19.6222 8.59339 19.6773 8.42852 19.7324 8.23618H22.5975C22.5424 8.04383 22.4598 7.85149 22.3771 7.68662H19.9528C20.0354 7.49428 20.1456 7.32941 20.2558 7.13707H22.1016C21.9914 6.94472 21.8537 6.75238 21.6884 6.58751H20.669C20.8343 6.39516 20.9996 6.2303 21.1925 6.06543C20.2834 5.21362 19.0436 4.71902 17.6937 4.71902C17.6937 4.66406 17.6937 4.66406 17.6662 4.66406Z" fill="#FF5050"/>
<path d="M12.5134 9.85612C12.5134 12.7138 14.8276 15.0494 17.7203 15.0494C19.0702 15.0494 20.2824 14.5274 21.2191 13.703C21.4119 13.5382 21.5772 13.3458 21.7425 13.1535H20.6681C20.5303 12.9886 20.3926 12.7963 20.2824 12.6314H22.1282C22.2384 12.4665 22.3486 12.2742 22.4312 12.0818H19.9793C19.8967 11.917 19.814 11.7246 19.7589 11.5323H22.6241C22.7894 11.0102 22.8996 10.4606 22.8996 9.8836C22.8996 9.49891 22.8445 9.1417 22.7894 8.78449H19.5936C19.6212 8.59215 19.6763 8.42728 19.7314 8.23493H22.5965C22.5414 8.04259 22.4588 7.85024 22.3761 7.68538H19.9518C20.0344 7.49303 20.1446 7.32817 20.2548 7.13582H22.1006C21.9904 6.94348 21.8527 6.75113 21.6874 6.58626H20.6681C20.8334 6.39392 20.9987 6.22905 21.1915 6.06419C20.2824 5.21237 19.0426 4.71777 17.6927 4.71777H17.6652" fill="#D42428"/>
<path d="M17.7201 15.0509C19.0701 15.0509 20.2822 14.5288 21.2189 13.7045C21.4118 13.5396 21.5771 13.3473 21.7424 13.1549H20.6679C20.5302 12.9901 20.3924 12.7977 20.2822 12.6328H22.1281C22.2383 12.468 22.3484 12.2756 22.4311 12.0833H19.9792C19.8965 11.9184 19.8139 11.7261 19.7588 11.5337H22.6239C22.7892 11.0117 22.8994 10.4621 22.8994 9.88507C22.8994 9.50038 22.8443 9.14317 22.7892 8.78595H19.5935C19.6211 8.59361 19.6761 8.42874 19.7312 8.2364H22.5964C22.5413 8.04405 22.4586 7.85171 22.376 7.68684H19.9516C20.0343 7.4945 20.1445 7.32963 20.2547 7.13729H22.1005C21.9903 6.94494 21.8526 6.7526 21.6873 6.58773H20.6679C20.8332 6.39538 20.9985 6.23052 21.1914 6.06565C20.2822 5.21384 19.0425 4.71924 17.6926 4.71924H17.665" fill="#D42428"/>
<path d="M19.5668 11.1754L19.6494 10.7082C19.6219 10.7082 19.5668 10.7357 19.5117 10.7357C19.3188 10.7357 19.2913 10.6258 19.3188 10.5709L19.4841 9.60914H19.7872L19.8698 9.08706H19.5943L19.6494 8.75732H19.0984C19.0984 8.75732 18.7678 10.5709 18.7678 10.7907C18.7678 11.1204 18.9607 11.2578 19.2086 11.2578C19.3739 11.2578 19.5117 11.2028 19.5668 11.1754Z" fill="white"/>
<path d="M19.7588 10.2961C19.7588 11.0655 20.2822 11.2579 20.723 11.2579C21.1363 11.2579 21.3016 11.1754 21.3016 11.1754L21.4118 10.6533C21.4118 10.6533 21.1087 10.7907 20.8332 10.7907C20.2271 10.7907 20.3373 10.3511 20.3373 10.3511H21.4669C21.4669 10.3511 21.5495 9.99388 21.5495 9.85649C21.5495 9.49927 21.3567 9.05963 20.7506 9.05963C20.172 9.00467 19.7588 9.60919 19.7588 10.2961ZM20.723 9.49927C21.0261 9.49927 20.971 9.85649 20.971 9.88396H20.3649C20.3649 9.85649 20.42 9.49927 20.723 9.49927Z" fill="white"/>
<path d="M24.2218 11.1756L24.332 10.5711C24.332 10.5711 24.0565 10.7085 23.8636 10.7085C23.4779 10.7085 23.3126 10.4062 23.3126 10.0765C23.3126 9.41702 23.6432 9.05981 24.0289 9.05981C24.3044 9.05981 24.5248 9.22468 24.5248 9.22468L24.6075 8.64764C24.6075 8.64764 24.2769 8.51025 23.9738 8.51025C23.3402 8.51025 22.7065 9.05981 22.7065 10.104C22.7065 10.7909 23.0371 11.258 23.6983 11.258C23.9187 11.258 24.2218 11.1756 24.2218 11.1756Z" fill="white"/>
<path d="M16.5352 9.00439C16.1495 9.00439 15.874 9.11431 15.874 9.11431L15.7913 9.58143C15.7913 9.58143 16.0393 9.47152 16.3974 9.47152C16.5903 9.47152 16.7556 9.499 16.7556 9.66386C16.7556 9.77377 16.728 9.80125 16.728 9.80125C16.728 9.80125 16.5627 9.80125 16.4801 9.80125C16.0117 9.80125 15.4883 9.9936 15.4883 10.6256C15.4883 11.1202 15.8189 11.2301 16.0117 11.2301C16.3974 11.2301 16.5627 10.9828 16.5903 10.9828L16.5627 11.2026H17.0586L17.279 9.69134C17.279 9.03187 16.728 9.00439 16.5352 9.00439ZM16.6454 10.2409C16.6454 10.3233 16.5903 10.763 16.2597 10.763C16.0944 10.763 16.0393 10.6256 16.0393 10.5432C16.0393 10.4058 16.1219 10.2134 16.5352 10.2134C16.6178 10.2409 16.6454 10.2409 16.6454 10.2409Z" fill="white"/>
<path d="M17.8031 11.2302C17.9408 11.2302 18.6296 11.2577 18.6296 10.5158C18.6296 9.82886 17.9684 9.96625 17.9684 9.69147C17.9684 9.55408 18.0786 9.49913 18.2714 9.49913C18.3541 9.49913 18.6571 9.52661 18.6571 9.52661L18.7398 9.03201C18.7398 9.03201 18.5469 8.97705 18.2163 8.97705C17.8031 8.97705 17.3898 9.14192 17.3898 9.69147C17.3898 10.3235 18.0786 10.2685 18.0786 10.5158C18.0786 10.6807 17.8857 10.7082 17.748 10.7082C17.5 10.7082 17.2521 10.6257 17.2521 10.6257L17.1694 11.1203C17.197 11.1753 17.3347 11.2302 17.8031 11.2302Z" fill="white"/>
<path d="M28.7947 8.56494L28.6845 9.30684C28.6845 9.30684 28.4641 9.03206 28.161 9.03206C27.6652 9.03206 27.2244 9.63658 27.2244 10.351C27.2244 10.7906 27.4448 11.2578 27.9131 11.2578C28.2437 11.2578 28.4365 11.0379 28.4365 11.0379L28.409 11.2303H28.96L29.3732 8.59242L28.7947 8.56494ZM28.5467 10.0213C28.5467 10.3235 28.409 10.7082 28.1059 10.7082C27.9131 10.7082 27.8029 10.5433 27.8029 10.2686C27.8029 9.82892 27.9957 9.55414 28.2437 9.55414C28.4365 9.55414 28.5467 9.69153 28.5467 10.0213Z" fill="white"/>
<path d="M13.5327 11.2023L13.8633 9.22392L13.9184 11.2023H14.3041L15.0204 9.22392L14.7173 11.2023H15.2959L15.7367 8.56445H14.8275L14.2766 10.1856L14.249 8.56445H13.4501L13.0093 11.2023H13.5327Z" fill="white"/>
<path d="M22.0729 11.2028C22.2382 10.2961 22.2657 9.55417 22.6514 9.69156C22.7065 9.33435 22.7892 9.19696 22.8443 9.05957C22.8443 9.05957 22.8167 9.05957 22.7341 9.05957C22.4861 9.05957 22.2933 9.3893 22.2933 9.3893L22.3484 9.08705H21.8249L21.4668 11.2303H22.0729V11.2028Z" fill="white"/>
<path d="M25.4888 9.00439C25.1031 9.00439 24.8276 9.11431 24.8276 9.11431L24.7449 9.58143C24.7449 9.58143 24.9929 9.47152 25.351 9.47152C25.5439 9.47152 25.7092 9.499 25.7092 9.66386C25.7092 9.77377 25.6816 9.80125 25.6816 9.80125C25.6816 9.80125 25.5163 9.80125 25.4337 9.80125C24.9653 9.80125 24.4419 9.9936 24.4419 10.6256C24.4419 11.1202 24.7725 11.2301 24.9653 11.2301C25.351 11.2301 25.5163 10.9828 25.5439 10.9828L25.5163 11.2026H26.0122L26.2326 9.69134C26.2602 9.03187 25.6816 9.00439 25.4888 9.00439ZM25.6265 10.2409C25.6265 10.3233 25.5714 10.763 25.2408 10.763C25.0755 10.763 25.0204 10.6256 25.0204 10.5432C25.0204 10.4058 25.1031 10.2134 25.5163 10.2134C25.599 10.2409 25.599 10.2409 25.6265 10.2409Z" fill="white"/>
<path d="M26.702 11.2028C26.8673 10.2961 26.8949 9.55417 27.2806 9.69156C27.3357 9.33435 27.4183 9.19696 27.4734 9.05957C27.4734 9.05957 27.4459 9.05957 27.3632 9.05957C27.1153 9.05957 26.9224 9.3893 26.9224 9.3893L26.9775 9.08705H26.4541L26.0959 11.2303H26.702V11.2028Z" fill="white"/>
<path d="M18.7126 10.7907C18.7126 11.1204 18.9055 11.2578 19.1534 11.2578C19.3463 11.2578 19.5116 11.2028 19.5667 11.1754L19.6493 10.7082C19.6218 10.7082 19.5667 10.7357 19.5116 10.7357C19.3187 10.7357 19.2912 10.6258 19.3187 10.5709L19.484 9.60914H19.7871L19.8697 9.08706H19.5942L19.6493 8.75732" fill="#DCE5E5"/>
<path d="M20.0344 10.2961C20.0344 11.0655 20.2824 11.2579 20.7232 11.2579C21.1364 11.2579 21.3017 11.1754 21.3017 11.1754L21.4119 10.6533C21.4119 10.6533 21.1089 10.7907 20.8334 10.7907C20.2273 10.7907 20.3375 10.3511 20.3375 10.3511H21.467C21.467 10.3511 21.5496 9.99388 21.5496 9.85649C21.5496 9.49927 21.3568 9.05963 20.7507 9.05963C20.1722 9.00467 20.0344 9.60919 20.0344 10.2961ZM20.7232 9.49927C21.0262 9.49927 21.0813 9.85649 21.0813 9.88396H20.365C20.365 9.85649 20.4201 9.49927 20.7232 9.49927Z" fill="#DCE5E5"/>
<path d="M24.2224 11.1756L24.3326 10.5711C24.3326 10.5711 24.0571 10.7085 23.8642 10.7085C23.4786 10.7085 23.3133 10.4062 23.3133 10.0765C23.3133 9.41702 23.6439 9.05981 24.0295 9.05981C24.305 9.05981 24.5254 9.22468 24.5254 9.22468L24.6081 8.64764C24.6081 8.64764 24.2775 8.51025 23.9744 8.51025C23.3408 8.51025 22.9827 9.05981 22.9827 10.104C22.9827 10.7909 23.0378 11.258 23.699 11.258C23.9193 11.258 24.2224 11.1756 24.2224 11.1756Z" fill="#DCE5E5"/>
<path d="M15.7913 9.60913C15.7913 9.60913 16.0393 9.49922 16.3974 9.49922C16.5903 9.49922 16.7556 9.52669 16.7556 9.69156C16.7556 9.80147 16.728 9.82895 16.728 9.82895C16.728 9.82895 16.5627 9.82895 16.4801 9.82895C16.0117 9.82895 15.4883 10.0213 15.4883 10.6533C15.4883 11.1479 15.8189 11.2578 16.0117 11.2578C16.3974 11.2578 16.5627 11.0105 16.5903 11.0105L16.5627 11.2303H17.0586L17.279 9.71904C17.279 9.08705 16.728 9.05957 16.5076 9.05957L15.7913 9.60913ZM16.9209 10.2411C16.9209 10.3235 16.5903 10.7632 16.2597 10.7632C16.0944 10.7632 16.0393 10.6258 16.0393 10.5434C16.0393 10.406 16.1219 10.2136 16.5352 10.2136C16.6178 10.2411 16.9209 10.2411 16.9209 10.2411Z" fill="#DCE5E5"/>
<path d="M17.1975 11.1753C17.1975 11.1753 17.3628 11.2302 17.8311 11.2302C17.9689 11.2302 18.6576 11.2577 18.6576 10.5158C18.6576 9.82886 17.9964 9.96625 17.9964 9.69147C17.9964 9.55408 18.1066 9.49913 18.2995 9.49913C18.3821 9.49913 18.6852 9.52661 18.6852 9.52661L18.7678 9.03201C18.7678 9.03201 18.575 8.97705 18.2444 8.97705C17.8311 8.97705 17.6934 9.14192 17.6934 9.69147C17.6934 10.3235 18.1066 10.2685 18.1066 10.5158C18.1066 10.6807 17.9138 10.7082 17.776 10.7082" fill="#DCE5E5"/>
<path d="M28.6847 9.30768C28.6847 9.30768 28.4643 9.03291 28.1612 9.03291C27.6653 9.03291 27.5 9.63742 27.5 10.3518C27.5 10.7915 27.4449 11.2586 27.9133 11.2586C28.2439 11.2586 28.4367 11.0388 28.4367 11.0388L28.4092 11.2311H28.9602L29.3734 8.59326L28.6847 9.30768ZM28.6571 10.0221C28.6571 10.3244 28.4092 10.709 28.1061 10.709C27.9133 10.709 27.8031 10.5442 27.8031 10.2694C27.8031 9.82976 27.9959 9.55498 28.2439 9.55498C28.4367 9.55498 28.6571 9.69237 28.6571 10.0221Z" fill="#DCE5E5"/>
<path d="M13.5327 11.2023L13.8633 9.22392L13.9184 11.2023H14.3041L15.0204 9.22392L14.7173 11.2023H15.2959L15.7367 8.56445H15.0479L14.2766 10.1856L14.249 8.56445H13.946L13.0093 11.2023H13.5327Z" fill="#DCE5E5"/>
<path d="M21.4946 11.2028H22.0732C22.2385 10.2961 22.266 9.55417 22.6517 9.69156C22.7068 9.33435 22.7895 9.19696 22.8446 9.05957C22.8446 9.05957 22.817 9.05957 22.7344 9.05957C22.4864 9.05957 22.2936 9.3893 22.2936 9.3893L22.3487 9.08705" fill="#DCE5E5"/>
<path d="M24.7449 9.60913C24.7449 9.60913 24.9929 9.49922 25.351 9.49922C25.5439 9.49922 25.7092 9.52669 25.7092 9.69156C25.7092 9.80147 25.6816 9.82895 25.6816 9.82895C25.6816 9.82895 25.5163 9.82895 25.4337 9.82895C24.9653 9.82895 24.4419 10.0213 24.4419 10.6533C24.4419 11.1479 24.7725 11.2578 24.9653 11.2578C25.351 11.2578 25.5163 11.0105 25.5439 11.0105L25.5163 11.2303H26.0122L26.2326 9.71904C26.2326 9.08705 25.6816 9.05957 25.4612 9.05957L24.7449 9.60913ZM25.8745 10.2411C25.8745 10.3235 25.5439 10.7632 25.2133 10.7632C25.048 10.7632 24.9929 10.6258 24.9929 10.5434C24.9929 10.406 25.0755 10.2136 25.4888 10.2136C25.599 10.2411 25.8745 10.2411 25.8745 10.2411Z" fill="#DCE5E5"/>
<path d="M26.1226 11.2028H26.7011C26.8664 10.2961 26.8939 9.55417 27.2796 9.69156C27.3347 9.33435 27.4174 9.19696 27.4725 9.05957C27.4725 9.05957 27.4449 9.05957 27.3623 9.05957C27.1143 9.05957 26.9215 9.3893 26.9215 9.3893L26.9766 9.08705" fill="#DCE5E5"/>
</svg>
