<svg width="41" height="19" viewBox="0 0 41 19" fill="none" xmlns="http://www.w3.org/2000/svg">
<rect x="0.774902" y="0.234863" width="39.6005" height="18" rx="3" fill="white"/>
<path d="M15.3525 14.1283L17.0491 4.34033H19.7L18.0565 14.1283H15.3525Z" fill="#3C58BF"/>
<path d="M15.3525 14.1283L17.5263 4.34033H19.7L18.0565 14.1283H15.3525Z" fill="#293688"/>
<path d="M27.6528 4.44918C27.1226 4.23167 26.2744 4.01416 25.214 4.01416C22.5631 4.01416 20.6544 5.3736 20.6544 7.3312C20.6544 8.79941 21.9799 9.56069 23.0402 10.0501C24.1006 10.5395 24.4187 10.8658 24.4187 11.3008C24.4187 11.9533 23.5704 12.2796 22.8282 12.2796C21.7678 12.2796 21.1846 12.1165 20.2833 11.7358L19.9121 11.5727L19.541 13.8022C20.1772 14.0741 21.3436 14.3459 22.5631 14.3459C25.373 14.3459 27.2287 12.9865 27.2287 10.9201C27.2287 9.77821 26.5394 8.90816 24.9489 8.20125C23.9946 7.71185 23.4114 7.43996 23.4114 6.95056C23.4114 6.51554 23.8885 6.08052 24.9489 6.08052C25.8502 6.08052 26.4864 6.24365 26.9636 6.46116L27.2287 6.56992L27.6528 4.44918Z" fill="#3C58BF"/>
<path d="M27.6528 4.44918C27.1226 4.23167 26.2744 4.01416 25.214 4.01416C22.5631 4.01416 21.1316 5.3736 21.1316 7.3312C21.1316 8.79941 21.9799 9.56069 23.0402 10.0501C24.1006 10.5395 24.4187 10.8658 24.4187 11.3008C24.4187 11.9533 23.5704 12.2796 22.8282 12.2796C21.7678 12.2796 21.1846 12.1165 20.2833 11.7358L19.9121 11.5727L19.541 13.8022C20.1772 14.0741 21.3436 14.3459 22.5631 14.3459C25.373 14.3459 27.2287 12.9865 27.2287 10.9201C27.2287 9.77821 26.5394 8.90816 24.9489 8.20125C23.9946 7.71185 23.4114 7.43996 23.4114 6.95056C23.4114 6.51554 23.8885 6.08052 24.9489 6.08052C25.8502 6.08052 26.4864 6.24365 26.9636 6.46116L27.2287 6.56992L27.6528 4.44918Z" fill="#293688"/>
<path d="M32.2128 4.34033C31.5765 4.34033 31.0994 4.39471 30.8343 5.04724L26.8579 14.1283H29.7209L30.2511 12.497H33.6443L33.9624 14.1283H36.5073L34.2805 4.34033H32.2128ZM30.9933 10.8657C31.1524 10.3763 32.0537 7.98365 32.0537 7.98365C32.0537 7.98365 32.2658 7.38549 32.4248 7.00485L32.5839 7.92927C32.5839 7.92927 33.1141 10.3763 33.2201 10.92H30.9933V10.8657Z" fill="#3C58BF"/>
<path d="M32.849 4.34033C32.2128 4.34033 31.7356 4.39471 31.4705 5.04724L26.8579 14.1283H29.7209L30.2511 12.497H33.6443L33.9624 14.1283H36.5073L34.2805 4.34033H32.849ZM30.9933 10.8657C31.2054 10.3219 32.0537 7.98365 32.0537 7.98365C32.0537 7.98365 32.2658 7.38549 32.4248 7.00485L32.5839 7.92927C32.5839 7.92927 33.1141 10.3763 33.2201 10.92H30.9933V10.8657Z" fill="#293688"/>
<path d="M10.4754 11.1918L10.2103 9.77793C9.73314 8.1466 8.19561 6.35213 6.49902 5.48209L8.88485 14.1825H11.7478L16.0423 4.39453H13.1793L10.4754 11.1918Z" fill="#3C58BF"/>
<path d="M10.4754 11.1918L10.2103 9.77793C9.73314 8.1466 8.19561 6.35213 6.49902 5.48209L8.88485 14.1825H11.7478L16.0423 4.39453H13.7095L10.4754 11.1918Z" fill="#293688"/>
<path d="M3.10547 4.34033L3.58263 4.44909C6.97581 5.26476 9.30862 7.33111 10.2099 9.77811L9.2556 5.156C9.09655 4.50347 8.61938 4.34033 8.03618 4.34033H3.10547Z" fill="#FFBC00"/>
<path d="M3.10547 4.34033C6.49864 5.156 9.30862 7.27674 10.2099 9.72374L9.30862 5.86291C9.14956 5.21038 8.61938 4.82973 8.03618 4.82973L3.10547 4.34033Z" fill="#F7981D"/>
<path d="M3.10547 4.34033C6.49864 5.156 9.30862 7.27674 10.2099 9.72374L9.57371 7.603C9.41466 6.95047 9.20258 6.29793 8.46032 6.02604L3.10547 4.34033Z" fill="#ED7C00"/>
<path d="M13.126 10.866L11.3234 9.01716L10.4751 11.0835L10.263 9.72407C9.78588 8.09274 8.24835 6.29827 6.55176 5.42822L8.93758 14.1287H11.8006L13.126 10.866Z" fill="#051244"/>
<path d="M18.0575 14.1294L15.7777 11.7368L15.3535 14.1294H18.0575Z" fill="#051244"/>
<path d="M24.1541 10.7578C24.3662 10.9753 24.4722 11.1385 24.4192 11.356C24.4192 12.0085 23.5709 12.3348 22.8286 12.3348C21.7683 12.3348 21.1851 12.1716 20.2838 11.791L19.9126 11.6279L19.5415 13.8573C20.1777 14.1292 21.3441 14.4011 22.5636 14.4011C24.2601 14.4011 25.6386 13.9117 26.4339 13.0417L24.1541 10.7578Z" fill="#051244"/>
<path d="M27.229 14.1289H29.7209L30.2511 12.4975H33.6442L33.9623 14.1289H36.5072L35.6059 10.1593L32.4248 7.00537L32.5839 7.87542C32.5839 7.87542 33.1141 10.3224 33.2201 10.8662H30.9933C31.2054 10.3224 32.0537 7.98417 32.0537 7.98417C32.0537 7.98417 32.2658 7.38602 32.4248 7.00537" fill="#051244"/>
</svg>
