<svg width="100" height="152" viewBox="0 0 100 152" fill="none" xmlns="http://www.w3.org/2000/svg">
<path fill-rule="evenodd" clip-rule="evenodd" d="M37.121 2.91482C33.4453 2.41586 29.9215 1.62937 25.7457 2.04151C25.3175 2.07581 24.6659 2.6596 24.8531 3.00957C26.0204 5.9831 27.1074 8.98229 28.8281 11.54C29.1224 11.9582 30.113 11.4369 30.1936 10.7964C30.3458 9.58678 30.5785 8.35138 30.9271 7.11315L31.9537 5.99972C33.4083 5.46673 35.3266 4.92245 36.7367 4.13049C37.3971 3.78284 37.692 2.97155 37.121 2.91482Z" fill="#F2F9FC"/>
<path d="M31.3833 4.4311C97.4496 41.3818 111.672 73.0135 48.5015 146.246C112.076 70.6875 95.1276 43.8862 29.0619 6.93582L31.3833 4.4311Z" fill="#F2F9FC"/>
</svg>
