<svg width="18" height="24" viewBox="0 0 18 24" fill="none" xmlns="http://www.w3.org/2000/svg">
<path d="M4.79029 18.0027L4.38369 18.2937L4.79029 18.0027C2.20083 14.3846 0.948242 11.3118 0.948242 8.84952C0.948242 4.43709 4.47309 0.861816 8.78614 0.861816C13.0991 0.861816 16.6241 4.4371 16.6241 8.84948C16.6241 11.4543 15.3674 14.5712 12.7811 18.1286C10.8906 20.7288 9.02571 22.5332 8.95666 22.5997L8.95659 22.5998C8.90891 22.6457 8.84833 22.6685 8.78628 22.6685C8.72221 22.6685 8.65993 22.6443 8.61187 22.5959C8.53982 22.5233 6.67833 20.6409 4.79029 18.0027ZM4.20984 8.43748C4.20984 10.9613 6.26229 13.0138 8.78614 13.0138C11.3099 13.0138 13.3624 10.9613 13.3624 8.43748C13.3624 5.91368 11.3099 3.86119 8.78614 3.86119C6.26234 3.86119 4.20984 5.91368 4.20984 8.43748Z" stroke="#B3B3B3"/>
</svg>
