<svg width="41" height="40" viewBox="0 0 41 40" fill="none" xmlns="http://www.w3.org/2000/svg">
<g clip-path="url(#clip0_2647_12455)">
<path d="M39.6812 28.6075H38.7358C38.4746 28.6075 38.2631 28.8189 38.2631 29.0802V36.7244L24.6125 23.0737C24.522 22.9832 24.4039 22.9371 24.2853 22.9354C24.162 22.9335 24.0381 22.9797 23.944 23.0737L23.2757 23.7421C23.1866 23.8311 23.1405 23.9468 23.1374 24.0636C23.134 24.1887 23.1801 24.315 23.2757 24.4105L36.9264 38.0612H29.2821C29.0209 38.0612 28.8094 38.2726 28.8094 38.5339V39.4793C28.8094 39.7405 29.0209 39.952 29.2821 39.952H39.6812C39.9425 39.952 40.1539 39.7405 40.1539 39.4793V29.0802C40.1539 28.8189 39.9425 28.6075 39.6812 28.6075Z" fill="#23292F"/>
</g>
<g clip-path="url(#clip1_2647_12455)">
<path d="M39.6812 11.3833H38.7358C38.4746 11.3833 38.2631 11.1719 38.2631 10.9106V3.26637L24.6125 16.9171C24.522 17.0076 24.4039 17.0537 24.2853 17.0554C24.162 17.0573 24.0381 17.0111 23.944 16.9171L23.2757 16.2487C23.1866 16.1597 23.1405 16.044 23.1374 15.9272C23.134 15.8021 23.1801 15.6758 23.2757 15.5803L36.9264 1.92959H29.2821C29.0209 1.92959 28.8094 1.71817 28.8094 1.45689V0.511532C28.8094 0.250254 29.0209 0.0388317 29.2821 0.0388317H39.6812C39.9425 0.0388317 40.1539 0.250254 40.1539 0.511532V10.9106C40.1539 11.1719 39.9425 11.3833 39.6812 11.3833Z" fill="#23292F"/>
</g>
<g clip-path="url(#clip2_2647_12455)">
<path d="M0.920847 28.6075H1.86621C2.12748 28.6075 2.33891 28.8189 2.33891 29.0802V36.7244L15.9895 23.0737C16.0801 22.9832 16.1981 22.9371 16.3167 22.9354C16.44 22.9335 16.5639 22.9797 16.6581 23.0737L17.3264 23.7421C17.4154 23.8311 17.4616 23.9468 17.4647 24.0636C17.468 24.1887 17.4219 24.315 17.3264 24.4105L3.67569 38.0612H11.3199C11.5812 38.0612 11.7926 38.2726 11.7926 38.5339V39.4793C11.7926 39.7405 11.5812 39.952 11.3199 39.952H0.920803C0.659525 39.952 0.448103 39.7405 0.448103 39.4793V29.0802C0.448147 28.8189 0.659571 28.6075 0.920847 28.6075Z" fill="#23292F"/>
</g>
<g clip-path="url(#clip3_2647_12455)">
<path d="M0.920847 11.3833H1.86621C2.12748 11.3833 2.33891 11.1719 2.33891 10.9106V3.26637L15.9895 16.9171C16.0801 17.0076 16.1981 17.0537 16.3167 17.0554C16.44 17.0573 16.5639 17.0111 16.6581 16.9171L17.3264 16.2487C17.4154 16.1597 17.4616 16.044 17.4647 15.9272C17.468 15.8021 17.4219 15.6758 17.3264 15.5803L3.67569 1.92959H11.3199C11.5812 1.92959 11.7926 1.71817 11.7926 1.45689V0.511532C11.7926 0.250254 11.5812 0.0388317 11.3199 0.0388317H0.920803C0.659525 0.0388317 0.448103 0.250254 0.448103 0.511532V10.9106C0.448147 11.1719 0.659571 11.3833 0.920847 11.3833Z" fill="#23292F"/>
</g>
<defs>
<clipPath id="clip0_2647_12455">
<rect width="17.0167" height="17.0167" fill="white" transform="translate(23.1372 22.9345)"/>
</clipPath>
<clipPath id="clip1_2647_12455">
<rect width="17.0167" height="17.0167" fill="white" transform="matrix(1 0 0 -1 23.1372 17.0563)"/>
</clipPath>
<clipPath id="clip2_2647_12455">
<rect width="17.0167" height="17.0167" fill="white" transform="matrix(-1 0 0 1 17.4648 22.9345)"/>
</clipPath>
<clipPath id="clip3_2647_12455">
<rect width="17.0167" height="17.0167" fill="white" transform="translate(17.4648 17.0563) rotate(-180)"/>
</clipPath>
</defs>
</svg>
