<svg width="93" height="13" viewBox="0 0 93 13" fill="none" xmlns="http://www.w3.org/2000/svg">
<path d="M12.7553 5.1314C12.674 4.87992 12.4509 4.70131 12.187 4.67753L8.60243 4.35204L7.18498 1.03436C7.08046 0.791216 6.84244 0.633827 6.57797 0.633827C6.31351 0.633827 6.07549 0.791216 5.97097 1.03493L4.55352 4.35204L0.968345 4.67753C0.704924 4.70188 0.482438 4.87992 0.400664 5.1314C0.31889 5.38289 0.39441 5.65872 0.593681 5.8326L3.30322 8.20888L2.50424 11.7284C2.44578 11.9872 2.54622 12.2547 2.76093 12.4099C2.87634 12.4933 3.01137 12.5357 3.14754 12.5357C3.26494 12.5357 3.38139 12.5041 3.48591 12.4415L6.57797 10.5935L9.6689 12.4415C9.89509 12.5776 10.1802 12.5652 10.3944 12.4099C10.6093 12.2542 10.7096 11.9866 10.6511 11.7284L9.85216 8.20888L12.5617 5.83307C12.761 5.65872 12.8371 5.38336 12.7553 5.1314Z" fill="#FFC107"/>
<path d="M32.6127 5.1311C32.5314 4.87961 32.3084 4.701 32.0445 4.67722L28.4599 4.35173L27.0424 1.03405C26.9379 0.790907 26.6999 0.633518 26.4354 0.633518C26.1709 0.633518 25.9329 0.790907 25.8284 1.03462L24.4109 4.35173L20.8258 4.67722C20.5623 4.70157 20.3399 4.87961 20.2581 5.1311C20.1763 5.38258 20.2518 5.65841 20.4511 5.83229L23.1606 8.20857L22.3617 11.7281C22.3032 11.9869 22.4036 12.2544 22.6184 12.4096C22.7338 12.4929 22.8688 12.5354 23.005 12.5354C23.1224 12.5354 23.2388 12.5037 23.3433 12.4412L26.4354 10.5932L29.5263 12.4412C29.7525 12.5773 30.0376 12.5649 30.2519 12.4096C30.4667 12.2539 30.567 11.9863 30.5086 11.7281L29.7096 8.20857L32.4191 5.83276C32.6184 5.65841 32.6945 5.38305 32.6127 5.1311Z" fill="#FFC107"/>
<path d="M52.4721 5.1311C52.3908 4.87961 52.1677 4.701 51.9038 4.67722L48.3192 4.35173L46.9018 1.03405C46.7973 0.790907 46.5592 0.633518 46.2948 0.633518C46.0303 0.633518 45.7923 0.790907 45.6878 1.03462L44.2703 4.35173L40.6851 4.67722C40.4217 4.70157 40.1992 4.87961 40.1175 5.1311C40.0357 5.38258 40.1112 5.65841 40.3105 5.83229L43.02 8.20857L42.221 11.7281C42.1626 11.9869 42.263 12.2544 42.4777 12.4096C42.5931 12.4929 42.7282 12.5354 42.8643 12.5354C42.9817 12.5354 43.0982 12.5037 43.2027 12.4412L46.2948 10.5932L49.3857 12.4412C49.6119 12.5773 49.897 12.5649 50.1112 12.4096C50.3261 12.2539 50.4264 11.9863 50.3679 11.7281L49.569 8.20857L52.2785 5.83276C52.4778 5.65841 52.5539 5.38305 52.4721 5.1311Z" fill="#FFC107"/>
<path d="M72.3295 5.1311C72.2482 4.87961 72.0251 4.701 71.7613 4.67722L68.1766 4.35173L66.7592 1.03405C66.6547 0.790907 66.4167 0.633518 66.1522 0.633518C65.8877 0.633518 65.6497 0.790907 65.5452 1.03462L64.1277 4.35173L60.5426 4.67722C60.2791 4.70157 60.0567 4.87961 59.9749 5.1311C59.8931 5.38258 59.9686 5.65841 60.1679 5.83229L62.8774 8.20857L62.0785 11.7281C62.02 11.9869 62.1204 12.2544 62.3352 12.4096C62.4506 12.4929 62.5856 12.5354 62.7218 12.5354C62.8392 12.5354 62.9556 12.5037 63.0601 12.4412L66.1522 10.5932L69.2431 12.4412C69.4693 12.5773 69.7544 12.5649 69.9687 12.4096C70.1835 12.2539 70.2838 11.9863 70.2254 11.7281L69.4264 8.20857L72.1359 5.83276C72.3352 5.65841 72.4113 5.38305 72.3295 5.1311Z" fill="#FFC107"/>
<path d="M92.1874 5.1311C92.1061 4.87961 91.8831 4.701 91.6192 4.67722L88.0346 4.35173L86.6171 1.03405C86.5126 0.790907 86.2746 0.633518 86.0101 0.633518C85.7456 0.633518 85.5076 0.790907 85.4031 1.03462L83.9856 4.35173L80.4005 4.67722C80.1371 4.70157 79.9146 4.87961 79.8328 5.1311C79.751 5.38258 79.8265 5.65841 80.0258 5.83229L82.7353 8.20857L81.9364 11.7281C81.8779 11.9869 81.9783 12.2544 82.1931 12.4096C82.3085 12.4929 82.4435 12.5354 82.5797 12.5354C82.6971 12.5354 82.8135 12.5037 82.918 12.4412L86.0101 10.5932L89.101 12.4412C89.3272 12.5773 89.6123 12.5649 89.8266 12.4096C90.0414 12.2539 90.1417 11.9863 90.0833 11.7281L89.2843 8.20857L91.9938 5.83276C92.1931 5.65841 92.2692 5.38305 92.1874 5.1311Z" fill="#FFC107"/>
</svg>
