<svg width="37" height="40" viewBox="0 0 37 40" fill="none" xmlns="http://www.w3.org/2000/svg">
<path d="M32.0634 10.8999L33.2365 9.72693C33.5629 9.8782 33.9622 9.82164 34.2318 9.55195L34.4406 9.34337C34.7856 8.99763 34.7856 8.43672 34.4406 8.0914L32.9375 6.58839C32.5915 6.24239 32.031 6.24239 31.6853 6.58839L31.4771 6.79697C31.1315 7.14263 31.1315 7.7032 31.4771 8.04894L31.5236 8.09469L30.4375 9.18173C27.6586 6.61472 24.0489 4.92137 20.0276 4.55672V3.47356H20.1848C20.9983 3.47356 21.6564 2.81474 21.6564 2.00229V1.51136C21.6564 0.698318 20.9971 0.039917 20.1848 0.039917H16.6521C15.839 0.039917 15.1806 0.69874 15.1806 1.51127V2.0022C15.1806 2.81508 15.8394 3.47348 16.6521 3.47348H16.8087V4.55114C8.14139 5.32628 1.19788 12.3771 0.708976 21.237C0.169679 31.0026 7.67545 39.3848 17.4411 39.9244C17.7736 39.9429 18.1032 39.9516 18.4323 39.9516C27.8369 39.9516 35.6096 32.5905 36.1279 23.1918C36.3842 18.5499 34.8206 14.223 32.0634 10.8999ZM33.7672 23.0606C33.302 31.4911 26.0988 38.0287 17.5716 37.5624C9.10856 37.095 2.60374 29.8302 3.07036 21.3664C3.51984 13.2223 10.2551 6.84221 18.4049 6.84221C18.6911 6.84221 18.9764 6.85031 19.2661 6.86593C27.7287 7.33314 34.2341 14.5986 33.7672 23.0606ZM21.2355 22.2135C21.2355 23.7692 19.9747 25.0301 18.4187 25.0301C16.863 25.0301 15.6022 23.7692 15.6022 22.2135C15.6022 20.9387 16.4506 19.8613 17.6142 19.5151V11.0372C17.6142 10.593 17.9746 10.232 18.4187 10.232C18.863 10.232 19.2235 10.593 19.2235 11.0372V19.5161C20.3871 19.8623 21.2355 20.9387 21.2355 22.2135Z" fill="#23292F"/>
</svg>
