<svg width="118" height="111" viewBox="0 0 118 111" fill="none" xmlns="http://www.w3.org/2000/svg">
<g clip-path="url(#clip0_2647_12540)">
<path d="M48.1322 103.161C48.2346 101.92 48.2263 99.4831 47.074 96.7334C45.7434 93.5533 41.73 92.1839 41.73 92.1839C41.73 92.1839 40.7593 96.7768 42.6496 99.8019C43.2588 100.777 44.416 101.733 45.5007 102.49C43.7673 101.995 41.839 101.338 39.7721 100.462C40.0858 99.2897 40.5068 96.9218 39.8612 94.0525C39.1217 90.7594 35.4814 88.7588 35.4814 88.7588C35.4814 88.7588 33.7596 93.028 35.0655 96.2671C35.493 97.3243 36.4654 98.4603 37.3948 99.3806C36.2673 98.8356 35.11 98.2283 33.928 97.5415C33.2776 97.1915 32.6254 96.8096 31.9733 96.4022C32.4736 95.3524 33.3221 93.1083 33.1884 90.166C33.0398 86.8622 29.8701 84.3166 29.8701 84.3166C29.8701 84.3166 27.4747 88.1465 28.1812 91.4913C28.4289 92.6658 29.2675 94.0328 30.0567 95.1204C28.3595 93.9131 26.6806 92.5207 25.0561 90.9667C25.7148 90.0472 26.9331 88.0155 27.3096 85.1313C27.7338 81.9201 25.1106 78.927 25.1106 78.927C25.1106 78.927 22.144 82.2176 22.2513 85.5648C22.2892 86.7196 22.8456 88.149 23.4086 89.3193C21.9607 87.7965 20.574 86.1394 19.2697 84.3731C20.0771 83.5716 21.5529 81.834 22.3916 79.1753C23.3508 76.1461 21.3317 72.8145 21.3317 72.8145C21.3317 72.8145 17.9028 75.4888 17.4356 78.7385C17.282 79.8023 17.5363 81.1817 17.8566 82.3676C16.7208 80.667 15.6675 78.8754 14.7166 77.0059C15.6213 76.3822 17.3745 74.9496 18.6572 72.4908C20.1018 69.7296 18.725 66.1734 18.725 66.1734C18.725 66.1734 14.9576 68.1748 13.949 71.2327C13.6022 72.2859 13.6303 73.7546 13.7525 74.993C12.8792 73.0694 12.1214 71.0737 11.4974 69.0182C12.4549 68.5887 14.4426 67.502 16.1413 65.2973C18.0085 62.877 17.2903 59.211 17.2903 59.211C17.2903 59.211 13.31 60.5067 11.8143 63.2876C11.2629 64.3063 11.045 65.8537 10.9608 67.1176C10.411 64.9874 10.0083 62.7967 9.77883 60.56C10.7595 60.3175 12.894 59.6093 14.9362 57.7447C17.155 55.722 17.0889 52.0642 17.0889 52.0642C17.0889 52.0642 13.0261 52.6412 11.1061 55.0737C10.3929 55.9728 9.91415 57.4489 9.61702 58.6594C9.39911 56.3318 9.3776 54.0165 9.52785 51.7339C10.4755 51.6765 12.7141 51.3774 15.0682 49.8825C17.5545 48.3055 18.1191 44.7641 18.1191 44.7641C18.1191 44.7641 14.0975 44.6354 11.8276 46.6557C10.9179 47.4655 10.1552 48.9686 9.65996 50.1341C9.90926 47.6785 10.3484 45.2657 10.9575 42.9225C11.8936 43.0258 14.0942 43.1069 16.6052 42.0693C19.2747 40.9678 20.427 37.6435 20.427 37.6435C20.427 37.6435 16.5672 36.8404 14.0299 38.4082C13.0475 39.0147 12.0851 40.2719 11.4099 41.2964C12.1033 38.9582 12.9568 36.6961 13.9407 34.5348C14.8272 34.793 16.9354 35.2438 19.5355 34.666C22.3024 34.0546 23.9814 31.0418 23.9814 31.0418C23.9814 31.0418 20.3973 29.614 17.6766 30.6983C16.6185 31.1196 15.4661 32.1827 14.639 33.0595C15.7336 30.841 16.9635 28.7428 18.2924 26.7897C19.0354 27.1676 21.0445 28.0306 23.7635 27.9084C26.537 27.7855 28.6748 25.1604 28.6748 25.1604C28.6748 25.1604 25.4606 23.1779 22.6507 23.7655C21.439 24.0179 19.9813 25.0096 19.0188 25.7538C20.5459 23.6245 22.1885 21.6894 23.8955 19.9872C24.4684 20.4322 26.3041 21.6968 29.0678 22.0542C31.767 22.4049 34.2829 20.2338 34.2829 20.2338C34.2829 20.2338 31.5177 17.7759 28.7046 17.8677C27.3723 17.9104 25.6026 18.7619 24.5658 19.3307C25.5101 18.4291 26.4725 17.6005 27.4433 16.8514C28.5295 15.9523 29.6043 15.1393 30.6609 14.3943C31.1545 14.936 32.7063 16.4465 35.2883 17.2497C37.8307 18.0439 40.6306 16.3728 40.6306 16.3728C40.6306 16.3728 38.3821 13.5354 35.6531 13.1477C34.3803 12.9666 32.5627 13.4714 31.4583 13.8419C33.8421 12.2256 36.1005 10.9783 38.1113 10.0193C38.4184 10.525 39.6566 12.3633 42.1378 13.6394C44.4573 14.8368 47.4437 13.6968 47.4437 13.6968C47.4437 13.6968 45.7599 10.5782 43.1944 9.74308C41.8539 9.30795 39.7094 9.58412 38.6578 9.76365C40.4507 8.93504 42.0272 8.33592 43.2951 7.90154C43.8415 8.16789 45.6509 8.94402 47.2886 8.38504C49.7336 7.55156 50.9437 5.91482 50.9437 5.91482C50.9437 5.91482 48.4195 4.95514 46.9188 5.20755C45.0401 5.52714 43.5048 7.34088 43.1894 7.73511C42.1461 8.06134 40.8996 8.49327 39.4964 9.07023C40.4011 8.45389 42.0602 7.21467 42.7008 6.01156C43.9654 3.63883 42.9963 0.235046 42.9963 0.235046C42.9963 0.235046 40.0478 1.47351 39.2141 3.93222C38.3111 6.59834 38.7287 8.80304 38.8542 9.33985C36.8121 10.2168 34.4761 11.3889 31.9816 12.9608C32.8004 12.1445 34.0931 10.7201 34.4925 9.48411C35.3412 6.87703 33.7579 3.62817 33.7579 3.62817C33.7579 3.62817 31.0175 5.39027 30.6179 8.00885C30.1953 10.7767 30.9597 12.8814 31.204 13.4624C29.8685 14.3377 28.4949 15.3221 27.1015 16.4391C26.4825 16.9022 25.8667 17.4005 25.2542 17.9259C25.9113 16.9432 26.7252 15.5335 26.8853 14.3885C27.2716 11.6208 25.1023 8.63342 25.1023 8.63342C25.1023 8.63342 22.6607 10.8865 22.7267 13.5878C22.7927 16.2678 23.7997 18.175 24.2141 18.8504C22.4989 20.433 20.8331 22.2533 19.2681 24.2654C19.7336 23.1753 20.2438 21.7099 20.2025 20.5896C20.0952 17.7398 17.3795 15.1196 17.3795 15.1196C17.3795 15.1196 15.3307 17.8136 15.8804 20.5166C16.422 23.1884 17.7691 24.926 18.3089 25.5358C16.8776 27.4987 15.5437 29.6247 14.3451 31.8859C14.6275 30.7 14.8998 29.0846 14.6505 27.938C14.0348 25.0932 10.8403 22.9376 10.8403 22.9376C10.8403 22.9376 9.26211 26.0062 10.2956 28.6248C11.324 31.2344 13.0046 32.7457 13.6469 33.253C12.6018 35.37 11.6756 37.5886 10.9063 39.8925C10.9591 38.6918 10.9129 37.1919 10.4936 36.1674C9.36773 33.4186 5.77211 31.8146 5.77211 31.8146C5.77211 31.8146 4.73369 35.1742 6.24091 37.6247C7.69204 39.9875 9.57408 41.2095 10.3599 41.6448C9.72433 43.7937 9.22904 46.0082 8.89058 48.2687C8.71401 47.1442 8.40853 45.8722 7.87367 45.0264C6.25247 42.4627 2.35314 41.4825 2.35314 41.4825C2.35314 41.4825 1.90906 45.0427 3.85868 47.2385C5.66311 49.2719 7.67887 50.1816 8.60501 50.5168C8.38541 52.6969 8.31775 54.9139 8.42177 57.1521C8.04535 56.0679 7.51707 54.8721 6.84183 54.1312C4.75351 51.8388 0.662598 51.5389 0.662598 51.5389C0.662598 51.5389 0.849124 55.195 3.20166 57.0604C5.39568 58.8012 7.60624 59.3544 8.58358 59.5224C8.72388 61.6386 9.01282 63.722 9.43868 65.7587C8.87412 64.7605 8.14768 63.6998 7.36192 63.0909C4.85256 61.1551 0.6874 61.5755 0.6874 61.5755C0.6874 61.5755 1.52934 65.2153 4.22684 66.6758C6.70322 68.0175 8.98633 68.1994 10.0247 68.2019C10.5696 70.2492 11.2464 72.2441 12.0372 74.1742C11.2861 73.2603 10.3549 72.2982 9.44206 71.8171C6.5744 70.3131 2.46534 71.4695 2.46534 71.4695C2.46534 71.4695 3.95941 74.979 6.9294 75.9724C9.67312 76.8887 12.0091 76.6633 13.0443 76.4846C13.9523 78.4262 14.9741 80.2932 16.0835 82.0734C15.1558 81.2719 14.0282 80.4481 13.0079 80.122C9.86134 79.1139 5.93552 80.9989 5.93552 80.9989C5.93552 80.9989 8.06517 84.2617 11.2267 84.737C14.1503 85.1764 16.4616 84.5363 17.467 84.174C18.6424 85.8762 19.8954 87.4851 21.2096 88.9882C20.1959 88.4072 19.0419 87.8687 18.0514 87.7326C14.7083 87.2745 11.0995 89.8587 11.0995 89.8587C11.0995 89.8587 13.8218 92.7633 17.084 92.6854C19.9895 92.615 22.1423 91.6397 23.1427 91.0831C24.5377 92.515 25.9823 93.8296 27.4532 95.0115C26.4098 94.6524 25.279 94.3745 24.3478 94.4091C20.9075 94.5353 17.741 97.7677 17.741 97.7677C17.741 97.7677 20.9949 100.208 24.2604 99.5544C27.1148 98.9831 29.0843 97.6628 30.012 96.9194C31.0538 97.6325 32.0971 98.2799 33.1405 98.8512C33.8009 99.2422 34.453 99.6084 35.0984 99.9536C33.9478 99.7634 32.703 99.665 31.7323 99.8724C28.2985 100.605 25.6933 104.409 25.6933 104.409C25.6933 104.409 29.3996 106.29 32.5644 105.059C35.3708 103.966 37.1258 102.257 37.9082 101.357C39.8101 102.241 41.6145 102.944 43.2803 103.502C42.1064 103.516 40.8667 103.639 39.9454 104.011C36.6239 105.352 34.6857 109.634 34.6857 109.634C34.6857 109.634 38.7453 110.871 41.7053 109.076C44.317 107.495 45.7731 105.485 46.4054 104.437C51.1583 105.689 54.087 105.873 54.087 105.873L54.1728 105.026L54.2603 104.179C54.2603 104.179 51.9738 104.024 48.1322 103.161ZM114.364 66.6758C117.06 65.2153 117.902 61.5755 117.902 61.5755C117.902 61.5755 113.737 61.1551 111.227 63.0909C110.442 63.6998 109.715 64.7605 109.151 65.7587C109.578 63.722 109.865 61.6386 110.006 59.5224C110.983 59.3553 113.192 58.8012 115.386 57.0604C117.74 55.195 117.927 51.5389 117.927 51.5389C117.927 51.5389 113.836 51.8388 111.748 54.1312C111.072 54.8737 110.544 56.0679 110.168 57.1521C110.273 54.9147 110.204 52.6969 109.983 50.5168C110.91 50.1816 112.926 49.2719 114.731 47.2385C116.68 45.0427 116.236 41.4825 116.236 41.4825C116.236 41.4825 112.337 42.4627 110.716 45.0264C110.181 45.873 109.875 47.145 109.699 48.2703C109.36 46.0091 108.865 43.7937 108.231 41.6448C109.015 41.2095 110.897 39.9875 112.348 37.6247C113.857 35.1742 112.817 31.8146 112.817 31.8146C112.817 31.8146 109.222 33.4186 108.094 36.1674C107.676 37.1919 107.63 38.6918 107.683 39.8925C106.914 37.5886 105.988 35.37 104.942 33.253C105.585 32.7457 107.265 31.2344 108.294 28.6248C109.327 26.0062 107.749 22.9376 107.749 22.9376C107.749 22.9376 104.556 25.0932 103.939 27.938C103.691 29.0846 103.964 30.7016 104.244 31.8867C103.046 29.6264 101.712 27.4987 100.28 25.5358C100.82 24.926 102.167 23.1884 102.709 20.5166C103.257 17.8136 101.21 15.1196 101.21 15.1196C101.21 15.1196 98.4941 17.7398 98.3868 20.5896C98.3456 21.7099 98.8557 23.1753 99.3229 24.2654C97.7545 22.2533 96.0905 20.433 94.3752 18.8504C94.7896 18.175 95.7966 16.2678 95.8626 13.5878C95.9287 10.8865 93.4886 8.63342 93.4886 8.63342C93.4886 8.63342 91.3194 11.6208 91.7057 14.3885C91.8642 15.5335 92.6781 16.9432 93.3351 17.9259C92.7226 17.4005 92.1069 16.9022 91.4878 16.4391C90.0945 15.3221 88.7209 14.3377 87.3853 13.4624C87.6297 12.8822 88.3957 10.7767 87.973 8.00885C87.5736 5.39027 84.833 3.62817 84.833 3.62817C84.833 3.62817 83.2482 6.87703 84.0968 9.48411C84.4979 10.7201 85.7889 12.1445 86.6095 12.9625C84.1133 11.3889 81.7789 10.2168 79.7352 9.33985C79.8606 8.80304 80.2783 6.59834 79.3753 3.93222C78.5415 1.47351 75.593 0.235046 75.593 0.235046C75.593 0.235046 74.6257 3.63883 75.8886 6.01156C76.5274 7.21392 78.1883 8.45305 79.0929 9.07023C77.6897 8.49327 76.4432 8.06134 75.3999 7.73511C75.0846 7.34088 73.5493 5.52714 71.6722 5.20755C70.1699 4.95514 67.6457 5.91482 67.6457 5.91482C67.6457 5.91482 68.8557 7.55156 71.3007 8.38504C72.9401 8.94402 74.7494 8.16789 75.2942 7.90154C76.5621 8.33592 78.1404 8.93504 79.9333 9.76365C78.8816 9.58412 76.7371 9.30795 75.395 9.74308C72.8295 10.5782 71.1455 13.6968 71.1455 13.6968C71.1455 13.6968 74.132 14.8368 76.4515 13.6394C78.9328 12.3633 80.171 10.525 80.4781 10.0193C82.4888 10.9783 84.7488 12.2256 87.1311 13.8427C86.0267 13.4722 84.2107 12.9666 82.9345 13.1477C80.2073 13.5354 77.9587 16.3728 77.9587 16.3728C77.9587 16.3728 80.7587 18.0439 83.3027 17.2497C85.8847 16.4465 87.4365 14.936 87.9302 14.3943C88.985 15.1393 90.0598 15.9523 91.1478 16.8514C92.1168 17.6005 93.0792 18.4291 94.0252 19.3307C92.9885 18.7627 91.2187 17.9104 89.8832 17.8677C87.0717 17.7759 84.308 20.2338 84.308 20.2338C84.308 20.2338 86.8224 22.4049 89.5216 22.0542C92.2852 21.6968 94.1209 20.4322 94.6939 19.9863C96.4008 21.6894 98.0435 23.6253 99.5705 25.7538C98.6097 25.0104 97.152 24.0179 95.9386 23.7655C93.1288 23.1779 89.9145 25.1604 89.9145 25.1604C89.9145 25.1604 92.0524 27.7855 94.8259 27.9084C97.5449 28.0306 99.5557 27.1676 100.297 26.7897C101.626 28.7428 102.856 30.8417 103.95 33.0612C103.123 32.1827 101.971 31.1196 100.911 30.6983C98.1937 29.614 94.608 31.0418 94.608 31.0418C94.608 31.0418 96.2886 34.0546 99.0538 34.666C101.654 35.2438 103.764 34.793 104.649 34.5348C105.633 36.6961 106.488 38.959 107.179 41.2981C106.504 40.2736 105.542 39.0155 104.558 38.4082C102.022 36.8404 98.1639 37.6435 98.1639 37.6435C98.1639 37.6435 99.3147 40.9678 101.984 42.0693C104.495 43.1069 106.696 43.0258 107.632 42.9225C108.241 45.2657 108.68 47.6785 108.929 50.1341C108.434 48.9694 107.671 47.4655 106.762 46.6557C104.492 44.6354 100.47 44.7641 100.47 44.7641C100.47 44.7641 101.035 48.3055 103.521 49.8825C105.875 51.3774 108.116 51.6765 109.063 51.7339C109.212 54.0165 109.19 56.3318 108.972 58.6611C108.675 57.4489 108.196 55.9728 107.485 55.0737C105.563 52.6412 101.5 52.0642 101.5 52.0642C101.5 52.0642 101.434 55.722 103.653 57.7447C105.695 59.6093 107.83 60.3175 108.811 60.56C108.581 62.7967 108.178 64.9874 107.63 67.1176C107.546 65.8537 107.326 64.3063 106.777 63.2876C105.281 60.5067 101.301 59.211 101.301 59.211C101.301 59.211 100.581 62.877 102.448 65.2973C104.147 67.502 106.134 68.5887 107.092 69.0182C106.468 71.0737 105.71 73.0694 104.837 74.993C104.959 73.7546 104.989 72.2859 104.64 71.2327C103.632 68.1748 99.8644 66.1734 99.8644 66.1734C99.8644 66.1734 98.4876 69.7296 99.9321 72.4908C101.216 74.9496 102.968 76.3822 103.873 77.0059C102.924 78.8754 101.87 80.667 100.733 82.3676C101.053 81.1817 101.307 79.8023 101.154 78.7385C100.687 75.4888 97.2593 72.8145 97.2593 72.8145C97.2593 72.8145 95.2386 76.1461 96.1978 79.1753C97.0364 81.834 98.5123 83.5716 99.3212 84.3715C98.0154 86.1394 96.6286 87.795 95.1808 89.3186C95.7437 88.1474 96.3001 86.7196 96.3381 85.5648C96.4471 82.2176 93.4771 78.927 93.4771 78.927C93.4771 78.927 90.8571 81.9201 91.2798 85.1313C91.6578 88.0155 92.8746 90.0472 93.5333 90.9667C91.9088 92.5207 90.2315 93.9131 88.5327 95.1196C89.3218 94.0328 90.1621 92.6658 90.4081 91.4913C91.1147 88.1465 88.7193 84.3166 88.7193 84.3166C88.7193 84.3166 85.5512 86.8622 85.401 90.166C85.2672 93.1083 86.1175 95.3524 86.616 96.4022C85.9639 96.8096 85.3118 97.1915 84.6598 97.5415C83.4777 98.2283 82.3221 98.8356 81.1946 99.3806C82.124 98.4603 83.0963 97.3243 83.5239 96.2671C84.8297 93.028 83.1079 88.7588 83.1079 88.7588C83.1079 88.7588 79.4676 90.7594 78.7281 94.0525C78.0826 96.9218 78.5036 99.2897 78.8172 100.462C76.7503 101.338 74.822 101.995 73.0886 102.49C74.1733 101.733 75.3289 100.777 75.9381 99.8019C77.83 96.7768 76.8593 92.1839 76.8593 92.1839C76.8593 92.1839 72.8459 93.5533 71.5154 96.7334C70.3647 99.4831 70.3548 101.92 70.4571 103.161C66.6172 104.024 64.3307 104.179 64.3307 104.179L64.4166 105.026L64.5041 105.873C64.5041 105.873 67.431 105.689 72.1839 104.437C72.8162 105.485 74.2723 107.495 76.884 109.076C79.8441 110.871 83.9036 109.634 83.9036 109.634C83.9036 109.634 81.9655 105.352 78.6439 104.011C77.7227 103.639 76.4829 103.516 75.3091 103.502C76.9748 102.944 78.7793 102.241 80.6811 101.357C81.4636 102.257 83.2185 103.966 86.025 105.059C89.1898 106.29 92.896 104.409 92.896 104.409C92.896 104.409 90.2909 100.605 86.8571 99.8724C85.8863 99.665 84.6432 99.7634 83.4892 99.9536C84.1364 99.6084 84.7885 99.2422 85.4489 98.8512C86.4906 98.2799 87.5372 97.6325 88.5756 96.9194C89.5034 97.6611 91.4746 98.9831 94.329 99.5544C97.5944 100.208 100.848 97.7677 100.848 97.7677C100.848 97.7677 97.6836 94.5353 94.2415 94.4091C93.3104 94.3745 92.1795 94.6524 91.1362 95.0115C92.6071 93.8296 94.0516 92.515 95.4483 91.0831C96.4471 91.6397 98.5998 92.615 101.505 92.6854C104.768 92.7633 107.49 89.8587 107.49 89.8587C107.49 89.8587 103.881 87.2745 100.538 87.7326C99.5474 87.8687 98.3935 88.4072 97.3798 88.9882C98.6939 87.4851 99.9469 85.8762 101.122 84.174C102.128 84.5363 104.437 85.1764 107.363 84.737C110.526 84.2617 112.655 80.9989 112.655 80.9989C112.655 80.9989 108.73 79.1139 105.581 80.122C104.559 80.4481 103.434 81.2726 102.506 82.0734C103.615 80.2932 104.635 78.4262 105.545 76.4846C106.58 76.6633 108.916 76.8887 111.658 75.9724C114.63 74.979 116.124 71.4695 116.124 71.4695C116.124 71.4695 112.013 70.3131 109.147 71.8171C108.234 72.2982 107.303 73.2603 106.552 74.1742C107.341 72.2441 108.02 70.2492 108.565 68.2019C109.603 68.1994 111.886 68.0175 114.364 66.6758Z" fill="#E1E3E4"/>
</g>
<defs>
<clipPath id="clip0_2647_12540">
<rect width="117.264" height="110" fill="white" transform="translate(0.662598 0.235046)"/>
</clipPath>
</defs>
</svg>
