<svg width="20" height="21" viewBox="0 0 20 21" fill="none" xmlns="http://www.w3.org/2000/svg">
<g clip-path="url(#clip0_2723_22047)">
<path d="M10.0453 20.14C15.4331 20.14 19.8007 15.8073 19.8007 10.4626C19.8007 5.11789 15.4331 0.785156 10.0453 0.785156C4.65747 0.785156 0.289795 5.11789 0.289795 10.4626C0.289795 15.8073 4.65747 20.14 10.0453 20.14Z" fill="#333333"/>
<path d="M14.2217 13.3905C14.0453 13.8849 13.3449 14.2948 12.7862 14.4145C12.404 14.4953 11.9048 14.5597 10.2243 13.8685C8.07479 12.9851 6.69051 10.8183 6.58262 10.6777C6.4793 10.5371 5.71402 9.53034 5.71402 8.48911C5.71402 7.44789 6.24706 6.94088 6.46193 6.7232C6.63839 6.54452 6.93006 6.46289 7.20984 6.46289C7.30036 6.46289 7.38174 6.46743 7.45488 6.47106C7.66976 6.48013 7.77763 6.49282 7.91936 6.82932C8.09583 7.25107 8.52553 8.29232 8.57675 8.39932C8.62885 8.50637 8.68095 8.65149 8.60781 8.79207C8.53926 8.93719 8.4789 9.00157 8.37102 9.12492C8.26315 9.24828 8.16074 9.3426 8.05282 9.47505C7.95409 9.59023 7.84255 9.71358 7.96691 9.92671C8.09123 10.1353 8.52098 10.831 9.15365 11.3897C9.97015 12.1108 10.6321 12.3412 10.8689 12.4391C11.0454 12.5117 11.2557 12.4944 11.3846 12.3584C11.5483 12.1833 11.7503 11.8931 11.9561 11.6074C12.1023 11.4024 12.287 11.377 12.4809 11.4495C12.6784 11.5176 13.7234 12.03 13.9383 12.1362C14.1531 12.2432 14.2949 12.294 14.347 12.3838C14.3982 12.4736 14.3982 12.8953 14.2217 13.3905Z" fill="white"/>
</g>
<defs>
<clipPath id="clip0_2723_22047">
<rect width="20" height="20" fill="white" transform="translate(0 0.453125)"/>
</clipPath>
</defs>
</svg>
