<svg width="21" height="21" viewBox="0 0 21 21" fill="none" xmlns="http://www.w3.org/2000/svg">
<g clip-path="url(#clip0_2723_22035)">
<rect width="20" height="20" transform="translate(0.5 0.453125)" fill="#FAFAFC"/>
<path d="M10.4618 20.1575C15.6168 20.1575 19.7958 15.8526 19.7958 10.5421C19.7958 5.23171 15.6168 0.926758 10.4618 0.926758C5.30682 0.926758 1.12787 5.23171 1.12787 10.5421C1.12787 15.8526 5.30682 20.1575 10.4618 20.1575Z" fill="url(#paint0_linear_2723_22035)"/>
<path d="M6.96184 9.9612L13.8073 7.24226C14.125 7.12402 14.4025 7.32211 14.2996 7.81702L14.3002 7.81641L13.1346 13.4731C13.0482 13.8742 12.8169 13.9717 12.4932 13.7828L10.7183 12.4352L9.86212 13.2849C9.76746 13.3823 9.68762 13.4647 9.50416 13.4647L9.63021 11.6038L12.9198 8.54229C13.063 8.41251 12.8879 8.33937 12.6991 8.46857L8.63386 11.1053L6.88137 10.5421C6.50093 10.4178 6.49265 10.1502 6.96184 9.9612Z" fill="white"/>
</g>
<defs>
<linearGradient id="paint0_linear_2723_22035" x1="19.7958" y1="0.926759" x2="0.469294" y2="19.4712" gradientUnits="userSpaceOnUse">
<stop stop-color="#89CBF5"/>
<stop offset="1" stop-color="#2597D5"/>
</linearGradient>
<clipPath id="clip0_2723_22035">
<rect width="20" height="20" fill="white" transform="translate(0.5 0.453125)"/>
</clipPath>
</defs>
</svg>
