<svg width="21" height="21" viewBox="0 0 21 21" fill="none" xmlns="http://www.w3.org/2000/svg">
<g clip-path="url(#clip0_2723_22041)">
<rect width="20" height="20" transform="translate(0.5 0.453125)" fill="#FAFAFC"/>
<path d="M10.6308 0.926758H10.626C5.2815 0.926758 0.935425 5.23926 0.935425 10.5421C0.935425 12.6455 1.61878 14.5951 2.78072 16.178L1.57274 19.7501L5.29846 18.5686C6.83116 19.5758 8.65949 20.1575 10.6308 20.1575C15.9753 20.1575 20.3213 15.8438 20.3213 10.5421C20.3213 5.24046 15.9753 0.926758 10.6308 0.926758Z" fill="url(#paint0_linear_2723_22041)"/>
<path d="M14.6765 13.3808C14.5 13.8751 13.7996 14.2851 13.241 14.4048C12.8588 14.4855 12.3596 14.5499 10.6791 13.8588C8.52952 12.9753 7.14525 10.8085 7.03736 10.6679C6.93405 10.5273 6.16876 9.52062 6.16876 8.47936C6.16876 7.43812 6.70181 6.93111 6.91667 6.71343C7.09313 6.53475 7.3848 6.45312 7.66458 6.45312C7.7551 6.45312 7.83647 6.45766 7.90962 6.46129C8.12448 6.47035 8.23237 6.48305 8.3741 6.81955C8.55056 7.24131 8.98026 8.28254 9.03151 8.38956C9.08358 8.49659 9.13571 8.64171 9.06257 8.7823C8.99401 8.92742 8.93364 8.9918 8.82579 9.11515C8.71788 9.2385 8.61548 9.33283 8.50758 9.46524C8.40884 9.58046 8.29729 9.70382 8.42164 9.91697C8.54599 10.1255 8.97573 10.8212 9.60839 11.38C10.4249 12.101 11.0869 12.3314 11.3236 12.4293C11.5001 12.5019 11.7104 12.4847 11.8393 12.3486C12.003 12.1736 12.205 11.8833 12.4108 11.5976C12.5571 11.3927 12.7418 11.3672 12.9356 11.4398C13.1331 11.5078 14.1782 12.0203 14.3931 12.1264C14.6079 12.2334 14.7496 12.2842 14.8017 12.374C14.8529 12.4638 14.8529 12.8855 14.6765 13.3808Z" fill="#FAFAFA"/>
</g>
<defs>
<linearGradient id="paint0_linear_2723_22041" x1="0.935425" y1="20.1575" x2="20.5488" y2="1.16162" gradientUnits="userSpaceOnUse">
<stop stop-color="#27B064"/>
<stop offset="1" stop-color="#32CB75"/>
</linearGradient>
<clipPath id="clip0_2723_22041">
<rect width="20" height="20" fill="white" transform="translate(0.5 0.453125)"/>
</clipPath>
</defs>
</svg>
