<svg width="512" height="56" viewBox="0 0 512 56" fill="none" xmlns="http://www.w3.org/2000/svg">
<g clip-path="url(#clip0_799_19116)">
<path d="M493.231 -0.242676H4.49902V38.8814H493.231V-0.242676Z" fill="#F7F7F7"/>
<path d="M492.85 1.28369H481.394C478.646 1.28369 476.434 3.49768 476.434 6.24749C476.434 8.99729 478.646 11.2113 481.394 11.2113H492.85V1.28369Z" fill="#B47D6C"/>
<path d="M492.85 27.2651H481.394C478.646 27.2651 476.434 29.4791 476.434 32.2289C476.434 34.9787 478.646 37.1927 481.394 37.1927H492.85V27.2651Z" fill="#B47D6C"/>
<path d="M492.85 14.2744H481.394C478.646 14.2744 476.434 16.4884 476.434 19.2382C476.434 21.988 478.646 24.202 481.394 24.202H492.85V14.2744Z" fill="#B47D6C"/>
<path d="M4.88574 1.28369H13.2813C16.0293 1.28369 18.2419 3.49768 18.2419 6.24749C18.2419 8.99729 16.0293 11.2113 13.2813 11.2113H4.88574V1.28369Z" fill="#B47D6C"/>
<path d="M4.88574 27.2651H13.2813C16.0293 27.2651 18.2419 29.4791 18.2419 32.2289C18.2419 34.9787 16.0293 37.1927 13.2813 37.1927H4.88574V27.2651Z" fill="#B47D6C"/>
<path d="M4.88574 14.2744H13.2813C16.0293 14.2744 18.2419 16.4884 18.2419 19.2382C18.2419 21.988 16.0293 24.202 13.2813 24.202H4.88574V14.2744Z" fill="#B47D6C"/>
<path d="M125.303 27.9529L131.567 28.8728L125.303 29.4491V30.5611L134.395 29.6108V28.4685L127.94 27.5485L134.395 26.6285V25.4659L125.303 24.5156V25.6277L131.567 26.2039L125.303 27.1239C125.303 27.3362 125.303 27.6496 125.303 27.9529Z" fill="#F7991F"/>
<path d="M128.354 21.2606V20.189H127.172C125.909 20.189 125.303 20.7955 125.303 22.0592C125.303 23.3229 125.909 23.9295 127.172 23.9295H132.516C133.779 23.9295 134.385 23.3229 134.385 22.0592C134.385 20.7955 133.779 20.189 132.516 20.189H130.001V21.9076H131.072V21.2201H132.557C133.092 21.2201 133.355 21.483 133.355 22.0188C133.355 22.5546 133.092 22.8175 132.557 22.8175H127.212C126.677 22.8175 126.414 22.5546 126.414 22.0188C126.414 21.483 126.677 21.2201 127.212 21.2201L128.354 21.2606Z" fill="#F7991F"/>
<path d="M131.639 34.8275H132.518C133.78 34.8275 134.387 34.2209 134.387 32.9572C134.387 31.6935 133.78 31.0869 132.518 31.0869H131.831C130.881 31.0869 130.154 31.6227 129.618 32.391C129.234 32.8864 128.507 33.8064 127.82 33.8064H127.133C126.597 33.8064 126.335 33.5435 126.335 33.0077C126.335 32.4719 126.597 32.2091 127.133 32.2091H128.012V31.1273H127.133C125.87 31.1273 125.264 31.7339 125.264 32.9976C125.264 34.2613 125.87 34.8679 127.133 34.8679H127.82C128.769 34.8679 129.497 34.3321 130.032 33.5638C130.416 33.0684 131.144 32.1484 131.831 32.1484H132.518C133.053 32.1484 133.316 32.4113 133.316 32.9471C133.316 33.4829 133.053 33.7457 132.518 33.7457H131.639V34.8275Z" fill="#F7991F"/>
<path d="M127.861 17.6313C127.861 18.895 128.468 19.5015 129.73 19.5015H134.388V18.4299H129.73C129.195 18.4299 128.932 18.1671 128.932 17.6313V16.6001H127.861V17.6313Z" fill="#F7991F"/>
<path d="M127.861 14.3454C127.861 15.6091 128.468 16.2156 129.73 16.2156H132.519C133.782 16.2156 134.388 15.6091 134.388 14.3454C134.388 13.0817 133.782 12.4751 132.519 12.4751H129.73C128.478 12.4751 127.861 13.0918 127.861 14.3454ZM133.327 14.3454C133.327 14.8812 133.064 15.144 132.529 15.144H129.74C129.205 15.144 128.942 14.8812 128.942 14.3454C128.942 13.8096 129.205 13.5467 129.74 13.5467H132.529C133.054 13.5063 133.327 13.8096 133.327 14.3454Z" fill="#F7991F"/>
<path d="M127.861 11.869H132.519C133.782 11.869 134.388 11.2624 134.388 9.99869C134.388 8.73499 133.782 8.12842 132.519 8.12842H127.861V9.20004H132.519C133.054 9.20004 133.317 9.46288 133.317 9.99869C133.317 10.5345 133.054 10.7973 132.519 10.7973H127.861V11.869Z" fill="#F7991F"/>
<path d="M134.396 5.64127C134.396 4.37757 133.789 3.771 132.527 3.771H129.738C128.475 3.771 127.869 4.37757 127.869 5.64127V6.43993V7.20825V7.51154H136.618V6.43993H134.406L134.396 5.64127ZM133.325 6.48035H128.93V5.68171C128.93 5.1459 129.193 4.88305 129.728 4.88305H132.517C133.052 4.88305 133.315 5.1459 133.315 5.68171V6.48035H133.325Z" fill="#F7991F"/>
<path opacity="0.13" d="M25.8369 27.6091L37.1011 38.9217H67.3475H76.0558H106.292L78.3086 10.8677L68.3376 23.2114L56.3157 11.1811L51.6889 23.2114L39.3539 10.8677L25.8369 27.6091Z" fill="#23292F"/>
<path opacity="0.13" d="M103.887 27.6091L115.151 38.9217H145.387L117.363 10.8677L103.887 27.6091Z" fill="#23292F"/>
<path opacity="0.13" d="M142.6 27.6091L153.864 38.9217H184.11L156.076 10.8677L142.6 27.6091Z" fill="#23292F"/>
<path opacity="0.13" d="M181.546 27.6091L192.81 38.9217H223.057H231.916H262.153L234.129 10.8677L223.622 23.8989L210.954 11.1811L206.6 22.4532L195.022 10.8677L181.546 27.6091Z" fill="#23292F"/>
<path opacity="0.13" d="M259.748 27.6091L271.012 38.9217H301.249H309.957H340.193L312.169 10.8677L302.127 23.3328L289.984 11.1811L285.408 23.0598L273.225 10.8677L259.748 27.6091Z" fill="#23292F"/>
<path opacity="0.13" d="M337.786 27.6091L349.05 38.9217H379.287L351.263 10.8677L337.786 27.6091Z" fill="#23292F"/>
<path opacity="0.13" d="M376.51 27.6091L387.764 38.9217H418.01L389.986 10.8677L376.51 27.6091Z" fill="#23292F"/>
<path opacity="0.13" d="M440.608 22.5644L428.93 10.8677L415.453 27.6091L426.717 38.9217H456.954H465.662H492.726V35.7473L467.874 10.8677L457.529 23.7068L445.003 11.1811L440.608 22.5644Z" fill="#23292F"/>
<path d="M5.26735 -0.242676H4.49902V38.8814H5.26735V-0.242676Z" fill="#23292F"/>
<path d="M493.233 -0.242676H492.465V38.8814H493.233V-0.242676Z" fill="#23292F"/>
<path d="M9.11741 21.4927C9.077 21.2602 9.03659 20.9974 8.96586 20.8053C8.88504 20.5728 8.77391 20.4211 8.66278 20.2291C8.55164 20.0774 8.35968 19.9258 8.20814 19.7741C8.01618 19.6629 7.86464 19.5416 7.63227 19.4708C7.44031 19.39 7.17764 19.3192 6.98568 19.3192C6.79372 19.2787 6.64218 19.3192 6.53105 19.3192C6.41991 19.3192 6.33909 19.3192 6.33909 19.3192C6.29867 19.3192 6.29867 19.3192 6.57145 18.8643C6.83413 18.4093 8.17783 16.3065 8.44051 15.8112C8.70319 15.3158 8.70319 15.2754 8.70319 15.2046C8.70319 15.1338 8.70319 15.0125 8.62237 14.9013C8.58195 14.7901 8.47082 14.7092 8.38999 14.6385C8.30917 14.598 4.87415 19.1473 4.87415 19.1473C4.87415 19.1473 1.47955 14.598 1.35831 14.6385C1.27749 14.6789 1.16636 14.7901 1.12594 14.9013C1.08553 15.0125 1.04512 15.1338 1.04512 15.2046C1.04512 15.2855 1.04512 15.3158 1.3078 15.8112C1.57047 16.3065 2.91417 18.3689 3.17685 18.8643C3.43953 19.3192 3.43953 19.3192 3.40922 19.3192C3.36881 19.3192 3.29809 19.3192 3.21726 19.3192C3.10613 19.3192 2.95459 19.3192 2.76263 19.3192C2.57067 19.3596 2.3383 19.4001 2.11604 19.4708C1.92408 19.5517 1.73212 19.6629 1.54016 19.7741C1.34821 19.8853 1.19666 20.037 1.08553 20.2291C0.974397 20.3807 0.853161 20.5728 0.78244 20.8053C0.701616 21.0378 0.630895 21.2602 0.630895 21.4927C0.590483 21.7253 0.590483 21.9477 0.630895 22.1398C0.671307 22.3723 0.74203 22.5947 0.822854 22.7868C0.903678 22.9789 1.05522 23.1709 1.20677 23.363C1.39872 23.5551 1.63109 23.7472 1.81295 23.8988C2.0049 24.0505 2.15645 24.1314 2.26758 24.1617C2.41913 24.2021 2.53026 24.2021 2.65149 24.1617C2.77273 24.1212 2.80304 24.0808 3.10613 23.5854C3.40922 23.0901 3.98509 22.0993 4.28818 21.5938C4.59127 21.0985 4.82364 20.6436 4.82364 20.6436C4.82364 20.6436 5.08631 21.0985 5.35909 21.5938C5.62177 22.0892 6.23806 23.0799 6.54115 23.5854C6.84424 24.0808 6.92506 24.1212 6.99578 24.1617C7.0766 24.2021 7.22815 24.2021 7.37969 24.1617C7.53124 24.1212 7.64237 24.0505 7.83433 23.8988C8.02629 23.7472 8.25865 23.5551 8.44051 23.363C8.63246 23.1709 8.7436 22.9789 8.82443 22.7868C8.90525 22.5947 8.97597 22.3622 9.01638 22.1398C9.15782 21.9174 9.15782 21.7253 9.11741 21.4927ZM3.77293 20.6941C3.51025 21.2299 2.89397 22.3015 2.59088 22.7969C2.24738 23.2923 2.20696 23.2518 2.13624 23.1002C2.05542 22.9485 1.90387 22.6756 1.83315 22.4127C1.75233 22.1499 1.75233 21.8365 1.83315 21.5332C1.91398 21.2704 2.06552 20.9974 2.17665 20.8053C2.3282 20.6132 2.47974 20.502 2.63129 20.3807C2.82324 20.2695 3.0152 20.1886 3.20716 20.1482C3.39912 20.1077 3.59107 20.0673 3.70221 20.0673C3.88406 20.1179 4.03561 20.1583 3.77293 20.6941ZM7.97577 22.4127C7.89495 22.6756 7.78382 22.9485 7.67268 23.1002C7.59186 23.2518 7.56155 23.2923 7.21805 22.7969C6.87455 22.3015 6.26836 21.2299 6.036 20.6941C5.77332 20.1583 5.88445 20.1179 6.036 20.1179C6.18754 20.1179 6.33909 20.1178 6.53105 20.1987C6.723 20.2392 6.91496 20.3099 7.10692 20.4312C7.29887 20.5424 7.45042 20.6638 7.56155 20.8558C7.7131 21.0479 7.82423 21.3108 7.90505 21.5837C8.00608 21.8365 8.00608 22.1094 7.97577 22.4127Z" fill="#23292F"/>
<path d="M497.083 21.4927C497.043 21.2602 497.002 20.9974 496.932 20.8053C496.851 20.5728 496.74 20.4211 496.629 20.2291C496.517 20.0774 496.326 19.9258 496.174 19.7741C495.982 19.6629 495.83 19.5416 495.598 19.4708C495.406 19.39 495.143 19.3192 494.951 19.3192C494.76 19.2787 494.608 19.3192 494.497 19.3192C494.386 19.3192 494.305 19.3192 494.305 19.3192C494.264 19.3192 494.264 19.3192 494.537 18.8643C494.8 18.4093 496.144 16.3065 496.406 15.8112C496.669 15.3158 496.669 15.2754 496.669 15.2046C496.669 15.1338 496.669 15.0125 496.588 14.9013C496.548 14.7901 496.437 14.7092 496.356 14.6385C496.275 14.598 492.84 19.1473 492.84 19.1473C492.84 19.1473 489.445 14.598 489.324 14.6385C489.243 14.6789 489.132 14.7901 489.092 14.9013C489.051 15.0125 489.011 15.1338 489.011 15.2046C489.011 15.2855 489.011 15.3158 489.274 15.8112C489.536 16.3065 490.88 18.3689 491.143 18.8643C491.405 19.3192 491.405 19.3192 491.375 19.3192C491.335 19.3192 491.264 19.3192 491.183 19.3192C491.072 19.3192 490.92 19.3192 490.728 19.3192C490.536 19.3596 490.304 19.4001 490.082 19.4708C489.89 19.5517 489.698 19.6629 489.506 19.7741C489.314 19.8853 489.162 20.037 489.051 20.2291C488.94 20.3807 488.819 20.5728 488.748 20.8053C488.667 21.0378 488.597 21.2602 488.597 21.4927C488.556 21.7253 488.556 21.9477 488.597 22.1398C488.637 22.3723 488.708 22.5947 488.789 22.7868C488.869 22.9789 489.021 23.1709 489.173 23.363C489.365 23.5551 489.597 23.7472 489.779 23.8988C489.971 24.0505 490.122 24.1314 490.233 24.1617C490.385 24.2021 490.496 24.2021 490.617 24.1617C490.728 24.1212 490.769 24.0808 491.072 23.5854C491.375 23.0901 491.951 22.0993 492.254 21.5938C492.557 21.0985 492.789 20.6436 492.789 20.6436C492.789 20.6436 493.052 21.0985 493.325 21.5938C493.588 22.0892 494.204 23.0799 494.507 23.5854C494.81 24.0808 494.891 24.1212 494.962 24.1617C495.032 24.2021 495.194 24.2021 495.345 24.1617C495.497 24.1212 495.608 24.0505 495.8 23.8988C495.992 23.7472 496.224 23.5551 496.406 23.363C496.598 23.1709 496.709 22.9789 496.79 22.7868C496.871 22.5947 496.942 22.3622 496.982 22.1398C497.124 21.9174 497.124 21.7253 497.083 21.4927ZM491.739 20.6941C491.476 21.2299 490.86 22.3015 490.557 22.7969C490.213 23.2923 490.173 23.2518 490.102 23.1002C490.021 22.9485 489.87 22.6756 489.799 22.4127C489.718 22.1499 489.718 21.8365 489.799 21.5332C489.88 21.2704 490.031 20.9974 490.142 20.8053C490.294 20.6132 490.446 20.502 490.597 20.3807C490.789 20.2695 490.981 20.1886 491.173 20.1482C491.365 20.1077 491.557 20.0673 491.668 20.0673C491.85 20.1179 492.012 20.1583 491.739 20.6941ZM495.942 22.4127C495.861 22.6756 495.75 22.9485 495.639 23.1002C495.558 23.2518 495.527 23.2923 495.184 22.7969C494.84 22.3015 494.234 21.2299 494.002 20.6941C493.739 20.1583 493.85 20.1179 494.002 20.1179C494.153 20.1179 494.305 20.1178 494.497 20.1987C494.689 20.2392 494.881 20.3099 495.073 20.4312C495.265 20.5424 495.416 20.6638 495.527 20.8558C495.679 21.0479 495.79 21.3108 495.871 21.5837C495.982 21.8365 495.982 22.1094 495.942 22.4127Z" fill="#23292F"/>
<path d="M5.26735 38.7295H4.49902V46.3723H5.26735V38.7295Z" fill="#23292F"/>
<path d="M493.233 38.7295H492.465V46.3723H493.233V38.7295Z" fill="#23292F"/>
<path d="M500.869 38.1133H493.231V38.8816H500.869V38.1133Z" fill="#23292F"/>
<path d="M500.869 -0.242676H493.231V0.525661H500.869V-0.242676Z" fill="#23292F"/>
<path d="M486.543 42.7334H12.7021V43.1176H486.543V42.7334Z" fill="#23292F"/>
<path d="M5.25684 42.9253L12.8947 41.0146V44.8361L5.25684 42.9253Z" fill="#23292F"/>
<path d="M492.462 42.9253L484.824 41.0146V44.8361L492.462 42.9253Z" fill="#23292F"/>
<path d="M498.948 0.515625L497.038 8.15847H500.857L498.948 0.515625Z" fill="#23292F"/>
<path d="M498.948 38.1131L497.038 30.4702H500.857L498.948 38.1131Z" fill="#23292F"/>
<path d="M499.149 7.77441H498.765V31.0871H499.149V7.77441Z" fill="#23292F"/>
<path d="M509.216 25.6733C509.659 25.6733 510.031 25.7759 510.334 25.981C510.637 26.186 510.866 26.466 511.022 26.8208C511.175 27.1724 511.252 27.5695 511.252 28.0122C511.252 28.4549 511.175 28.8537 511.022 29.2085C510.866 29.5633 510.637 29.8433 510.334 30.0483C510.031 30.2534 509.659 30.356 509.216 30.356C508.923 30.356 508.658 30.299 508.42 30.1851C508.179 30.0711 507.972 29.91 507.8 29.7017C507.624 29.4901 507.489 29.2427 507.395 28.9595C507.3 28.673 507.253 28.3605 507.253 28.022C507.253 27.5728 507.336 27.1707 507.502 26.8159C507.668 26.4611 507.897 26.1828 508.19 25.981C508.483 25.7759 508.825 25.6733 509.216 25.6733ZM509.157 26.855C508.92 26.855 508.711 26.9038 508.532 27.0015C508.353 27.0991 508.215 27.2358 508.117 27.4116C508.02 27.5874 507.971 27.7909 507.971 28.022C507.971 28.2564 508.02 28.4598 508.117 28.6323C508.215 28.8049 508.353 28.9399 508.532 29.0376C508.711 29.132 508.92 29.1792 509.157 29.1792C509.398 29.1792 509.606 29.132 509.782 29.0376C509.955 28.9432 510.087 28.8081 510.178 28.6323C510.269 28.4565 510.314 28.2498 510.314 28.0122C510.314 27.7746 510.269 27.5695 510.178 27.397C510.087 27.2245 509.955 27.091 509.782 26.9966C509.606 26.9022 509.398 26.855 509.157 26.855ZM505.915 25.8345C506.27 25.8345 506.586 25.9289 506.862 26.1177C507.139 26.3032 507.357 26.5604 507.517 26.8892C507.673 27.2179 507.751 27.5923 507.751 28.0122C507.751 28.4354 507.673 28.813 507.517 29.145C507.357 29.4738 507.139 29.7326 506.862 29.9214C506.586 30.1069 506.27 30.1997 505.915 30.1997C505.492 30.1997 505.135 30.1069 504.846 29.9214C504.553 29.7326 504.33 29.4738 504.177 29.145C504.024 28.8162 503.947 28.4403 503.947 28.0171C503.947 27.5939 504.024 27.2179 504.177 26.8892C504.33 26.5604 504.553 26.3032 504.846 26.1177C505.135 25.9289 505.492 25.8345 505.915 25.8345ZM505.954 27.0112C505.743 27.0112 505.557 27.0536 505.397 27.1382C505.235 27.2196 505.108 27.3351 505.017 27.4849C504.925 27.6346 504.88 27.812 504.88 28.0171C504.88 28.2222 504.924 28.3996 505.012 28.5493C505.1 28.6991 505.223 28.8146 505.383 28.896C505.542 28.9774 505.733 29.0181 505.954 29.0181C506.172 29.0181 506.363 28.9774 506.525 28.896C506.685 28.8146 506.81 28.6991 506.901 28.5493C506.993 28.3963 507.038 28.2173 507.038 28.0122C507.038 27.8071 506.993 27.6297 506.901 27.48C506.81 27.3302 506.685 27.2147 506.525 27.1333C506.363 27.0519 506.172 27.0112 505.954 27.0112ZM506.945 23.3931H511.154V24.5698H505.871V23.4614L506.945 23.3931ZM508.317 23.5835L508.313 23.9839C507.948 23.9839 507.611 23.9383 507.302 23.8472C506.993 23.756 506.724 23.6226 506.496 23.4468C506.265 23.271 506.088 23.0529 505.964 22.7925C505.837 22.5288 505.773 22.2245 505.773 21.8794C505.773 21.6385 505.809 21.4188 505.881 21.2202C505.949 21.0184 506.058 20.8443 506.208 20.6978C506.358 20.548 506.55 20.4341 506.784 20.356C507.019 20.2746 507.302 20.2339 507.634 20.2339H511.154V21.4107H507.736C507.479 21.4107 507.277 21.4497 507.131 21.5278C506.984 21.6027 506.88 21.7118 506.818 21.855C506.753 21.995 506.721 22.1626 506.721 22.3579C506.721 22.5793 506.763 22.7681 506.848 22.9243C506.932 23.0773 507.048 23.2026 507.194 23.3003C507.341 23.398 507.51 23.4696 507.702 23.5151C507.894 23.5607 508.099 23.5835 508.317 23.5835ZM508.005 20.3071L508.127 20.8589C507.808 20.8589 507.507 20.815 507.224 20.7271C506.937 20.6359 506.687 20.5041 506.472 20.3316C506.254 20.1558 506.083 19.9393 505.959 19.6821C505.835 19.425 505.773 19.1304 505.773 18.7984C505.773 18.5282 505.811 18.2873 505.886 18.0757C505.957 17.8609 506.071 17.6786 506.228 17.5288C506.384 17.3791 506.587 17.2652 506.838 17.187C507.085 17.1089 507.385 17.0698 507.736 17.0698H511.154V18.2515H507.731C507.465 18.2515 507.258 18.2905 507.111 18.3687C506.965 18.4435 506.864 18.551 506.809 18.6909C506.75 18.8309 506.721 18.9986 506.721 19.1939C506.721 19.3762 506.755 19.5373 506.823 19.6773C506.888 19.814 506.981 19.9295 507.102 20.0239C507.219 20.1183 507.354 20.19 507.507 20.2388C507.66 20.2844 507.826 20.3071 508.005 20.3071ZM506.945 14.6822H511.154V15.8589H505.871V14.7505L506.945 14.6822ZM508.317 14.8726L508.313 15.273C507.948 15.273 507.611 15.2274 507.302 15.1363C506.993 15.0451 506.724 14.9116 506.496 14.7359C506.265 14.5601 506.088 14.342 505.964 14.0816C505.837 13.8179 505.773 13.5135 505.773 13.1685C505.773 12.9276 505.809 12.7079 505.881 12.5093C505.949 12.3075 506.058 12.1333 506.208 11.9868C506.358 11.8371 506.55 11.7232 506.784 11.6451C507.019 11.5637 507.302 11.523 507.634 11.523H511.154V12.6997H507.736C507.479 12.6997 507.277 12.7388 507.131 12.8169C506.984 12.8918 506.88 13.0008 506.818 13.1441C506.753 13.284 506.721 13.4517 506.721 13.647C506.721 13.8684 506.763 14.0572 506.848 14.2134C506.932 14.3664 507.048 14.4917 507.194 14.5894C507.341 14.687 507.51 14.7587 507.702 14.8042C507.894 14.8498 508.099 14.8726 508.317 14.8726ZM508.005 11.5962L508.127 12.148C507.808 12.148 507.507 12.104 507.224 12.0161C506.937 11.925 506.687 11.7932 506.472 11.6206C506.254 11.4449 506.083 11.2284 505.959 10.9712C505.835 10.7141 505.773 10.4195 505.773 10.0874C505.773 9.81726 505.811 9.57637 505.886 9.36478C505.957 9.14994 506.071 8.96765 506.228 8.81791C506.384 8.66817 506.587 8.55424 506.838 8.47611C507.085 8.39799 507.385 8.35893 507.736 8.35893H511.154V9.54056H507.731C507.465 9.54056 507.258 9.57963 507.111 9.65775C506.965 9.73262 506.864 9.84004 506.809 9.98002C506.75 10.12 506.721 10.2876 506.721 10.4829C506.721 10.6652 506.755 10.8264 506.823 10.9663C506.888 11.1031 506.981 11.2186 507.102 11.313C507.219 11.4074 507.354 11.479 507.507 11.5279C507.66 11.5734 507.826 11.5962 508.005 11.5962Z" fill="#23292F"/>
<path d="M235.398 48.3252V55.459H234.222V49.7217L232.479 50.3125V49.3408L235.257 48.3252H235.398ZM242.503 51.3086V52.4707C242.503 53.0273 242.448 53.5026 242.337 53.8965C242.229 54.2871 242.073 54.6045 241.868 54.8486C241.663 55.0928 241.417 55.2718 241.131 55.3857C240.848 55.4997 240.53 55.5566 240.179 55.5566C239.899 55.5566 239.638 55.5208 239.397 55.4492C239.16 55.3776 238.945 55.2653 238.753 55.1123C238.561 54.9593 238.396 54.7624 238.26 54.5215C238.126 54.2773 238.022 53.986 237.947 53.6475C237.876 53.3089 237.84 52.9167 237.84 52.4707V51.3086C237.84 50.7487 237.895 50.2767 238.006 49.8926C238.117 49.5052 238.274 49.1911 238.479 48.9502C238.685 48.7061 238.929 48.5287 239.212 48.418C239.498 48.3073 239.817 48.252 240.169 48.252C240.452 48.252 240.713 48.2878 240.95 48.3594C241.191 48.4277 241.406 48.5368 241.595 48.6865C241.787 48.8363 241.95 49.0316 242.083 49.2725C242.22 49.5101 242.324 49.7982 242.395 50.1367C242.467 50.472 242.503 50.8626 242.503 51.3086ZM241.326 52.6367V51.1328C241.326 50.8496 241.31 50.6006 241.277 50.3858C241.245 50.1677 241.196 49.9837 241.131 49.834C241.069 49.681 240.991 49.5573 240.896 49.4629C240.802 49.3652 240.695 49.2953 240.574 49.2529C240.454 49.2074 240.319 49.1846 240.169 49.1846C239.987 49.1846 239.824 49.2204 239.681 49.292C239.537 49.3604 239.417 49.471 239.319 49.624C239.222 49.777 239.147 49.9789 239.095 50.2295C239.046 50.4769 239.021 50.778 239.021 51.1328V52.6367C239.021 52.9232 239.038 53.1755 239.07 53.3936C239.103 53.6117 239.152 53.7988 239.217 53.9551C239.282 54.1081 239.36 54.235 239.451 54.3359C239.546 54.4336 239.653 54.5052 239.773 54.5508C239.897 54.5964 240.032 54.6191 240.179 54.6191C240.364 54.6191 240.529 54.5833 240.672 54.5117C240.815 54.4401 240.936 54.3262 241.033 54.1699C241.131 54.0104 241.204 53.8037 241.253 53.5498C241.302 53.2959 241.326 52.9915 241.326 52.6367ZM248.186 51.3086V52.4707C248.186 53.0273 248.131 53.5026 248.02 53.8965C247.913 54.2871 247.757 54.6045 247.552 54.8486C247.347 55.0928 247.101 55.2718 246.814 55.3857C246.531 55.4997 246.214 55.5566 245.862 55.5566C245.582 55.5566 245.322 55.5208 245.081 55.4492C244.843 55.3776 244.629 55.2653 244.437 55.1123C244.244 54.9593 244.08 54.7624 243.943 54.5215C243.81 54.2773 243.706 53.986 243.631 53.6475C243.559 53.3089 243.523 52.9167 243.523 52.4707V51.3086C243.523 50.7487 243.579 50.2767 243.689 49.8926C243.8 49.5052 243.958 49.1911 244.163 48.9502C244.368 48.7061 244.612 48.5287 244.895 48.418C245.182 48.3073 245.501 48.252 245.853 48.252C246.136 48.252 246.396 48.2878 246.634 48.3594C246.875 48.4277 247.089 48.5368 247.278 48.6865C247.47 48.8363 247.633 49.0316 247.767 49.2725C247.903 49.5101 248.007 49.7982 248.079 50.1367C248.151 50.472 248.186 50.8626 248.186 51.3086ZM247.01 52.6367V51.1328C247.01 50.8496 246.993 50.6006 246.961 50.3858C246.928 50.1677 246.88 49.9837 246.814 49.834C246.753 49.681 246.674 49.5573 246.58 49.4629C246.486 49.3652 246.378 49.2953 246.258 49.2529C246.137 49.2074 246.002 49.1846 245.853 49.1846C245.67 49.1846 245.507 49.2204 245.364 49.292C245.221 49.3604 245.101 49.471 245.003 49.624C244.905 49.777 244.83 49.9789 244.778 50.2295C244.729 50.4769 244.705 50.778 244.705 51.1328V52.6367C244.705 52.9232 244.721 53.1755 244.754 53.3936C244.786 53.6117 244.835 53.7988 244.9 53.9551C244.965 54.1081 245.044 54.235 245.135 54.3359C245.229 54.4336 245.337 54.5052 245.457 54.5508C245.581 54.5964 245.716 54.6191 245.862 54.6191C246.048 54.6191 246.212 54.5833 246.355 54.5117C246.499 54.4401 246.619 54.3262 246.717 54.1699C246.814 54.0104 246.888 53.8037 246.936 53.5498C246.985 53.2959 247.01 52.9915 247.01 52.6367ZM250.481 51.25V55.459H249.305V50.1758H250.413L250.481 51.25ZM250.291 52.6221L249.891 52.6172C249.891 52.2526 249.936 51.9157 250.027 51.6065C250.118 51.2972 250.252 51.0287 250.428 50.8008C250.603 50.5697 250.822 50.3923 251.082 50.2686C251.346 50.1416 251.65 50.0781 251.995 50.0781C252.236 50.0781 252.456 50.1139 252.654 50.1856C252.856 50.2539 253.03 50.363 253.177 50.5127C253.326 50.6624 253.44 50.8545 253.519 51.0889C253.6 51.3232 253.641 51.6065 253.641 51.9385V55.459H252.464V52.041C252.464 51.7839 252.425 51.582 252.347 51.4356C252.272 51.2891 252.163 51.1849 252.019 51.1231C251.88 51.058 251.712 51.0254 251.517 51.0254C251.295 51.0254 251.106 51.0677 250.95 51.1524C250.797 51.237 250.672 51.3525 250.574 51.499C250.477 51.6455 250.405 51.8148 250.359 52.0068C250.314 52.1989 250.291 52.404 250.291 52.6221ZM253.567 52.3096L253.016 52.4316C253.016 52.1126 253.06 51.8115 253.147 51.5283C253.239 51.2419 253.37 50.9912 253.543 50.7764C253.719 50.5583 253.935 50.3874 254.192 50.2637C254.45 50.14 254.744 50.0781 255.076 50.0781C255.346 50.0781 255.587 50.1156 255.799 50.1904C256.014 50.2621 256.196 50.376 256.346 50.5322C256.495 50.6885 256.609 50.8919 256.687 51.1426C256.766 51.39 256.805 51.6895 256.805 52.041V55.459H255.623V52.0361C255.623 51.7692 255.584 51.5625 255.506 51.416C255.431 51.2695 255.324 51.1686 255.184 51.1133C255.044 51.0547 254.876 51.0254 254.681 51.0254C254.498 51.0254 254.337 51.0596 254.197 51.1279C254.061 51.193 253.945 51.2858 253.851 51.4063C253.756 51.5234 253.685 51.6585 253.636 51.8115C253.59 51.9645 253.567 52.1305 253.567 52.3096ZM259.192 51.25V55.459H258.016V50.1758H259.124L259.192 51.25ZM259.002 52.6221L258.602 52.6172C258.602 52.2526 258.647 51.9157 258.738 51.6065C258.829 51.2972 258.963 51.0287 259.139 50.8008C259.314 50.5697 259.533 50.3923 259.793 50.2686C260.057 50.1416 260.361 50.0781 260.706 50.0781C260.947 50.0781 261.167 50.1139 261.365 50.1856C261.567 50.2539 261.741 50.363 261.888 50.5127C262.037 50.6624 262.151 50.8545 262.229 51.0889C262.311 51.3232 262.352 51.6065 262.352 51.9385V55.459H261.175V52.041C261.175 51.7839 261.136 51.582 261.058 51.4356C260.983 51.2891 260.874 51.1849 260.73 51.1231C260.59 51.058 260.423 51.0254 260.227 51.0254C260.006 51.0254 259.817 51.0677 259.661 51.1524C259.508 51.237 259.383 51.3525 259.285 51.499C259.187 51.6455 259.116 51.8148 259.07 52.0068C259.025 52.1989 259.002 52.404 259.002 52.6221ZM262.278 52.3096L261.727 52.4316C261.727 52.1126 261.77 51.8115 261.858 51.5283C261.949 51.2419 262.081 50.9912 262.254 50.7764C262.43 50.5583 262.646 50.3874 262.903 50.2637C263.16 50.14 263.455 50.0781 263.787 50.0781C264.057 50.0781 264.298 50.1156 264.51 50.1904C264.725 50.2621 264.907 50.376 265.057 50.5322C265.206 50.6885 265.32 50.8919 265.398 51.1426C265.477 51.39 265.516 51.6895 265.516 52.041V55.459H264.334V52.0361C264.334 51.7692 264.295 51.5625 264.217 51.416C264.142 51.2695 264.034 51.1686 263.894 51.1133C263.755 51.0547 263.587 51.0254 263.392 51.0254C263.209 51.0254 263.048 51.0596 262.908 51.1279C262.771 51.193 262.656 51.2858 262.561 51.4063C262.467 51.5234 262.395 51.6585 262.347 51.8115C262.301 51.9645 262.278 52.1305 262.278 52.3096Z" fill="#23292F"/>
<path d="M211.823 14.2749H203.428V26.8815H211.823V14.2749Z" fill="#999999"/>
<path d="M211.063 15.0332H204.193V26.1133H211.063V15.0332Z" fill="#23292F"/>
<path d="M203.428 26.8813V28.2967C203.428 29.4087 204.347 30.3186 205.448 30.3186H209.803C210.914 30.3186 211.823 29.3986 211.823 28.2967V26.8813H203.428Z" fill="#B3B3B3"/>
<path d="M203.428 14.2747V12.8593C203.428 11.7473 204.347 10.8374 205.448 10.8374H209.803C210.914 10.8374 211.823 11.7574 211.823 12.8593V14.2747H203.428Z" fill="#B3B3B3"/>
<path d="M290.861 14.2749H282.466V26.8815H290.861V14.2749Z" fill="#999999"/>
<path d="M290.094 15.0332H283.224V26.1133H290.094V15.0332Z" fill="#23292F"/>
<path d="M282.466 26.8813V28.2967C282.466 29.4087 283.385 30.3186 284.486 30.3186H288.841C289.952 30.3186 290.861 29.3986 290.861 28.2967V26.8813H282.466Z" fill="#B3B3B3"/>
<path d="M282.466 14.2747V12.8593C282.466 11.7473 283.385 10.8374 284.486 10.8374H288.841C289.952 10.8374 290.861 11.7574 290.861 12.8593V14.2747H282.466Z" fill="#B3B3B3"/>
<path d="M445.875 14.2749H437.479V26.8815H445.875V14.2749Z" fill="#999999"/>
<path d="M445.115 15.0332H438.245V26.1133H445.115V15.0332Z" fill="#23292F"/>
<path d="M437.479 26.8813V28.2967C437.479 29.4087 438.399 30.3186 439.5 30.3186H443.854C444.966 30.3186 445.875 29.3986 445.875 28.2967V26.8813H437.479Z" fill="#B3B3B3"/>
<path d="M437.479 14.2747V12.8593C437.479 11.7473 438.399 10.8374 439.5 10.8374H443.854C444.966 10.8374 445.875 11.7574 445.875 12.8593V14.2747H437.479Z" fill="#B3B3B3"/>
<path d="M57.1847 14.2749H48.7891V26.8815H57.1847V14.2749Z" fill="#999999"/>
<path d="M56.4277 15.0332H49.5576V26.1133H56.4277V15.0332Z" fill="#23292F"/>
<path d="M48.7891 26.8813V28.2967C48.7891 29.4087 49.7084 30.3186 50.8097 30.3186H55.1641C56.2754 30.3186 57.1847 29.3986 57.1847 28.2967V26.8813H48.7891Z" fill="#B3B3B3"/>
<path d="M48.7891 14.2747V12.8593C48.7891 11.7473 49.7084 10.8374 50.8097 10.8374H55.1641C56.2754 10.8374 57.1847 11.7574 57.1847 12.8593V14.2747H48.7891Z" fill="#B3B3B3"/>
<path d="M78.4093 11.1006H64.6592V27.5286H78.4093V11.1006Z" fill="#EFEFEF"/>
<path d="M76.8543 11.1005H78.3798L77.9959 10.7163H64.2559L64.6297 11.4846H76.4704L78.3798 13.3953V12.627L76.8543 11.1005Z" fill="white"/>
<path d="M64.2559 10.7163V27.1444L64.6299 27.5285V11.4846" fill="#999999"/>
<path d="M68.4465 30.2074H73.4071C74.8922 30.2074 76.0843 29.0245 76.0843 27.5283H65.7793C65.7793 29.0245 67.0018 30.2074 68.4465 30.2074Z" fill="#B3B3B3"/>
<path d="M68.4465 8.42139H73.4071C74.8922 8.42139 76.0843 9.60419 76.0843 11.1004H65.7793C65.7793 9.6143 67.0018 8.42139 68.4465 8.42139Z" fill="#B3B3B3"/>
<path d="M156.362 11.1006H142.611V27.5286H156.362V11.1006Z" fill="#EFEFEF"/>
<path d="M154.824 11.1005H156.35L155.966 10.7163H142.216L142.6 11.4846H154.44L156.35 13.3953V12.627L154.824 11.1005Z" fill="white"/>
<path d="M142.216 10.7163V27.1444L142.6 27.5285V11.4846" fill="#999999"/>
<path d="M146.418 30.2074H151.379C152.864 30.2074 154.056 29.0245 154.056 27.5283H143.751C143.751 29.0245 144.933 30.2074 146.418 30.2074Z" fill="#B3B3B3"/>
<path d="M146.418 8.42139H151.379C152.864 8.42139 154.056 9.60419 154.056 11.1004H143.751C143.751 9.6143 144.933 8.42139 146.418 8.42139Z" fill="#B3B3B3"/>
<path d="M234.321 11.1006H220.571V27.5286H234.321V11.1006Z" fill="#EFEFEF"/>
<path d="M232.783 11.1005H234.319L233.935 10.7163H220.185L220.568 11.4846H232.409L234.319 13.3953V12.627L232.783 11.1005Z" fill="white"/>
<path d="M220.185 10.7163V27.1444L220.569 27.5285V11.4846" fill="#999999"/>
<path d="M224.386 30.2074H229.347C230.832 30.2074 232.024 29.0245 232.024 27.5283H221.719C221.709 29.0245 222.901 30.2074 224.386 30.2074Z" fill="#B3B3B3"/>
<path d="M224.386 8.42139H229.347C230.832 8.42139 232.024 9.60419 232.024 11.1004H221.719C221.709 9.6143 222.901 8.42139 224.386 8.42139Z" fill="#B3B3B3"/>
<path d="M312.27 11.1006H298.52V27.5286H312.27V11.1006Z" fill="#EFEFEF"/>
<path d="M310.754 11.1005H312.279L311.905 10.7163H298.155L298.539 11.4846H310.37L312.279 13.3953V12.627L310.754 11.1005Z" fill="white"/>
<path d="M298.155 10.7163V27.1444L298.539 27.5285V11.4846" fill="#999999"/>
<path d="M302.359 30.2074H307.319C308.804 30.2074 309.996 29.0245 309.996 27.5283H299.691C299.681 29.0245 300.863 30.2074 302.359 30.2074Z" fill="#B3B3B3"/>
<path d="M302.359 8.42139H307.319C308.804 8.42139 309.996 9.60419 309.996 11.1004H299.691C299.681 9.6143 300.863 8.42139 302.359 8.42139Z" fill="#B3B3B3"/>
<path d="M390.218 11.1006H376.468V27.5286H390.218V11.1006Z" fill="#EFEFEF"/>
<path d="M388.726 11.1005H390.252L389.868 10.7163H376.128L376.512 11.4846H388.342L390.252 13.3953V12.627L388.726 11.1005Z" fill="white"/>
<path d="M376.128 10.7163V27.1444L376.512 27.5285V11.4846" fill="#999999"/>
<path d="M380.319 30.2074H385.279C386.764 30.2074 387.956 29.0245 387.956 27.5283H377.651C377.651 29.0245 378.833 30.2074 380.319 30.2074Z" fill="#B3B3B3"/>
<path d="M380.319 8.42139H385.279C386.764 8.42139 387.956 9.60419 387.956 11.1004H377.651C377.651 9.6143 378.833 8.42139 380.319 8.42139Z" fill="#B3B3B3"/>
<path d="M468.22 11.1006H454.47V27.5286H468.22V11.1006Z" fill="#EFEFEF"/>
<path d="M466.655 11.1005H468.181L467.797 10.7163H454.057L454.441 11.4846H466.271L468.181 13.3953V12.627L466.655 11.1005Z" fill="white"/>
<path d="M454.057 10.7163V27.1444L454.441 27.5285V11.4846" fill="#999999"/>
<path d="M458.247 30.2074H463.208C464.693 30.2074 465.885 29.0245 465.885 27.5283H455.58C455.58 29.0245 456.803 30.2074 458.247 30.2074Z" fill="#B3B3B3"/>
<path d="M458.247 8.42139H463.208C464.693 8.42139 465.885 9.60419 465.885 11.1004H455.58C455.58 9.6143 456.803 8.42139 458.247 8.42139Z" fill="#B3B3B3"/>
<path d="M39.4347 11.1006H25.6846V27.5286H39.4347V11.1006Z" fill="#EFEFEF"/>
<path d="M37.8689 11.1005H39.3945L39.0106 10.7163H25.2705L25.6544 11.4846H37.485L39.3945 13.3953V12.627L37.8689 11.1005Z" fill="white"/>
<path d="M25.2705 10.7163V27.1444L25.6547 27.5285V11.4846" fill="#999999"/>
<path d="M29.4729 30.2074H34.4335C35.9186 30.2074 37.1108 29.0245 37.1108 27.5283H26.8057C26.7956 29.0245 28.0181 30.2074 29.4729 30.2074Z" fill="#B3B3B3"/>
<path d="M29.4729 8.42139H34.4335C35.9186 8.42139 37.1108 9.60419 37.1108 11.1004H26.8057C26.7956 9.6143 28.0181 8.42139 29.4729 8.42139Z" fill="#B3B3B3"/>
<path d="M117.383 11.1006H103.633V27.5286H117.383V11.1006Z" fill="#EFEFEF"/>
<path d="M115.841 11.1005H117.366L116.982 10.7163H103.242L103.616 11.4846H115.457L117.366 13.3953V12.627L115.841 11.1005Z" fill="white"/>
<path d="M103.242 10.7163V27.1444L103.616 27.5285V11.4846" fill="#999999"/>
<path d="M107.433 30.2074H112.393C113.879 30.2074 115.071 29.0245 115.071 27.5283H104.766C104.766 29.0245 105.988 30.2074 107.433 30.2074Z" fill="#B3B3B3"/>
<path d="M107.433 8.42139H112.393C113.879 8.42139 115.071 9.60419 115.071 11.1004H104.766C104.766 9.6143 105.988 8.42139 107.433 8.42139Z" fill="#B3B3B3"/>
<path d="M195.334 11.1006H181.584V27.5286H195.334V11.1006Z" fill="#EFEFEF"/>
<path d="M193.811 11.1005H195.336L194.952 10.7163H181.202L181.586 11.4846H193.427L195.336 13.3953V12.627L193.811 11.1005Z" fill="white"/>
<path d="M181.202 10.7163V27.1444L181.586 27.5285V11.4846" fill="#999999"/>
<path d="M185.405 30.2074H190.365C191.85 30.2074 193.042 29.0245 193.042 27.5283H182.737C182.727 29.0245 183.919 30.2074 185.405 30.2074Z" fill="#B3B3B3"/>
<path d="M185.405 8.42139H190.365C191.85 8.42139 193.042 9.60419 193.042 11.1004H182.737C182.727 9.6143 183.919 8.42139 185.405 8.42139Z" fill="#B3B3B3"/>
<path d="M273.294 11.1006H259.544V27.5286H273.294V11.1006Z" fill="#EFEFEF"/>
<path d="M271.769 11.1005H273.305L272.921 10.7163H259.171L259.555 11.4846H271.396L273.305 13.3953V12.627L271.769 11.1005Z" fill="white"/>
<path d="M259.171 10.7163V27.1444L259.555 27.5285V11.4846" fill="#999999"/>
<path d="M263.373 30.2074H268.334C269.819 30.2074 271.011 29.0245 271.011 27.5283H260.706C260.696 29.0245 261.878 30.2074 263.373 30.2074Z" fill="#B3B3B3"/>
<path d="M263.373 8.42139H268.334C269.819 8.42139 271.011 9.60419 271.011 11.1004H260.706C260.696 9.6143 261.878 8.42139 263.373 8.42139Z" fill="#B3B3B3"/>
<path d="M351.244 11.1006H337.494V27.5286H351.244V11.1006Z" fill="#EFEFEF"/>
<path d="M349.74 11.1005H351.266L350.882 10.7163H337.142L337.526 11.4846H349.356L351.266 13.3953V12.627L349.74 11.1005Z" fill="white"/>
<path d="M337.142 10.7163V27.1444L337.526 27.5285V11.4846" fill="#999999"/>
<path d="M341.343 30.2074H346.304C347.789 30.2074 348.981 29.0245 348.981 27.5283H338.676C338.666 29.0245 339.848 30.2074 341.343 30.2074Z" fill="#B3B3B3"/>
<path d="M341.343 8.42139H346.304C347.789 8.42139 348.981 9.60419 348.981 11.1004H338.676C338.666 9.6143 339.848 8.42139 341.343 8.42139Z" fill="#B3B3B3"/>
<path d="M429.235 11.1006H415.484V27.5286H429.235V11.1006Z" fill="#EFEFEF"/>
<path d="M427.669 11.1005H429.194L428.81 10.7163H415.07L415.454 11.4846H427.285L429.194 13.3953V12.627L427.669 11.1005Z" fill="white"/>
<path d="M415.07 10.7163V27.1444L415.454 27.5285V11.4846" fill="#999999"/>
<path d="M419.273 30.2074H424.233C425.718 30.2074 426.911 29.0245 426.911 27.5283H416.606C416.595 29.0245 417.818 30.2074 419.273 30.2074Z" fill="#B3B3B3"/>
<path d="M419.273 8.42139H424.233C425.718 8.42139 426.911 9.60419 426.911 11.1004H416.606C416.595 9.6143 417.818 8.42139 419.273 8.42139Z" fill="#B3B3B3"/>
<path d="M20.3389 35.5957H19.1973V34.9487H20.3389V33.6445H21.0259V34.9487H22.1675V35.5957H21.0259V36.819H20.3389V35.5957Z" fill="#23292F"/>
<path d="M20.3389 3.88188H19.1973V3.23486H20.3389H21.0259H22.1675V3.88188H21.0259H20.3389Z" fill="#23292F"/>
<path d="M28.0884 37.1223V37.6895H24.5324V37.1932L26.3123 35.2118C26.5312 34.968 26.7003 34.7616 26.8197 34.5924C26.9416 34.4208 27.0262 34.2678 27.0735 34.1334C27.1232 33.9966 27.1481 33.8573 27.1481 33.7155C27.1481 33.5364 27.1108 33.3747 27.0361 33.2304C26.964 33.0837 26.857 32.9668 26.7152 32.8797C26.5734 32.7926 26.4018 32.7491 26.2003 32.7491C25.959 32.7491 25.7575 32.7964 25.5958 32.8909C25.4366 32.9829 25.3172 33.1123 25.2376 33.279C25.158 33.4456 25.1182 33.6372 25.1182 33.8536H24.4279C24.4279 33.5476 24.4951 33.2678 24.6294 33.014C24.7637 32.7603 24.9627 32.5588 25.2264 32.4095C25.4901 32.2578 25.8147 32.1819 26.2003 32.1819C26.5436 32.1819 26.8371 32.2429 27.0809 32.3648C27.3247 32.4842 27.5113 32.6533 27.6406 32.8722C27.7725 33.0886 27.8384 33.3424 27.8384 33.6334C27.8384 33.7926 27.811 33.9543 27.7563 34.1185C27.7041 34.2802 27.6307 34.4419 27.5361 34.6036C27.4441 34.7653 27.3359 34.9245 27.2115 35.0812C27.0896 35.2379 26.959 35.3922 26.8197 35.5439L25.3645 37.1223H28.0884ZM32.4989 35.8611V36.4282H28.5735V36.0215L31.0063 32.2565H31.5698L30.9653 33.3461L29.3571 35.8611H32.4989ZM31.7414 32.2565V37.6895H31.0511V32.2565H31.7414ZM35.0586 36.8648L36.6594 32.2565H37.4393L35.428 37.6895H34.8721L35.0586 36.8648ZM33.5623 32.2565L35.1482 36.8648L35.3459 37.6895H34.79L32.7825 32.2565H33.5623Z" fill="#23292F"/>
<path d="M472.795 35.5957H471.653V34.9487H472.795V33.6445H473.482V34.9487H474.624V35.5957H473.482V36.819H472.795V35.5957Z" fill="#23292F"/>
<path d="M472.795 3.88188H471.653V3.23486H472.795H473.482H474.624V3.88188H473.482H472.795Z" fill="#23292F"/>
<path d="M461.837 37.1223V37.6895H458.281V37.1932L460.061 35.2118C460.28 34.968 460.449 34.7616 460.569 34.5924C460.691 34.4208 460.775 34.2678 460.822 34.1334C460.872 33.9966 460.897 33.8573 460.897 33.7155C460.897 33.5364 460.86 33.3747 460.785 33.2304C460.713 33.0837 460.606 32.9668 460.464 32.8797C460.322 32.7926 460.151 32.7491 459.949 32.7491C459.708 32.7491 459.507 32.7964 459.345 32.8909C459.186 32.9829 459.066 33.1123 458.987 33.279C458.907 33.4456 458.867 33.6372 458.867 33.8536H458.177C458.177 33.5476 458.244 33.2678 458.378 33.014C458.513 32.7603 458.712 32.5588 458.975 32.4095C459.239 32.2578 459.564 32.1819 459.949 32.1819C460.293 32.1819 460.586 32.2429 460.83 32.3648C461.074 32.4842 461.26 32.6533 461.39 32.8722C461.521 33.0886 461.587 33.3424 461.587 33.6334C461.587 33.7926 461.56 33.9543 461.505 34.1185C461.453 34.2802 461.38 34.4419 461.285 34.6036C461.193 34.7653 461.085 34.9245 460.961 35.0812C460.839 35.2379 460.708 35.3922 460.569 35.5439L459.114 37.1223H461.837ZM466.248 35.8611V36.4282H462.322V36.0215L464.755 32.2565H465.319L464.714 33.3461L463.106 35.8611H466.248ZM465.49 32.2565V37.6895H464.8V32.2565H465.49ZM468.808 36.8648L470.408 32.2565H471.188L469.177 37.6895H468.621L468.808 36.8648ZM467.311 32.2565L468.897 36.8648L469.095 37.6895H468.539L466.532 32.2565H467.311Z" fill="#23292F"/>
<path d="M50.9779 23.2931H54.8018V23.7764H51.5812L51.9364 24.7506H51.5002L50.9779 23.3689V23.2931ZM54.4047 19.3804H54.8018V21.8696H54.4544L53.0674 20.6237C52.8968 20.4705 52.7522 20.3521 52.6338 20.2685C52.5137 20.1832 52.4066 20.124 52.3126 20.0909C52.2168 20.0561 52.1193 20.0386 52.02 20.0386C51.8946 20.0386 51.7815 20.0648 51.6805 20.117C51.5777 20.1675 51.4959 20.2424 51.4349 20.3416C51.374 20.4409 51.3435 20.561 51.3435 20.7021C51.3435 20.871 51.3766 21.012 51.4428 21.1252C51.5072 21.2367 51.5978 21.3202 51.7144 21.376C51.8311 21.4317 51.9652 21.4596 52.1167 21.4596V21.9428C51.9025 21.9428 51.7066 21.8958 51.529 21.8017C51.3514 21.7077 51.2103 21.5684 51.1058 21.3838C50.9996 21.1992 50.9465 20.972 50.9465 20.7021C50.9465 20.4618 50.9892 20.2563 51.0745 20.0857C51.1581 19.915 51.2765 19.7844 51.4297 19.6939C51.5812 19.6016 51.7588 19.5554 51.9626 19.5554C52.074 19.5554 52.1872 19.5746 52.3021 19.6129C52.4153 19.6495 52.5285 19.7008 52.6417 19.767C52.7549 19.8314 52.8663 19.9072 52.976 19.9942C53.0857 20.0796 53.1937 20.171 53.2999 20.2685L54.4047 21.2872V19.3804ZM50.9779 17.2752H54.8018V17.7584H51.5812L51.9364 18.7327H51.5002L50.9779 17.3509V17.2752Z" fill="white"/>
<path d="M439.671 23.2931H443.495V23.7764H440.275L440.63 24.7506H440.194L439.671 23.3689V23.2931ZM443.098 19.3804H443.495V21.8696H443.148L441.761 20.6237C441.59 20.4705 441.446 20.3521 441.327 20.2685C441.207 20.1832 441.1 20.124 441.006 20.0909C440.91 20.0561 440.813 20.0386 440.713 20.0386C440.588 20.0386 440.475 20.0648 440.374 20.117C440.271 20.1675 440.189 20.2424 440.128 20.3416C440.067 20.4409 440.037 20.561 440.037 20.7021C440.037 20.871 440.07 21.012 440.136 21.1252C440.201 21.2367 440.291 21.3202 440.408 21.376C440.524 21.4317 440.659 21.4596 440.81 21.4596V21.9428C440.596 21.9428 440.4 21.8958 440.222 21.8017C440.045 21.7077 439.904 21.5684 439.799 21.3838C439.693 21.1992 439.64 20.972 439.64 20.7021C439.64 20.4618 439.683 20.2563 439.768 20.0857C439.851 19.915 439.97 19.7844 440.123 19.6939C440.275 19.6016 440.452 19.5554 440.656 19.5554C440.767 19.5554 440.881 19.5746 440.995 19.6129C441.109 19.6495 441.222 19.7008 441.335 19.767C441.448 19.8314 441.56 19.9072 441.669 19.9942C441.779 20.0796 441.887 20.171 441.993 20.2685L443.098 21.2872V19.3804ZM439.671 17.2752H443.495V17.7584H440.275L440.63 18.7327H440.194L439.671 17.3509V17.2752Z" fill="white"/>
<path d="M284.654 23.2931H288.478V23.7764H285.257L285.612 24.7506H285.176L284.654 23.3689V23.2931ZM288.081 19.3804H288.478V21.8696H288.13L286.743 20.6237C286.573 20.4705 286.428 20.3521 286.31 20.2685C286.189 20.1832 286.082 20.124 285.988 20.0909C285.893 20.0561 285.795 20.0386 285.696 20.0386C285.57 20.0386 285.457 20.0648 285.356 20.117C285.254 20.1675 285.172 20.2424 285.111 20.3416C285.05 20.4409 285.019 20.561 285.019 20.7021C285.019 20.871 285.052 21.012 285.119 21.1252C285.183 21.2367 285.274 21.3202 285.39 21.376C285.507 21.4317 285.641 21.4596 285.792 21.4596V21.9428C285.578 21.9428 285.382 21.8958 285.205 21.8017C285.027 21.7077 284.886 21.5684 284.782 21.3838C284.675 21.1992 284.622 20.972 284.622 20.7021C284.622 20.4618 284.665 20.2563 284.75 20.0857C284.834 19.915 284.952 19.7844 285.106 19.6939C285.257 19.6016 285.435 19.5554 285.638 19.5554C285.75 19.5554 285.863 19.5746 285.978 19.6129C286.091 19.6495 286.204 19.7008 286.317 19.767C286.431 19.8314 286.542 19.9072 286.652 19.9942C286.761 20.0796 286.869 20.171 286.976 20.2685L288.081 21.2872V19.3804ZM284.654 17.2752H288.478V17.7584H285.257L285.612 18.7327H285.176L284.654 17.3509V17.2752Z" fill="white"/>
<path d="M205.615 23.2931H209.438V23.7764H206.218L206.573 24.7506H206.137L205.615 23.3689V23.2931ZM209.041 19.3804H209.438V21.8696H209.091L207.704 20.6237C207.533 20.4705 207.389 20.3521 207.271 20.2685C207.15 20.1832 207.043 20.124 206.949 20.0909C206.854 20.0561 206.756 20.0386 206.657 20.0386C206.531 20.0386 206.418 20.0648 206.317 20.117C206.214 20.1675 206.133 20.2424 206.072 20.3416C206.011 20.4409 205.98 20.561 205.98 20.7021C205.98 20.871 206.013 21.012 206.079 21.1252C206.144 21.2367 206.234 21.3202 206.351 21.376C206.468 21.4317 206.602 21.4596 206.753 21.4596V21.9428C206.539 21.9428 206.343 21.8958 206.166 21.8017C205.988 21.7077 205.847 21.5684 205.743 21.3838C205.636 21.1992 205.583 20.972 205.583 20.7021C205.583 20.4618 205.626 20.2563 205.711 20.0857C205.795 19.915 205.913 19.7844 206.066 19.6939C206.218 19.6016 206.396 19.5554 206.599 19.5554C206.711 19.5554 206.824 19.5746 206.939 19.6129C207.052 19.6495 207.165 19.7008 207.278 19.767C207.392 19.8314 207.503 19.9072 207.613 19.9942C207.722 20.0796 207.83 20.171 207.937 20.2685L209.041 21.2872V19.3804ZM205.615 17.2752H209.438V17.7584H206.218L206.573 18.7327H206.137L205.615 17.3509V17.2752Z" fill="white"/>
<path d="M77.2675 24.3639L74.9842 26.6487H67.9526L65.6592 24.3639V14.4262L67.9526 12.1313H74.9842L77.2675 14.4262V24.3639Z" fill="#FFF786"/>
<path d="M155.238 24.3639L152.945 26.6487H145.923L143.63 24.3639V14.4262L145.923 12.1313H152.945L155.238 14.4262V24.3639Z" fill="#FFF786"/>
<path d="M233.207 24.3639L230.914 26.6487H223.892L221.599 24.3639V14.4262L223.892 12.1313H230.914L233.207 14.4262V24.3639Z" fill="#FFF786"/>
<path d="M311.18 24.3639L308.887 26.6487H301.825L299.531 24.3639V14.4262L301.825 12.1313H308.887L311.18 14.4262V24.3639Z" fill="#FFF786"/>
<path d="M389.107 24.3639L386.814 26.6487H379.792L377.499 24.3639V14.4262L379.792 12.1313H386.814L389.107 14.4262V24.3639Z" fill="#FFF786"/>
<path d="M467.079 24.3639L464.786 26.6487H457.754L455.471 24.3639V14.4262L457.754 12.1313H464.786L467.079 14.4262V24.3639Z" fill="#FFF786"/>
<path d="M116.253 24.3639L113.97 26.6487H106.938L104.645 24.3639V14.4262L106.938 12.1313H113.97L116.253 14.4262V24.3639Z" fill="#FFE876"/>
<path d="M38.2929 24.3639L35.9995 26.6487H28.9678L26.6846 24.3639V14.4262L28.9678 12.1313H35.9995L38.2929 14.4262V24.3639Z" fill="#FFE876"/>
<path d="M194.225 24.3639L191.931 26.6487H184.91L182.616 24.3639V14.4262L184.91 12.1313H191.931L194.225 14.4262V24.3639Z" fill="#FFE876"/>
<path d="M272.193 24.3639L269.9 26.6487H262.878L260.585 24.3639V14.4262L262.878 12.1313H269.9L272.193 14.4262V24.3639Z" fill="#FFE876"/>
<path d="M350.121 24.3639L347.828 26.6487H340.806L338.513 24.3639V14.4262L340.806 12.1313H347.828L350.121 14.4262V24.3639Z" fill="#FFE876"/>
<path d="M428.093 24.3639L425.799 26.6487H418.768L416.484 24.3639V14.4262L418.768 12.1313H425.799L428.093 14.4262V24.3639Z" fill="#FFE876"/>
<path d="M62.0742 6.09619H80.7838V32.0778H62.0742V6.09619ZM80.0261 6.86452H62.842V31.3196H80.0261V6.86452Z" fill="#23292F"/>
<path d="M140.004 6.09619H158.713V32.0778H140.004V6.09619ZM157.956 6.86452H140.772V31.3196H157.956V6.86452Z" fill="#23292F"/>
<path d="M217.976 6.09619H236.685V32.0778H217.976V6.09619ZM235.917 6.86452H218.733V31.3196H235.917V6.86452Z" fill="#23292F"/>
<path d="M295.943 6.09619H314.653V32.0778H295.943V6.09619ZM313.885 6.86452H296.701V31.3196H313.885V6.86452Z" fill="#23292F"/>
<path d="M373.914 6.09619H392.624V32.0778H373.914V6.09619ZM391.856 6.86452H374.672V31.3196H391.856V6.86452Z" fill="#23292F"/>
<path d="M451.875 6.09619H470.585V32.0778H451.875V6.09619ZM469.827 6.86452H452.643V31.3196H469.827V6.86452Z" fill="#23292F"/>
<path d="M23.0889 6.09619H41.7985V32.0778H23.0889V6.09619ZM41.0408 6.86452H23.8567V31.3196H41.0408V6.86452Z" fill="#23292F"/>
<path d="M101.019 6.09619H119.728V32.0778H101.019V6.09619ZM118.97 6.86452H101.786V31.3196H118.97V6.86452Z" fill="#23292F"/>
<path d="M178.988 6.09619H197.698V32.0778H178.988V6.09619ZM196.93 6.86452H179.746V31.3196H196.93V6.86452Z" fill="#23292F"/>
<path d="M256.957 6.09619H275.667V32.0778H256.957V6.09619ZM274.899 6.86452H257.715V31.3196H274.899V6.86452Z" fill="#23292F"/>
<path d="M334.929 6.09619H353.638V32.0778H334.929V6.09619ZM352.871 6.86452H335.686V31.3196H352.871V6.86452Z" fill="#23292F"/>
<path d="M412.889 6.09619H431.598V32.0778H412.889V6.09619ZM430.841 6.86452H413.656V31.3196H430.841V6.86452Z" fill="#23292F"/>
</g>
<defs>
<clipPath id="clip0_799_19116">
<rect width="510.636" height="55" fill="white" transform="translate(0.526367 0.0561523)"/>
</clipPath>
</defs>
</svg>
