<svg width="31" height="31" viewBox="0 0 31 31" fill="none" xmlns="http://www.w3.org/2000/svg">
<path d="M25.2809 14.6738C25.5143 14.6738 25.6976 14.8572 25.6976 15.0905C25.6976 15.3238 25.5143 15.5072 25.2809 15.5072H24.8643V14.6738H25.2809Z" fill="white"/>
<path d="M16.1143 14.6738H24.8643V15.5072H16.1143V14.6738Z" fill="white"/>
<path d="M23.6149 25.0898H15.6982C15.9316 25.0898 16.1149 24.9065 16.1149 24.6732V24.2565H23.6149C24.3066 24.2565 24.8649 23.6982 24.8649 23.0065L24.8643 15.5072H25.2809C25.5143 15.5072 25.6976 15.3238 25.6976 15.0905L25.6982 23.0065C25.6982 24.1565 24.7649 25.0898 23.6149 25.0898Z" fill="white"/>
<path d="M25.6982 7.17318L25.6976 15.0905C25.6976 14.8572 25.5143 14.6738 25.2809 14.6738H24.8643L24.8649 7.17318C24.8649 6.48151 24.3066 5.92318 23.6149 5.92318H16.1149V5.50651C16.1149 5.27318 15.9316 5.08984 15.6982 5.08984H23.6149C24.7649 5.08984 25.6982 6.02318 25.6982 7.17318Z" fill="white"/>
<path d="M22.3643 10.0898C22.5976 10.0898 22.7809 10.2732 22.7809 10.5065C22.7809 10.7398 22.5976 10.9232 22.3643 10.9232H19.0309C18.7976 10.9232 18.6143 10.7398 18.6143 10.5065C18.6143 10.2732 18.7976 10.0898 19.0309 10.0898H22.3643Z" fill="white"/>
<path d="M22.3643 18.4238C22.5976 18.4238 22.7809 18.6072 22.7809 18.8405C22.7809 19.0738 22.5976 19.2572 22.3643 19.2572H19.0309C18.7976 19.2572 18.6143 19.0738 18.6143 18.8405C18.6143 18.6072 18.7976 18.4238 19.0309 18.4238H22.3643Z" fill="white"/>
<path d="M22.3643 20.9238C22.5976 20.9238 22.7809 21.1072 22.7809 21.3405C22.7809 21.5738 22.5976 21.7572 22.3643 21.7572H19.0309C18.7976 21.7572 18.6143 21.5738 18.6143 21.3405C18.6143 21.1072 18.7976 20.9238 19.0309 20.9238H22.3643Z" fill="white"/>
<path d="M16.1149 24.2565V24.6732C16.1149 24.9065 15.9316 25.0898 15.6982 25.0898C15.4649 25.0898 15.2822 24.9059 15.2822 24.6725V24.2559L16.1149 24.2565Z" fill="white"/>
<path d="M15.2822 15.5059H16.1156L16.1149 24.2565L15.2822 24.2559V15.5059Z" fill="white"/>
<path d="M15.2822 14.6738H16.1156V15.5072H15.2822V14.6738Z" fill="white"/>
<path d="M15.2822 5.92383L16.1149 5.92318L16.1156 14.6738H15.2822V5.92383Z" fill="white"/>
<path d="M16.1149 5.50651V5.92318L15.2822 5.92383V5.50651C15.2822 5.27318 15.4649 5.08984 15.6982 5.08984C15.9316 5.08984 16.1149 5.27318 16.1149 5.50651Z" fill="white"/>
<path d="M6.53223 14.6738H15.2822V15.5072H6.53223V14.6738Z" fill="white"/>
<path d="M12.3643 10.0898C12.5976 10.0898 12.7809 10.2732 12.7809 10.5065C12.7809 10.7398 12.5976 10.9232 12.3643 10.9232H11.1143V10.0898H12.3643Z" fill="white"/>
<path d="M12.2399 21.0482C12.4066 21.2065 12.4066 21.4732 12.2399 21.6315C12.1649 21.7148 12.0566 21.7565 11.9482 21.7565C11.8399 21.7565 11.7316 21.7148 11.6566 21.6315L10.6982 20.6732L11.2816 20.0898L12.2399 21.0482Z" fill="white"/>
<path d="M11.6566 18.5488C11.8149 18.3822 12.0816 18.3822 12.2399 18.5488C12.4066 18.7072 12.4066 18.9738 12.2399 19.1322L11.2816 20.0898L10.6982 19.5072L11.6566 18.5488Z" fill="white"/>
<path d="M10.1123 20.0885L10.6957 19.5052L11.279 20.0885L10.6957 20.6719L10.1123 20.0885Z" fill="white"/>
<path d="M11.1156 10.9238V12.1738C11.1156 12.4072 10.9322 12.5905 10.6989 12.5905C10.4656 12.5905 10.2822 12.4072 10.2822 12.1738V10.9238H11.1156Z" fill="white"/>
<path d="M10.2822 10.0898H11.1156V10.9238H10.2822V10.0898Z" fill="white"/>
<path d="M11.1156 8.84049V10.0898H10.2822V8.84049C10.2822 8.60716 10.4656 8.42383 10.6989 8.42383C10.9322 8.42383 11.1156 8.60716 11.1156 8.84049Z" fill="white"/>
<path d="M10.6982 19.5072L10.1156 20.0905L9.15723 19.1322C8.99056 18.9738 8.99056 18.7072 9.15723 18.5488C9.31556 18.3822 9.58223 18.3822 9.74056 18.5488L10.6982 19.5072Z" fill="white"/>
<path d="M10.2809 10.0898V10.9232H9.03092C8.79759 10.9232 8.61426 10.7398 8.61426 10.5065C8.61426 10.2732 8.79759 10.0898 9.03092 10.0898H10.2809Z" fill="white"/>
<path d="M9.74056 21.6315C9.66556 21.7148 9.55723 21.7565 9.44889 21.7565C9.34056 21.7565 9.23223 21.7148 9.15723 21.6315C8.99056 21.4732 8.99056 21.2065 9.15723 21.0482L10.1156 20.0905L10.6982 20.6732L9.74056 21.6315Z" fill="white"/>
<path d="M6.53223 14.6738V15.5072H6.11491C5.88158 15.5072 5.69824 15.3238 5.69824 15.0905C5.69824 14.8572 5.88158 14.6738 6.11491 14.6738H6.53223Z" fill="white"/>
<path d="M5.69824 7.17318C5.69824 6.02318 6.63158 5.08984 7.78158 5.08984H15.6982C15.4649 5.08984 15.2822 5.27318 15.2822 5.50651V5.92383L7.78158 5.92318C7.08991 5.92318 6.53158 6.48151 6.53158 7.17318L6.53223 14.6738H6.11491C5.88158 14.6738 5.69824 14.8572 5.69824 15.0905V7.17318Z" fill="white"/>
<path d="M6.53158 23.0065C6.53158 23.6982 7.08991 24.2565 7.78158 24.2565L15.2822 24.2559V24.6725C15.2822 24.9059 15.4649 25.0898 15.6982 25.0898H7.78158C6.63158 25.0898 5.69824 24.1565 5.69824 23.0065V15.0905C5.69824 15.3238 5.88158 15.5072 6.11491 15.5072H6.53223L6.53158 23.0065Z" fill="white"/>
<path d="M25.6976 15.0905C25.6976 14.8572 25.5143 14.6738 25.2809 14.6738H24.8643M25.6976 15.0905C25.6976 15.3238 25.5143 15.5072 25.2809 15.5072H24.8643M25.6976 15.0905L25.6982 23.0065C25.6982 24.1565 24.7649 25.0898 23.6149 25.0898H15.6982M25.6976 15.0905L25.6982 7.17318C25.6982 6.02318 24.7649 5.08984 23.6149 5.08984H15.6982M24.8643 15.5072V14.6738M24.8643 15.5072H16.1143V14.6738H24.8643M24.8643 15.5072L24.8649 23.0065C24.8649 23.6982 24.3066 24.2565 23.6149 24.2565H16.1149M24.8643 14.6738L24.8649 7.17318C24.8649 6.48151 24.3066 5.92318 23.6149 5.92318H16.1149M15.6982 25.0898C15.9316 25.0898 16.1149 24.9065 16.1149 24.6732V24.2565M15.6982 25.0898C15.4649 25.0898 15.2822 24.9059 15.2822 24.6725V24.2559M15.6982 25.0898H7.78158C6.63158 25.0898 5.69824 24.1565 5.69824 23.0065V15.0905M16.1149 24.2565L15.2822 24.2559M16.1149 24.2565L16.1156 15.5059H15.2822V24.2559M16.1149 5.92318V5.50651C16.1149 5.27318 15.9316 5.08984 15.6982 5.08984M16.1149 5.92318L15.2822 5.92383M16.1149 5.92318L16.1156 14.6738M15.6982 5.08984C15.4649 5.08984 15.2822 5.27318 15.2822 5.50651V5.92383M15.6982 5.08984H7.78158C6.63158 5.08984 5.69824 6.02318 5.69824 7.17318V15.0905M15.2822 24.2559L7.78158 24.2565C7.08991 24.2565 6.53158 23.6982 6.53158 23.0065L6.53223 15.5072M15.2822 14.6738H16.1156M15.2822 14.6738V15.5072M15.2822 14.6738V5.92383M15.2822 14.6738H6.53223M16.1156 14.6738V15.5072H15.2822M15.2822 15.5072H6.53223M15.2822 5.92383L7.78158 5.92318C7.08991 5.92318 6.53158 6.48151 6.53158 7.17318L6.53223 14.6738M6.53223 14.6738V15.5072M6.53223 14.6738H6.11491C5.88158 14.6738 5.69824 14.8572 5.69824 15.0905M6.53223 15.5072H6.11491C5.88158 15.5072 5.69824 15.3238 5.69824 15.0905M10.6982 20.6732L11.6566 21.6315C11.7316 21.7148 11.8399 21.7565 11.9482 21.7565C12.0566 21.7565 12.1649 21.7148 12.2399 21.6315C12.4066 21.4732 12.4066 21.2065 12.2399 21.0482L11.2816 20.0898M10.6982 20.6732L11.2816 20.0898M10.6982 20.6732L10.1156 20.0905M10.6982 20.6732L9.74056 21.6315C9.66556 21.7148 9.55723 21.7565 9.44889 21.7565C9.34056 21.7565 9.23223 21.7148 9.15723 21.6315C8.99056 21.4732 8.99056 21.2065 9.15723 21.0482L10.1156 20.0905M11.2816 20.0898L12.2399 19.1322C12.4066 18.9738 12.4066 18.7072 12.2399 18.5488C12.0816 18.3822 11.8149 18.3822 11.6566 18.5488L10.6982 19.5072M11.2816 20.0898L10.6982 19.5072M10.6982 19.5072L10.1156 20.0905M10.6982 19.5072L9.74056 18.5488C9.58223 18.3822 9.31556 18.3822 9.15723 18.5488C8.99056 18.7072 8.99056 18.9738 9.15723 19.1322L10.1156 20.0905M11.1156 10.9238V12.1738C11.1156 12.4072 10.9322 12.5905 10.6989 12.5905C10.4656 12.5905 10.2822 12.4072 10.2822 12.1738V10.9238M11.1156 10.9238H10.2822M11.1156 10.9238V10.0898M10.2822 10.9238V10.0898M10.2822 10.0898H11.1156M10.2822 10.0898V8.84049C10.2822 8.60716 10.4656 8.42383 10.6989 8.42383C10.9322 8.42383 11.1156 8.60716 11.1156 8.84049V10.0898M22.3643 10.0898C22.5976 10.0898 22.7809 10.2732 22.7809 10.5065C22.7809 10.7398 22.5976 10.9232 22.3643 10.9232H19.0309C18.7976 10.9232 18.6143 10.7398 18.6143 10.5065C18.6143 10.2732 18.7976 10.0898 19.0309 10.0898H22.3643ZM22.3643 18.4238C22.5976 18.4238 22.7809 18.6072 22.7809 18.8405C22.7809 19.0738 22.5976 19.2572 22.3643 19.2572H19.0309C18.7976 19.2572 18.6143 19.0738 18.6143 18.8405C18.6143 18.6072 18.7976 18.4238 19.0309 18.4238H22.3643ZM22.3643 20.9238C22.5976 20.9238 22.7809 21.1072 22.7809 21.3405C22.7809 21.5738 22.5976 21.7572 22.3643 21.7572H19.0309C18.7976 21.7572 18.6143 21.5738 18.6143 21.3405C18.6143 21.1072 18.7976 20.9238 19.0309 20.9238H22.3643ZM12.3643 10.0898C12.5976 10.0898 12.7809 10.2732 12.7809 10.5065C12.7809 10.7398 12.5976 10.9232 12.3643 10.9232H11.1143V10.0898H12.3643ZM10.1123 20.0885L10.6957 19.5052L11.279 20.0885L10.6957 20.6719L10.1123 20.0885ZM10.2809 10.0898V10.9232H9.03092C8.79759 10.9232 8.61426 10.7398 8.61426 10.5065C8.61426 10.2732 8.79759 10.0898 9.03092 10.0898H10.2809Z" stroke="white" stroke-width="0.3"/>
</svg>
