<svg width="31" height="31" viewBox="0 0 31 31" fill="none" xmlns="http://www.w3.org/2000/svg">
<g clip-path="url(#clip0_2264_19678)">
<path d="M27.6264 24.9952C27.9193 25.2881 28.3942 25.2881 28.6871 24.9952C28.98 24.7023 28.98 24.2274 28.6871 23.9345L27.6264 24.9952ZM23.8537 19.1012C23.5608 18.8083 23.086 18.8083 22.7931 19.1012C22.5002 19.3941 22.5002 19.8689 22.7931 20.1618L23.8537 19.1012ZM25.1845 13.3537C25.1845 17.8487 21.5406 21.4926 17.0456 21.4926V22.9926C22.369 22.9926 26.6845 18.6771 26.6845 13.3537H25.1845ZM17.0456 21.4926C12.5506 21.4926 8.90674 17.8487 8.90674 13.3537H7.40674C7.40674 18.6771 11.7222 22.9926 17.0456 22.9926V21.4926ZM8.90674 13.3537C8.90674 8.85875 12.5506 5.21484 17.0456 5.21484V3.71484C11.7222 3.71484 7.40674 8.03032 7.40674 13.3537H8.90674ZM17.0456 5.21484C21.5406 5.21484 25.1845 8.85875 25.1845 13.3537H26.6845C26.6845 8.03032 22.369 3.71484 17.0456 3.71484V5.21484ZM28.6871 23.9345L23.8537 19.1012L22.7931 20.1618L27.6264 24.9952L28.6871 23.9345Z" fill="white"/>
<line x1="1.28174" y1="17.3398" x2="5.78174" y2="17.3398" stroke="white" stroke-width="1.5" stroke-linecap="round"/>
<line x1="1.28174" y1="5.33984" x2="5.78174" y2="5.33984" stroke="white" stroke-width="1.5" stroke-linecap="round"/>
<line x1="1.28174" y1="11.3398" x2="2.78174" y2="11.3398" stroke="white" stroke-width="1.5" stroke-linecap="round"/>
</g>
<defs>
<clipPath id="clip0_2264_19678">
<rect width="30" height="30" fill="white" transform="translate(0.0317383 0.0898438)"/>
</clipPath>
</defs>
</svg>
