<svg width="31" height="31" viewBox="0 0 31 31" fill="none" xmlns="http://www.w3.org/2000/svg">
<g clip-path="url(#clip0_2264_19686)">
<path d="M15.3623 23.0958C20.8851 23.0958 25.3623 19.065 25.3623 14.0928C25.3623 9.1206 20.8851 5.08984 15.3623 5.08984C9.83946 5.08984 5.3623 9.1206 5.3623 14.0928C5.3623 17.4251 7.3733 20.3346 10.3623 21.8913V25.0898L13.1304 22.8706C13.848 23.0179 14.5951 23.0958 15.3623 23.0958Z" stroke="white" stroke-width="1.5" stroke-linejoin="round"/>
<path d="M10.3623 15.0898C10.9146 15.0898 11.3623 14.6421 11.3623 14.0898C11.3623 13.5376 10.9146 13.0898 10.3623 13.0898C9.81002 13.0898 9.3623 13.5376 9.3623 14.0898C9.3623 14.6421 9.81002 15.0898 10.3623 15.0898Z" fill="white"/>
<path d="M15.3623 15.0898C15.9146 15.0898 16.3623 14.6421 16.3623 14.0898C16.3623 13.5376 15.9146 13.0898 15.3623 13.0898C14.81 13.0898 14.3623 13.5376 14.3623 14.0898C14.3623 14.6421 14.81 15.0898 15.3623 15.0898Z" fill="white"/>
<path d="M20.3623 15.0898C20.9146 15.0898 21.3623 14.6421 21.3623 14.0898C21.3623 13.5376 20.9146 13.0898 20.3623 13.0898C19.81 13.0898 19.3623 13.5376 19.3623 14.0898C19.3623 14.6421 19.81 15.0898 20.3623 15.0898Z" fill="white"/>
</g>
<defs>
<clipPath id="clip0_2264_19686">
<rect width="30" height="30" fill="white" transform="translate(0.364746 0.0898438)"/>
</clipPath>
</defs>
</svg>
