<svg width="31" height="31" viewBox="0 0 31 31" fill="none" xmlns="http://www.w3.org/2000/svg">
<path d="M5.37451 11.2614L4.91406 10.6694C4.73137 10.8115 4.62451 11.03 4.62451 11.2614H5.37451ZM15.3654 3.49072L15.8259 2.89871C15.555 2.68806 15.1758 2.68806 14.905 2.89871L15.3654 3.49072ZM25.3563 11.2614H26.1063C26.1063 11.03 25.9995 10.8115 25.8168 10.6694L25.3563 11.2614ZM5.37451 23.4725H4.62451H5.37451ZM11.2851 25.6927C11.2851 26.1069 11.6209 26.4427 12.0351 26.4427C12.4493 26.4427 12.7851 26.1069 12.7851 25.6927H11.2851ZM12.0351 14.5917V13.8417C11.6209 13.8417 11.2851 14.1775 11.2851 14.5917H12.0351ZM18.6957 14.5917H19.4457C19.4457 14.1775 19.1099 13.8417 18.6957 13.8417V14.5917ZM17.9457 25.6927C17.9457 26.1069 18.2815 26.4427 18.6957 26.4427C19.1099 26.4427 19.4457 26.1069 19.4457 25.6927H17.9457ZM5.83497 11.8534L15.8259 4.08274L14.905 2.89871L4.91406 10.6694L5.83497 11.8534ZM14.905 4.08274L24.8959 11.8534L25.8168 10.6694L15.8259 2.89871L14.905 4.08274ZM24.6063 11.2614V23.4725H26.1063V11.2614H24.6063ZM24.6063 23.4725C24.6063 23.8624 24.4514 24.2364 24.1757 24.5121L25.2364 25.5728C25.7934 25.0157 26.1063 24.2603 26.1063 23.4725H24.6063ZM24.1757 24.5121C23.9 24.7878 23.526 24.9427 23.1361 24.9427V26.4427C23.9239 26.4427 24.6793 26.1298 25.2364 25.5728L24.1757 24.5121ZM23.1361 24.9427H7.59471V26.4427H23.1361V24.9427ZM7.59471 24.9427C7.20479 24.9427 6.83084 24.7878 6.55512 24.5121L5.49446 25.5728C6.05148 26.1298 6.80696 26.4427 7.59471 26.4427V24.9427ZM6.55512 24.5121C6.27941 24.2364 6.12451 23.8624 6.12451 23.4725H4.62451C4.62451 24.2603 4.93744 25.0157 5.49446 25.5728L6.55512 24.5121ZM6.12451 23.4725V11.2614H4.62451V23.4725H6.12451ZM12.7851 25.6927V14.5917H11.2851V25.6927H12.7851ZM12.0351 15.3417H18.6957V13.8417H12.0351V15.3417ZM17.9457 14.5917V25.6927H19.4457V14.5917H17.9457Z" fill="white"/>
</svg>
