<svg width="25" height="26" viewBox="0 0 25 26" fill="none" xmlns="http://www.w3.org/2000/svg">
<mask id="mask0" mask-type="alpha" maskUnits="userSpaceOnUse" x="0" y="0" width="25" height="26">
<path d="M0.5 12.6729C0.5 6.04571 5.87286 0.672852 12.5 0.672852C19.1271 0.672852 24.5 6.04571 24.5 12.6729C24.5 19.3 19.1271 24.6729 12.5 24.6729C5.87286 24.6729 0.5 19.3 0.5 12.6729Z" fill="#C4C4C4" stroke="white"/>
</mask>
<g mask="url(#mask0)">
<path d="M1.63042 1.90853C-0.328132 3.94289 0.0727173 6.10395 0.0727173 12.6692C0.0727173 18.1211 -0.878521 23.5866 4.0999 24.8733C5.65449 25.2731 19.4288 25.2731 20.9813 24.8712C23.0541 24.3364 24.7405 22.6551 24.9711 19.7235C25.0033 19.3143 25.0033 6.03125 24.97 5.61379C24.725 2.49111 22.8027 0.691439 20.2699 0.326936C19.6894 0.24282 19.5731 0.217897 16.5948 0.212704C6.03042 0.217897 3.71463 -0.25253 1.63042 1.90853Z" fill="url(#paint0_linear)"/>
</g>
<path d="M12.4997 5.53691C9.5763 5.53691 6.80025 5.27686 5.73991 7.99816C5.30192 9.12211 5.36553 10.5818 5.36553 12.6719C5.36553 14.5059 5.30675 16.2297 5.73991 17.3448C6.79783 20.0677 9.59643 19.8068 12.4981 19.8068C15.2975 19.8068 18.1838 20.0983 19.2571 17.3448C19.6958 16.2096 19.6314 14.7716 19.6314 12.6719C19.6314 9.88456 19.7852 8.08512 18.4334 6.73413C17.0647 5.36542 15.2137 5.53691 12.4965 5.53691H12.4997ZM11.8604 6.82269C17.9584 6.81303 18.7345 6.13512 18.3062 15.5526C18.154 18.8834 15.6179 18.5178 12.5005 18.5178C6.81635 18.5178 6.65291 18.3552 6.65291 12.6687C6.65291 6.91608 7.10378 6.82591 11.8604 6.82108V6.82269ZM16.3079 8.00702C15.8353 8.00702 15.4521 8.39026 15.4521 8.86286C15.4521 9.33547 15.8353 9.7187 16.3079 9.7187C16.7805 9.7187 17.1637 9.33547 17.1637 8.86286C17.1637 8.39026 16.7805 8.00702 16.3079 8.00702ZM12.4997 9.00778C10.4764 9.00778 8.8364 10.6486 8.8364 12.6719C8.8364 14.6951 10.4764 16.3352 12.4997 16.3352C14.523 16.3352 16.1622 14.6951 16.1622 12.6719C16.1622 10.6486 14.523 9.00778 12.4997 9.00778ZM12.4997 10.2936C15.6437 10.2936 15.6477 15.0502 12.4997 15.0502C9.3565 15.0502 9.35167 10.2936 12.4997 10.2936Z" fill="white"/>
<defs>
<linearGradient id="paint0_linear" x1="1.67821" y1="23.5441" x2="24.8418" y2="3.49632" gradientUnits="userSpaceOnUse">
<stop stop-color="#FFDD55"/>
<stop offset="0.5" stop-color="#FF543E"/>
<stop offset="1" stop-color="#C837AB"/>
</linearGradient>
</defs>
</svg>
