<svg width="31" height="31" viewBox="0 0 31 31" fill="none" xmlns="http://www.w3.org/2000/svg">
<g clip-path="url(#clip0_2282_19580)">
<path d="M15.2814 12.5209C16.7137 12.5156 17.8544 11.3651 17.8492 9.9298C17.844 8.49387 16.7008 7.35133 15.2679 7.3501C13.8231 7.34856 12.6692 8.51228 12.6803 9.9611C12.691 11.3912 13.8446 12.5261 15.2814 12.5209Z" fill="#FF8500"/>
<path d="M15.2677 0.0898438C6.98388 0.0898438 0.268555 6.80548 0.268555 15.089C0.268555 23.3725 6.98388 30.0882 15.2677 30.0882C23.5516 30.0882 30.2669 23.3725 30.2669 15.089C30.2669 6.80548 23.5516 0.0898438 15.2677 0.0898438ZM15.2892 4.65112C18.2108 4.6591 20.5557 7.04884 20.5407 10.0026C20.5259 12.8883 18.1426 15.2271 15.226 15.2173C12.3391 15.2075 9.97144 12.814 9.98863 9.92254C10.0049 6.99943 12.3738 4.64314 15.2892 4.65112ZM21.2066 17.2931C20.5606 17.9563 19.783 18.4362 18.9194 18.7711C18.1031 19.0875 17.2085 19.2467 16.3228 19.3529C16.4569 19.4984 16.5198 19.5699 16.6033 19.6534C17.8051 20.8616 19.0127 22.0637 20.2105 23.2753C20.6186 23.6883 20.7036 24.2002 20.479 24.6799C20.2338 25.2047 19.6835 25.5496 19.1437 25.5125C18.8018 25.4888 18.5352 25.3191 18.2985 25.0807C17.3914 24.168 16.467 23.2716 15.5789 22.3417C15.3196 22.071 15.1956 22.1226 14.967 22.3577C14.0546 23.2973 13.1272 24.222 12.1945 25.1417C11.7756 25.5548 11.2772 25.6297 10.7911 25.3934C10.2746 25.1436 9.94628 24.616 9.97144 24.0854C9.98924 23.7276 10.1654 23.4532 10.4115 23.2083C11.6013 22.021 12.7874 20.83 13.9739 19.6399C14.0527 19.561 14.1258 19.4772 14.2403 19.3544C12.622 19.1854 11.1628 18.787 9.91344 17.8102C9.75815 17.6887 9.59826 17.5714 9.4571 17.4352C8.90991 16.9101 8.85498 16.3083 9.28739 15.689C9.6578 15.1587 10.2789 15.0169 10.9249 15.3216C11.0502 15.3802 11.1692 15.4545 11.2834 15.5331C13.6114 17.1329 16.8098 17.1768 19.1471 15.6046C19.3785 15.4278 19.6261 15.2823 19.9131 15.209C20.4704 15.0654 20.9909 15.2707 21.2898 15.7586C21.632 16.3163 21.628 16.8601 21.2066 17.2931Z" fill="#FF8500"/>
<path d="M9.14063 15.8601C8.62455 16.9026 9.21051 17.4009 10.5474 18.2522C11.684 18.9738 13.2541 19.2376 14.2627 19.3432C13.8493 19.7515 15.7436 17.8794 10.2881 23.2718C9.13137 24.4112 10.9936 26.2392 12.1496 25.1241L15.2789 22.0225C16.4769 23.2069 17.6252 24.342 18.4082 25.1284C19.5649 26.2479 21.4264 24.4354 20.2822 23.2761C20.1964 23.1922 16.0416 19.0966 16.295 19.3475C17.3162 19.242 18.8628 18.9625 19.9859 18.2566L19.985 18.2557C21.322 17.4001 21.9079 16.9026 21.3994 15.8601C21.0921 15.2684 20.2637 14.7735 19.1608 15.6291C19.1608 15.6291 17.6715 16.8014 15.2696 16.8014C12.8668 16.8014 11.3784 15.6291 11.3784 15.6291C10.2763 14.7692 9.44455 15.2684 9.14063 15.8601Z" fill="white"/>
<path d="M15.2677 15.2214C18.1958 15.2214 20.5867 12.8699 20.5867 9.97515C20.5867 7.06826 18.1958 4.7168 15.2677 4.7168C12.3387 4.7168 9.94775 7.06826 9.94775 9.97515C9.94775 12.8699 12.3387 15.2214 15.2677 15.2214ZM15.2677 7.38058C16.7065 7.38058 17.8801 8.54074 17.8801 9.97515C17.8801 11.3974 16.7065 12.5576 15.2677 12.5576C13.8289 12.5576 12.6553 11.3974 12.6553 9.97515C12.6544 8.53987 13.828 7.38058 15.2677 7.38058Z" fill="white"/>
</g>
<defs>
<clipPath id="clip0_2282_19580">
<rect width="29.9983" height="29.9983" fill="white" transform="translate(0.268555 0.0898438)"/>
</clipPath>
</defs>
</svg>
