<svg width="40" height="40" viewBox="0 0 40 40" fill="none" xmlns="http://www.w3.org/2000/svg">
<path d="M20 40C31.0457 40 40 31.0457 40 20C40 8.9543 31.0457 0 20 0C8.9543 0 0 8.9543 0 20C0 31.0457 8.9543 40 20 40Z" fill="#2C2B3F"/>
<path d="M31.4195 28.0696C30.937 29.4321 29.022 30.5621 27.4945 30.8921C26.4495 31.1146 25.0845 31.2921 20.4895 29.3871C14.612 26.9521 10.827 20.9796 10.532 20.5921C10.2495 20.2046 8.15698 17.4296 8.15698 14.5596C8.15698 11.6896 9.61448 10.2921 10.202 9.69211C10.6845 9.19961 11.482 8.97461 12.247 8.97461C12.4945 8.97461 12.717 8.98711 12.917 8.99711C13.5045 9.02211 13.7995 9.05711 14.187 9.98461C14.6695 11.1471 15.8445 14.0171 15.9845 14.3121C16.127 14.6071 16.2695 15.0071 16.0695 15.3946C15.882 15.7946 15.717 15.9721 15.422 16.3121C15.127 16.6521 14.847 16.9121 14.552 17.2771C14.282 17.5946 13.977 17.9346 14.317 18.5221C14.657 19.0971 15.832 21.0146 17.562 22.5546C19.7945 24.5421 21.6045 25.1771 22.252 25.4471C22.7345 25.6471 23.3095 25.5996 23.662 25.2246C24.1095 24.7421 24.662 23.9421 25.2245 23.1546C25.6245 22.5896 26.1295 22.5196 26.6595 22.7196C27.1995 22.9071 30.057 24.3196 30.6445 24.6121C31.232 24.9071 31.6195 25.0471 31.762 25.2946C31.902 25.5421 31.902 26.7046 31.4195 28.0696Z" fill="white"/>
</svg>
