<svg width="40" height="40" viewBox="0 0 40 40" fill="none" xmlns="http://www.w3.org/2000/svg">
<path d="M20 40C31.0457 40 40 31.0457 40 20C40 8.9543 31.0457 0 20 0C8.9543 0 0 8.9543 0 20C0 31.0457 8.9543 40 20 40Z" fill="#039BE5"/>
<path d="M9.15113 19.5655L28.4345 12.1305C29.3295 11.8072 30.1111 12.3489 29.8211 13.7022L29.8228 13.7005L26.5395 29.1689C26.2961 30.2655 25.6445 30.5322 24.7328 30.0155L19.7328 26.3305L17.3211 28.6539C17.0545 28.9205 16.8295 29.1455 16.3128 29.1455L16.6678 24.0572L25.9345 15.6855C26.3378 15.3305 25.8445 15.1305 25.3128 15.4839L13.8611 22.6939L8.92446 21.1539C7.85279 20.8139 7.82946 20.0822 9.15113 19.5655V19.5655Z" fill="white"/>
</svg>
