<svg width="25" height="26" viewBox="0 0 25 26" fill="none" xmlns="http://www.w3.org/2000/svg">
<g clip-path="url(#clip0)">
<path d="M12.5 25.1729C19.4036 25.1729 25 19.5764 25 12.6729C25 5.76929 19.4036 0.172852 12.5 0.172852C5.59644 0.172852 0 5.76929 0 12.6729C0 19.5764 5.59644 25.1729 12.5 25.1729Z" fill="#4D76A1"/>
<path fill-rule="evenodd" clip-rule="evenodd" d="M12.0275 18.1552H13.0086C13.0086 18.1552 13.305 18.1227 13.4563 17.9596C13.5956 17.8099 13.5911 17.5287 13.5911 17.5287C13.5911 17.5287 13.5719 16.2122 14.1829 16.0184C14.7852 15.8274 15.5586 17.2907 16.3784 17.8533C16.9983 18.2791 17.4694 18.1858 17.4694 18.1858L19.6613 18.1552C19.6613 18.1552 20.8079 18.0846 20.2642 17.1831C20.2197 17.1093 19.9476 16.5161 18.6345 15.2973C17.2601 14.0216 17.4442 14.228 19.0998 12.0213C20.108 10.6775 20.5111 9.85704 20.3852 9.50564C20.2651 9.17096 19.5236 9.25942 19.5236 9.25942L17.0556 9.2748C17.0556 9.2748 16.8726 9.24984 16.7369 9.33095C16.6044 9.4105 16.519 9.59589 16.519 9.59589C16.519 9.59589 16.1284 10.6358 15.6074 11.5202C14.5085 13.3864 14.0691 13.4848 13.8895 13.369C13.4717 13.0989 13.576 12.284 13.576 11.7051C13.576 9.8967 13.8502 9.14266 13.0418 8.94747C12.7736 8.88263 12.5761 8.83985 11.8901 8.83294C11.0095 8.8238 10.2641 8.83561 9.84208 9.04239C9.56132 9.17988 9.34474 9.48626 9.47665 9.50386C9.63976 9.5257 10.0092 9.60347 10.2051 9.87019C10.458 10.2142 10.4491 10.987 10.4491 10.987C10.4491 10.987 10.5943 13.1158 10.1097 13.3803C9.77702 13.5617 9.32067 13.1914 8.34091 11.4984C7.83889 10.6311 7.45987 9.67254 7.45987 9.67254C7.45987 9.67254 7.38678 9.49339 7.25643 9.39757C7.09822 9.28148 6.87718 9.2445 6.87718 9.2445L4.53195 9.25987C4.53195 9.25987 4.17989 9.26967 4.05065 9.42275C3.93568 9.5589 4.04152 9.84055 4.04152 9.84055C4.04152 9.84055 5.87759 14.1362 7.95654 16.3009C9.8628 18.2856 12.0275 18.1552 12.0275 18.1552Z" fill="white"/>
</g>
<defs>
<clipPath id="clip0">
<rect width="25" height="25" fill="white" transform="translate(0 0.172852)"/>
</clipPath>
</defs>
</svg>
