<svg width="26" height="26" viewBox="0 0 26 26" fill="none" xmlns="http://www.w3.org/2000/svg">
<path d="M13.4028 0.172852H13.3965C6.44873 0.172852 0.798828 5.7791 0.798828 12.6729C0.798828 15.4072 1.68719 17.9416 3.19771 19.9994L1.62733 24.6432L6.47078 23.1072C8.46329 24.4166 10.8401 25.1729 13.4028 25.1729C20.3506 25.1729 26.0005 19.565 26.0005 12.6729C26.0005 5.78066 20.3506 0.172852 13.4028 0.172852Z" fill="#4CAF50"/>
<path d="M20.7345 17.7164C20.4305 18.5679 19.2239 19.2742 18.2616 19.4804C17.6032 19.6195 16.7432 19.7304 13.8481 18.5398C10.145 17.0179 7.76034 13.2851 7.57447 13.0429C7.39649 12.8007 6.07812 11.0664 6.07812 9.27261C6.07812 7.47886 6.99641 6.60542 7.36656 6.23042C7.67056 5.92261 8.17301 5.78198 8.655 5.78198C8.81093 5.78198 8.95112 5.7898 9.07712 5.79605C9.44727 5.81167 9.63314 5.83355 9.87728 6.41323C10.1813 7.1398 10.9216 8.93355 11.0098 9.11792C11.0996 9.30229 11.1893 9.5523 11.0633 9.79448C10.9452 10.0445 10.8412 10.1554 10.6554 10.3679C10.4695 10.5804 10.2931 10.7429 10.1072 10.971C9.93713 11.1695 9.74497 11.382 9.95918 11.7492C10.1734 12.1085 10.9137 13.307 12.0037 14.2695C13.4102 15.5117 14.5506 15.9085 14.9586 16.0773C15.2626 16.2023 15.6248 16.1726 15.8469 15.9382C16.1289 15.6367 16.477 15.1367 16.8314 14.6445C17.0834 14.2914 17.4016 14.2476 17.7355 14.3726C18.0757 14.4898 19.876 15.3726 20.2462 15.5554C20.6163 15.7398 20.8605 15.8273 20.9503 15.982C21.0385 16.1367 21.0385 16.8632 20.7345 17.7164Z" fill="#FAFAFA"/>
</svg>
