<svg width="75" height="56" viewBox="0 0 75 56" fill="none" xmlns="http://www.w3.org/2000/svg">
<path fill-rule="evenodd" clip-rule="evenodd" d="M6.18243 54.8819C4.15573 53.5991 2.0845 52.5217 0.189481 50.5797C-0.00815482 50.3845 -0.0876489 49.8244 0.150646 49.7291C1.96592 48.7434 3.75213 47.7116 5.66819 47.162C5.98786 47.0775 6.26111 47.7478 6.03447 48.0982C5.60636 48.7603 5.20733 49.4685 4.86448 50.2263L4.90915 51.2046C5.40716 52.0738 6.12997 53.1416 6.49819 54.1204C6.68036 54.5673 6.48861 55.0915 6.18243 54.8819Z" fill="#FA1E4E"/>
<path d="M3.97402 51.7435C52.048 60.9538 63.9326 59.6685 74.6681 0.550556C62.6599 55.3952 51.9412 58.748 3.86763 49.5378L3.97402 51.7435Z" fill="#FA1E4E"/>
</svg>
