<svg width="136" height="121" viewBox="0 0 136 121" fill="none" xmlns="http://www.w3.org/2000/svg">
<path d="M12.6158 13.2232C19.3104 5.96233 28.4903 1.96289 38.4928 1.96289C45.9396 1.96289 52.7485 4.30993 58.7674 8.96497L58.7675 8.96503C61.8138 11.3207 64.5865 14.2133 67.0385 17.604L68.254 19.2847L69.4695 17.6041C71.9225 14.2122 74.6943 11.3206 77.7397 8.96488C83.7596 4.30987 90.5685 1.96289 98.0153 1.96289C108.018 1.96289 117.197 5.96224 123.891 13.2232C130.512 20.4049 134.194 30.2559 134.194 40.9973C134.194 51.9746 130.124 62.0891 121.163 72.9019L121.162 72.902C113.099 82.6321 101.48 92.54 87.8591 104.147L87.859 104.147L87.7436 104.245C83.1305 108.177 77.9029 112.633 72.4787 117.376L72.478 117.377C71.3114 118.399 69.8105 118.963 68.254 118.963C66.6969 118.963 65.197 118.399 64.0281 117.375L64.0271 117.374C58.5626 112.597 53.3007 108.112 48.6644 104.16L48.6521 104.15L48.652 104.15C35.0295 92.5411 23.41 82.6322 15.3466 72.903C6.38478 62.089 2.31396 51.9745 2.31396 40.9983C2.31396 30.2559 5.99595 20.405 12.6158 13.2232ZM12.6158 13.2232L11.513 12.2065L12.6158 13.2232Z" stroke="#F6F6F6" stroke-width="3"/>
</svg>
