<svg width="27" height="26" viewBox="0 0 27 26" fill="none" xmlns="http://www.w3.org/2000/svg">
<path d="M26.4568 15.867C26.4568 15.2159 26.1979 14.6093 25.7515 14.1618C26.2575 13.6083 26.5153 12.8661 26.4449 12.0938C26.3181 10.7168 25.0777 9.63782 23.6195 9.63782H16.9278C17.2593 8.63139 17.7901 6.78651 17.7901 5.30451C17.7901 2.95476 15.7935 0.971191 14.5401 0.971191C13.4156 0.971191 12.6107 1.60494 12.5771 1.63094C12.4482 1.73388 12.3734 1.88987 12.3734 2.05451V5.72807L9.25235 12.487L9.12342 12.5531V12.3461C9.12342 12.0471 8.88074 11.8045 8.58174 11.8045H3.1651C1.67122 11.8045 0.456787 13.0189 0.456787 14.5128V23.1795C0.456787 24.6734 1.67122 25.8878 3.1651 25.8878H6.4151C7.58617 25.8878 8.58717 25.1403 8.96417 24.0971C9.86554 24.5608 11.0789 24.8045 11.8318 24.8045H21.7757C22.9555 24.8045 23.9879 24.0093 24.2305 22.913C24.3551 22.3475 24.2825 21.7788 24.0355 21.2848C24.835 20.8828 25.3735 20.0563 25.3735 19.117C25.3735 18.7335 25.2857 18.3663 25.12 18.0348C25.9195 17.6318 26.4568 16.8063 26.4568 15.867ZM24.172 17.2038C23.963 17.2288 23.7864 17.3706 23.7192 17.5711C23.6532 17.7715 23.7084 17.9914 23.8622 18.1366C24.1374 18.3955 24.2902 18.7443 24.2902 19.117C24.2902 19.8006 23.7734 20.3748 23.0898 20.4538C22.8808 20.4788 22.7042 20.6206 22.637 20.8211C22.571 21.0215 22.6262 21.2414 22.78 21.3866C23.1365 21.7224 23.2795 22.1936 23.1722 22.679C23.039 23.2835 22.4518 23.7212 21.7758 23.7212H11.8318C10.9521 23.7212 9.4766 23.3084 8.96529 22.796C8.81035 22.6422 8.57635 22.5967 8.37485 22.679C8.17229 22.7624 8.0401 22.9607 8.0401 23.1795C8.0401 24.0754 7.31104 24.8045 6.4151 24.8045H3.1651C2.26917 24.8045 1.5401 24.0754 1.5401 23.1795V14.5128C1.5401 13.6169 2.26917 12.8878 3.1651 12.8878H8.0401V13.4295C8.0401 13.6169 8.1376 13.7913 8.29792 13.891C8.4561 13.9863 8.65542 13.9961 8.82442 13.9138L9.90774 13.3721C10.0172 13.3179 10.1049 13.2269 10.1569 13.1153L13.4069 6.07364C13.4394 6.00214 13.4567 5.92414 13.4567 5.84614V2.34807C13.6821 2.22351 14.0732 2.05451 14.5401 2.05451C15.1338 2.05451 16.7068 3.53001 16.7068 5.30451C16.7068 7.21119 15.669 9.95957 15.6592 9.98669C15.5964 10.1524 15.618 10.3399 15.7188 10.4872C15.8206 10.6334 15.9875 10.7212 16.1651 10.7212H23.6195C24.523 10.7212 25.29 11.3679 25.3659 12.1934C25.4233 12.8109 25.1264 13.3981 24.5945 13.7264C24.4288 13.8282 24.3302 14.0124 24.3378 14.2084C24.3454 14.4045 24.458 14.58 24.6314 14.6699C25.0896 14.9029 25.3734 15.3622 25.3734 15.867C25.3735 16.5506 24.8567 17.1248 24.172 17.2038Z" fill="#687798"/>
<path d="M8.58172 12.8872C8.28272 12.8872 8.04004 13.1299 8.04004 13.4289V23.1789C8.04004 23.4779 8.28272 23.7206 8.58172 23.7206C8.88072 23.7206 9.12341 23.4779 9.12341 23.1789V13.4289C9.12341 13.1299 8.88072 12.8872 8.58172 12.8872Z" fill="#687798"/>
</svg>
