<svg width="28" height="28" viewBox="0 0 28 28" fill="none" xmlns="http://www.w3.org/2000/svg">
<path d="M6.2009 6.92134C9.33807 4.32361 15.1585 2.02762 25.8737 1.89429C23.2013 4.71117 21.357 8.21912 20.5553 12.0318C20.1237 13.9945 19.5415 16.5945 18.1986 18.7117C16.8978 20.7626 14.8983 22.3427 11.5017 22.3427C8.69192 22.3427 6.43126 21.5113 4.88751 20.1492C3.35472 18.7967 2.4563 16.8599 2.4563 14.4791C2.4563 12.6456 3.00406 9.56848 6.2009 6.92134Z" stroke="#B3D467" stroke-width="2"/>
<path d="M2.04723 26.8884C1.72088 26.8884 1.4563 26.6239 1.4563 26.2975C1.4563 22.784 7.54856 11.5106 17.1532 6.85661C17.4469 6.71435 17.8004 6.83705 17.9427 7.13077C18.0849 7.42449 17.9622 7.77793 17.6685 7.92025C7.9693 12.6204 2.6381 23.5357 2.6381 26.2976C2.6381 26.6239 2.37357 26.8884 2.04723 26.8884Z" fill="#B3D467" stroke="#B3D467"/>
</svg>
