<svg width="25" height="29" viewBox="0 0 25 29" fill="none" xmlns="http://www.w3.org/2000/svg">
<path d="M13.8387 16.4261L12.7791 15.3666L12.9901 16.8501C13.1806 18.1891 12.6461 19.1081 11.9727 20.0579C11.9021 20.1576 11.8287 20.2588 11.7539 20.3618C11.1469 21.1983 10.4521 22.1557 10.4479 23.3953C10.4095 24.2994 10.692 25.1704 11.2201 25.8687C7.95 24.7015 5.79199 21.7113 5.79199 18.4005C5.79199 16.0172 7.21556 14.1689 8.86485 12.0762L8.87227 12.0667L8.87923 12.057L11.2934 8.67166L11.3046 8.65597L11.3145 8.63946C12.5756 6.54718 12.9939 4.06069 12.4976 1.68137C13.7393 2.79902 14.922 3.98064 16.0409 5.22146L16.0409 5.22147L16.0437 5.22456C17.3494 6.64829 18.0694 8.51248 18.0597 10.4442H18.0597L18.0597 10.4508C18.0726 12.032 17.8136 13.6037 17.2941 15.0971C17.1469 15.5205 17.0922 15.9059 17.1975 16.231C17.3186 16.6048 17.6092 16.7851 17.8776 16.8487C18.1195 16.9061 18.3587 16.8769 18.5073 16.8485C18.5874 16.8333 18.6556 16.8154 18.7046 16.8011C18.7292 16.7939 18.7496 16.7875 18.7647 16.7825L18.7834 16.7761L18.7898 16.7739L18.7922 16.773L18.7932 16.7727L18.7936 16.7725C18.7938 16.7724 18.794 16.7724 18.6234 16.3024L18.794 16.7724L18.821 16.7626L18.8466 16.7498C19.8734 16.2374 21.1424 15.475 21.885 14.3334C23.3441 16.8647 22.9893 20.6904 20.7619 23.3493L16.7558 19.3432C16.7553 19.3427 16.7547 19.3422 16.7542 19.3417L13.8387 16.4261ZM18.145 22.1467L20.0744 24.076C19.293 24.8097 18.3864 25.3839 17.4058 25.7765C17.9647 25.0303 18.3067 24.096 18.2659 23.1959L18.2658 23.1947C18.2491 22.8457 18.2102 22.494 18.145 22.1467Z" stroke="#FF5422"/>
<rect x="1.47868" y="6.76025" width="2.03047" height="29.7746" transform="rotate(-45 1.47868 6.76025)" fill="#FF5422" stroke="white"/>
</svg>
