<svg width="27" height="27" viewBox="0 0 27 27" fill="none" xmlns="http://www.w3.org/2000/svg">
<path d="M0.456055 0.989306C0.523153 0.847736 0.61034 0.721203 0.768231 0.675187C0.972809 0.615565 1.17224 0.612909 1.33674 0.781816C1.36337 0.809152 1.39201 0.834509 1.41901 0.861497C3.97183 3.41372 6.52452 5.96609 9.07707 8.51858C9.09809 8.5396 9.11504 8.56468 9.14047 8.59594C9.25769 8.4156 9.36701 8.24988 9.47389 8.0826C10.0813 7.13185 10.6509 6.15962 11.1374 5.14057C11.6052 4.16065 11.9963 3.15255 12.2335 2.09024C12.3034 1.77706 12.3476 1.45822 12.4106 1.14338C12.4282 1.05028 12.4602 0.960503 12.5056 0.877299C12.6236 0.668656 12.8531 0.592685 13.0848 0.672734C13.3384 0.760344 13.4826 0.967773 13.4534 1.20376C13.3481 2.03044 13.1601 2.84448 12.8923 3.63365C12.4883 4.84018 11.9522 5.98814 11.3174 7.08807C10.882 7.84251 10.4112 8.57652 9.95619 9.31966C9.94782 9.33334 9.93965 9.34714 9.93608 9.35309C14.222 13.6382 18.5073 17.9226 22.7918 22.2063C22.7966 22.1265 22.8051 22.0439 22.8059 21.9612C22.8113 21.4333 23.3238 21.3435 23.6071 21.5042C23.7855 21.6054 23.8568 21.7732 23.8446 21.9663C23.8212 22.3384 23.785 22.7099 23.7464 23.0808C23.7394 23.1484 23.7504 23.1906 23.7977 23.2378C24.621 24.0582 25.4433 24.8797 26.2646 25.7023C26.4686 25.9064 26.5108 26.1436 26.3853 26.3699C26.3471 26.4378 26.2943 26.4963 26.2307 26.5413C26.1671 26.5864 26.0943 26.6167 26.0175 26.6301C25.9408 26.6436 25.862 26.6398 25.7869 26.6191C25.7118 26.5984 25.6422 26.5613 25.5832 26.5104C25.5503 26.4818 25.5194 26.4508 25.4886 26.4199C17.234 18.1671 8.9798 9.91377 0.7261 1.65998C0.626614 1.56048 0.54566 1.44246 0.456055 1.33308V0.989306Z" fill="#687798"/>
<path d="M22.1969 24.462C22.415 24.696 22.6342 24.9313 22.8546 25.1678C22.6393 25.4761 22.3714 25.7441 22.0631 25.9595C21.573 26.3019 21.0257 26.4962 20.4366 26.575C20.2344 26.6021 20.0298 26.6135 19.8259 26.6254C19.3639 26.6524 18.9264 26.5495 18.5108 26.3549C17.9587 26.0964 17.4522 25.763 16.961 25.4034C16.3708 24.9713 15.7223 24.669 14.9934 24.5538C14.6048 24.4954 14.2111 24.4792 13.819 24.5056C13.1101 24.5474 12.4289 24.7261 11.7471 24.9094C10.6456 25.2058 9.52336 25.307 8.38508 25.2356C7.43505 25.176 6.51241 24.9917 5.63069 24.6262C4.76298 24.2665 4.00201 23.7576 3.41802 23.0097C2.91508 22.3656 2.62896 21.6363 2.56699 20.8195C2.50387 19.9877 2.67619 19.1938 2.95029 18.4166C3.20561 17.6928 3.54847 17.0094 3.9277 16.3437C4.60847 15.1485 5.39819 14.0254 6.19743 12.9083C6.76181 12.1195 7.3182 11.325 7.87846 10.5332C7.93016 10.4601 7.98406 10.3886 8.03443 10.3198L8.76648 11.0528C8.56396 11.341 8.3594 11.6395 8.14729 11.9325C7.29084 13.1156 6.42354 14.2911 5.62655 15.516C5.13895 16.2653 4.67852 17.0304 4.29745 17.8406C4.0128 18.4459 3.77521 19.0673 3.65709 19.729C3.55106 20.3229 3.55178 20.9124 3.75182 21.489C3.9819 22.1521 4.40592 22.6706 4.96648 23.0829C5.62239 23.5654 6.36343 23.8555 7.15072 24.0362C7.97521 24.2254 8.81068 24.2747 9.65402 24.2234C10.4471 24.1751 11.2155 24.0056 11.9773 23.7878C12.7829 23.5574 13.6052 23.4275 14.4467 23.4497C15.4085 23.4704 16.3462 23.7545 17.1576 24.2711C17.5814 24.5383 17.9905 24.8287 18.4082 25.1059C18.6972 25.2977 18.9953 25.4718 19.339 25.551C19.5683 25.6038 19.7994 25.5949 20.0309 25.5778C20.4866 25.5441 20.924 25.4431 21.3296 25.2247C21.6508 25.0533 21.929 24.8115 22.1434 24.5173C22.1546 24.5019 22.1664 24.4869 22.1787 24.4723C22.1842 24.468 22.1903 24.4645 22.1969 24.462Z" fill="#687798"/>
</svg>
