<svg width="29" height="27" viewBox="0 0 29 27" fill="none" xmlns="http://www.w3.org/2000/svg">
<path d="M7.53491 0.388184C7.59153 0.596987 7.63938 0.799029 7.7012 0.99662C7.89046 1.60157 8.13927 2.18306 8.42093 2.74862C8.97801 3.8672 9.55304 4.97667 10.11 6.09532C10.5588 6.99677 11.0047 7.90009 11.4282 8.8138C11.8401 9.70263 12.188 10.618 12.4396 11.5686C12.6459 12.3479 12.7385 13.1367 12.6712 13.9427C12.5935 14.8746 12.3601 15.7558 11.848 16.5475C11.4547 17.1557 10.9389 17.6372 10.3396 18.0322C9.71608 18.4432 9.03711 18.7385 8.34421 19.0045C8.33152 19.007 8.31864 19.0083 8.30571 19.0084C8.32952 18.9752 8.34704 18.949 8.3662 18.9242C9.03484 18.0578 9.51569 17.0984 9.77322 16.0284C9.92544 15.4007 9.99276 14.7551 9.97335 14.1092C9.92048 12.3824 9.37259 10.8293 8.35342 9.44482C8.10161 9.10273 7.81459 8.78855 7.49715 8.50757C7.47823 8.49081 7.45825 8.47529 7.42139 8.44485C7.46086 8.5845 7.49452 8.7048 7.52886 8.82491C7.74495 9.57603 7.89523 10.3449 7.97798 11.1226C8.05247 11.8319 8.06784 12.5427 7.9805 13.2522C7.9207 13.738 7.82535 14.217 7.59031 14.6519C7.51089 14.7996 7.41084 14.9351 7.29322 15.054C7.06083 15.2862 6.77497 15.3066 6.4941 15.1335C6.26928 14.9949 6.10592 14.7945 5.96226 14.5767C5.64961 14.1027 5.43747 13.5808 5.26807 13.0418C5.14188 12.6402 5.03869 12.2314 4.92503 11.8258C4.9199 11.8075 4.91242 11.7899 4.89777 11.7487C4.76378 12.0058 4.63304 12.242 4.51553 12.4847C4.04846 13.4496 3.73976 14.4655 3.56307 15.5236C3.40405 16.4997 3.34642 17.4899 3.39113 18.4781C3.44169 19.6279 3.59904 20.7703 3.86111 21.8905C4.16014 23.1903 4.56763 24.4542 5.11564 25.6699C5.21613 25.8928 5.33566 26.107 5.44637 26.3253C5.45786 26.344 5.46173 26.3666 5.45717 26.3882C5.33938 26.2934 5.21974 26.2009 5.10411 26.1036C4.00921 25.1818 3.13202 24.0775 2.42381 22.8331C1.60808 21.3998 1.05001 19.868 0.7071 18.2532C0.458606 17.0789 0.361175 15.8771 0.417219 14.6777C0.448673 13.9043 0.51966 13.1331 0.629896 12.3671C0.765864 11.4443 0.965824 10.5324 1.2283 9.63794C1.56718 8.47807 2.01412 7.35321 2.56316 6.27844C3.41123 4.62374 4.46451 3.11819 5.77858 1.80483C6.29039 1.29329 6.83458 0.820576 7.44975 0.437025C7.47611 0.42059 7.50363 0.406056 7.53491 0.388184Z" fill="#FF5422"/>
<path d="M12.6699 20.9414L27.3309 13.4755C27.5287 13.3748 27.7581 13.3575 27.9685 13.4275C28.179 13.4975 28.3532 13.649 28.453 13.8487L13.0462 21.6944L12.6699 20.9414Z" fill="#F79C16"/>
<path d="M13.0554 21.6875L28.4552 13.8454L28.4553 13.8455C28.5174 13.9699 28.5281 14.1141 28.4849 14.2464C28.4417 14.3786 28.3483 14.4882 28.2251 14.5509L13.2898 22.1565L13.0554 21.6875Z" fill="#FFB426"/>
<path d="M11.5868 24.6311C13.1223 23.8492 13.9252 22.3312 13.3803 21.2407C12.8353 20.1501 11.1488 19.8999 9.61327 20.6818C8.07778 21.4638 7.27479 22.9817 7.81975 24.0723C8.36471 25.1629 10.0513 25.4131 11.5868 24.6311Z" fill="#F79C16"/>
<path d="M11.7686 24.5061C13.2253 23.7643 13.9898 22.3298 13.4762 21.3021C12.9626 20.2743 11.3654 20.0425 9.90877 20.7843C8.45211 21.5261 7.68758 22.9606 8.20115 23.9883C8.71473 25.0161 10.3119 25.2479 11.7686 24.5061Z" fill="#FF5422"/>
</svg>
