<svg width="62" height="22" viewBox="0 0 62 22" fill="none" xmlns="http://www.w3.org/2000/svg">
<path d="M21.2168 15.6467H1.2168M1.2168 15.6467L5.39369 19.1816M1.2168 15.6467L5.39369 12.1113" stroke="#687798" stroke-width="0.3" stroke-linecap="square"/>
<path d="M41.2168 15.6467H61.2168M61.2168 15.6467L57.0399 19.1816M61.2168 15.6467L57.0399 12.1113" stroke="#687798" stroke-width="0.3" stroke-linecap="square"/>
<path d="M27.1214 8.73164H31.0814C33.0414 8.73164 34.6914 9.31164 36.0314 10.4716C37.3914 11.6116 38.0714 13.1616 38.0714 15.1216C38.0714 17.0616 37.3914 18.6216 36.0314 19.8016C34.6914 20.9416 33.0414 21.5116 31.0814 21.5116C29.5214 21.5116 28.1414 21.1416 26.9414 20.4016C25.7414 19.6416 24.9114 18.6016 24.4514 17.2816L25.8014 16.5016C26.1414 17.6216 26.7714 18.4816 27.6914 19.0816C28.6314 19.6816 29.7614 19.9816 31.0814 19.9816C32.6614 19.9816 33.9514 19.5416 34.9514 18.6616C35.9714 17.7816 36.4814 16.6016 36.4814 15.1216C36.4814 13.6416 35.9714 12.4616 34.9514 11.5816C33.9514 10.7016 32.6614 10.2616 31.0814 10.2616H25.4714L26.1914 0.181641H37.2914V1.68164H27.6014L27.1214 8.73164Z" fill="#687798"/>
<path d="M48.9588 3.45801H50.1768V13.258H49.1968V4.94201L45.7668 10.682H45.6268L42.1968 4.94201V13.258H41.2168V3.45801H42.4348L45.6968 8.91801L48.9588 3.45801Z" fill="#687798"/>
</svg>
