<svg width="213" height="33" viewBox="0 0 213 33" fill="none" xmlns="http://www.w3.org/2000/svg">
<path d="M39.0933 32.4362V23.1523H40.2441V27.2408H46.5214V23.1523H47.6723V32.4362H46.5214V28.3477H40.2441V32.4362H39.0933Z" fill="#23292F"/>
<path d="M53.9831 32.5612C52.7625 32.5612 51.8616 32.3469 51.2803 31.9184C50.7107 31.49 50.4259 30.8056 50.4259 29.8653C50.4259 28.8893 50.7456 28.193 51.385 27.7764C52.0243 27.3479 53.0589 27.1337 54.4887 27.1337H57.9064V26.8659C57.9064 25.8899 57.6565 25.1817 57.1566 24.7413C56.6684 24.3009 55.8779 24.0807 54.7852 24.0807C53.9017 24.0807 53.2217 24.2295 52.745 24.527C52.2801 24.8127 51.9662 25.2709 51.8034 25.9018H50.6526C50.8502 24.902 51.2745 24.1759 51.9255 23.7236C52.5881 23.2594 53.5588 23.0273 54.8375 23.0273C56.3022 23.0273 57.3658 23.3309 58.0284 23.9379C58.7027 24.5449 59.0398 25.5149 59.0398 26.848V32.4362H57.9064V30.8651C57.2438 31.9958 55.936 32.5612 53.9831 32.5612ZM51.5768 29.8296C51.5768 30.4247 51.786 30.8532 52.2045 31.115C52.6346 31.3769 53.303 31.5078 54.2098 31.5078C55.4071 31.5078 56.2906 31.2817 56.8602 30.8294C57.4414 30.3771 57.7901 29.6451 57.9064 28.6334V28.0442H54.7329C53.6285 28.0442 52.8264 28.187 52.3266 28.4727C51.8267 28.7584 51.5768 29.2106 51.5768 29.8296Z" fill="#23292F"/>
<path d="M69.7777 24.2592H65.8544V32.4362H64.7035V24.2592H60.7802V23.1523H69.7777V24.2592Z" fill="#23292F"/>
<path d="M71.4023 32.4362L73.983 29.0262C73.1112 28.919 72.4776 28.6453 72.0824 28.2049C71.6871 27.7526 71.4895 27.0742 71.4895 26.1696C71.4895 25.1103 71.7569 24.3426 72.2916 23.8665C72.838 23.3904 73.7156 23.1523 74.9246 23.1523H79.3885V32.4362H78.2376V29.0619H75.3256L72.7799 32.4362H71.4023ZM72.6404 26.1696C72.6404 26.8242 72.8205 27.2884 73.1809 27.5622C73.5413 27.824 74.1457 27.9549 74.9943 27.9549H78.2376V24.2592H74.9943C74.169 24.2592 73.5703 24.408 73.1983 24.7056C72.8263 25.0031 72.6404 25.4911 72.6404 26.1696Z" fill="#23292F"/>
<path d="M81.5742 32.4362L85.236 27.6871L81.7835 23.1523H83.161L86.195 27.1515H87.9561V23.1523H89.0895V27.1515H90.8507L93.8847 23.1523H95.2622L91.8097 27.6871L95.454 32.4362H94.0591L90.8507 28.2585H89.0895V32.4362H87.9561V28.2585H86.195L82.9866 32.4362H81.5742Z" fill="#23292F"/>
<path d="M97.6365 32.4362V23.1523H98.7874V27.2408H105.065V23.1523H106.216V32.4362H105.065V28.3477H98.7874V32.4362H97.6365Z" fill="#23292F"/>
<path d="M109.318 32.4362V23.1523H110.469V26.3124H113.573C114.758 26.3124 115.618 26.5564 116.153 27.0444C116.688 27.5205 116.955 28.2942 116.955 29.3654C116.955 30.4485 116.688 31.2341 116.153 31.7221C115.618 32.1982 114.758 32.4362 113.573 32.4362H109.318ZM113.468 27.4193H110.469V31.3293H113.485C114.311 31.3293 114.904 31.1745 115.264 30.8651C115.636 30.5556 115.822 30.0557 115.822 29.3654C115.822 28.675 115.636 28.1811 115.264 27.8835C114.892 27.5741 114.293 27.4193 113.468 27.4193ZM118.978 32.4362V23.1523H120.129V32.4362H118.978Z" fill="#23292F"/>
<path d="M122.655 27.7943C122.655 26.1398 123.015 24.9317 123.736 24.17C124.456 23.4082 125.625 23.0273 127.241 23.0273C128.845 23.0273 129.996 23.4082 130.693 24.17C131.402 24.9317 131.757 26.1398 131.757 27.7943C131.757 27.9371 131.751 28.0442 131.739 28.1156H123.823C123.858 29.2821 124.148 30.139 124.695 30.6865C125.241 31.2341 126.096 31.5078 127.258 31.5078C128.897 31.5078 129.932 30.9186 130.362 29.7403H131.547C131.292 30.7877 130.792 31.5197 130.048 31.9363C129.316 32.3529 128.38 32.5612 127.241 32.5612C125.625 32.5612 124.456 32.1862 123.736 31.4364C123.015 30.6746 122.655 29.4606 122.655 27.7943ZM127.258 24.0807C126.154 24.0807 125.322 24.3247 124.764 24.8127C124.218 25.3007 123.91 26.0982 123.84 27.2051H130.606C130.536 26.0982 130.234 25.3007 129.699 24.8127C129.164 24.3247 128.351 24.0807 127.258 24.0807Z" fill="#23292F"/>
<path d="M139.169 32.4362V23.1523H147.748V32.4362H146.597V24.2592H140.319V32.4362H139.169Z" fill="#23292F"/>
<path d="M154.878 23.0273C156.482 23.0273 157.645 23.4082 158.365 24.17C159.098 24.9198 159.464 26.1279 159.464 27.7943C159.464 29.4606 159.098 30.6746 158.365 31.4364C157.645 32.1862 156.482 32.5612 154.878 32.5612C153.262 32.5612 152.088 32.1862 151.356 31.4364C150.635 30.6746 150.274 29.4606 150.274 27.7943C150.274 26.1279 150.635 24.9198 151.356 24.17C152.088 23.4082 153.262 23.0273 154.878 23.0273ZM151.408 27.7943C151.408 29.0678 151.681 29.9962 152.227 30.5794C152.785 31.1626 153.669 31.4543 154.878 31.4543C156.087 31.4543 156.964 31.1626 157.511 30.5794C158.057 29.9962 158.33 29.0678 158.33 27.7943C158.33 26.5088 158.057 25.5804 157.511 25.0091C156.964 24.4259 156.087 24.1343 154.878 24.1343C153.669 24.1343 152.785 24.4259 152.227 25.0091C151.681 25.5804 151.408 26.5088 151.408 27.7943Z" fill="#23292F"/>
<path d="M169.734 24.2592H165.81V32.4362H164.66V24.2592H160.736V23.1523H169.734V24.2592Z" fill="#23292F"/>
<path d="M175.618 23.0273C177.223 23.0273 178.385 23.4082 179.106 24.17C179.838 24.9198 180.204 26.1279 180.204 27.7943C180.204 29.4606 179.838 30.6746 179.106 31.4364C178.385 32.1862 177.223 32.5612 175.618 32.5612C174.003 32.5612 172.828 32.1862 172.096 31.4364C171.375 30.6746 171.015 29.4606 171.015 27.7943C171.015 26.1279 171.375 24.9198 172.096 24.17C172.828 23.4082 174.003 23.0273 175.618 23.0273ZM172.148 27.7943C172.148 29.0678 172.422 29.9962 172.968 30.5794C173.526 31.1626 174.409 31.4543 175.618 31.4543C176.827 31.4543 177.705 31.1626 178.251 30.5794C178.798 29.9962 179.071 29.0678 179.071 27.7943C179.071 26.5088 178.798 25.5804 178.251 25.0091C177.705 24.4259 176.827 24.1343 175.618 24.1343C174.409 24.1343 173.526 24.4259 172.968 25.0091C172.422 25.5804 172.148 26.5088 172.148 27.7943Z" fill="#23292F"/>
<path d="M181.688 32.4362V31.2757H182.228C182.542 31.2757 182.786 31.1448 182.961 30.8829C183.135 30.6211 183.286 30.0617 183.414 29.2047C183.553 28.3358 183.664 27.0742 183.745 25.4197L183.85 23.1523H190.999V32.4362H189.848V24.2592H184.913L184.861 25.4911C184.78 27.3717 184.629 28.8238 184.408 29.8474C184.199 30.8591 183.925 31.5435 183.588 31.9006C183.263 32.2577 182.821 32.4362 182.263 32.4362H181.688Z" fill="#23292F"/>
<path d="M195.253 32.4362H194.102V23.1523H195.253V27.1515H197.31L200.623 23.1523H202.053L198.252 27.6871L202.245 32.4362H200.815L197.293 28.2585H195.253V32.4362Z" fill="#23292F"/>
<path d="M205.45 32.4362H204.421V23.1523H205.572V30.5794L211.971 23.1523H213V32.4362H211.849V24.9912L205.45 32.4362Z" fill="#23292F"/>
<path d="M23.1924 5.13279L15.4916 0.293141C14.8949 -0.0818609 14.1444 -0.0876105 13.5423 0.278207L0.923796 7.94461C0.35116 8.29252 9.53674e-05 8.92378 9.53674e-05 9.60555V12.733V33.0003L14.5213 24.1542C18.285 21.8614 21.9491 22.6555 23.1924 23.3646L15.5118 18.5377C14.9045 18.156 14.1389 18.1574 13.5329 18.5412L5.91396 23.3661V13.3768C5.91396 13.0213 5.63246 12.733 5.28521 12.733H3.34142L14.5213 5.92239C18.285 3.62962 21.9491 4.42366 23.1924 5.13279Z" fill="#702885"/>
<path d="M0 21.6896V33.0005L14.6342 24.1343L11.9714 19.6348L5.91302 23.3558L0 21.6896Z" fill="url(#paint0_linear_2331_20032)"/>
<path d="M5.1303 5.40476L8.89875 3.11728C11.2651 1.68087 14.3484 2.91025 15.0771 5.58081L1.74914 13.6959L1.6483 13.1394C1.09565 10.0889 2.48019 7.01339 5.1303 5.40476Z" fill="url(#paint1_linear_2331_20032)"/>
<path d="M5.79394 4.98582L13.5583 0.277817C14.155 -0.0971849 14.9615 -0.0879984 15.5637 0.277819L28.1821 7.94423C28.7548 8.29214 29.1058 8.9234 29.1058 9.60517V12.7326V33L14.5846 24.1538C10.8209 21.8611 7.1568 22.6551 5.91354 23.3642L13.5388 18.5408C14.1461 18.1591 14.967 18.157 15.573 18.5408L23.192 23.3657V13.3764C23.192 13.0209 23.4735 12.7326 23.8207 12.7326H25.7645L14.5846 5.922C10.8209 3.62923 7.0372 4.27669 5.79394 4.98582Z" fill="#00B368"/>
<path d="M39.0933 16.8205V0.597279H47.1514C49.1131 0.597279 50.5316 1.0299 51.4068 1.89513C52.2971 2.74492 52.7422 4.12003 52.7422 6.02046C52.7422 7.92089 52.2971 9.30373 51.4068 10.169C50.5316 11.0342 49.1131 11.4668 47.1514 11.4668H42.2848V16.8205H39.0933ZM42.2848 8.40759H46.9703C47.8757 8.40759 48.5321 8.22218 48.9395 7.85136C49.3621 7.4651 49.5733 6.8548 49.5733 6.02046C49.5733 5.20158 49.3621 4.60673 48.9395 4.23591C48.5321 3.84964 47.8757 3.65651 46.9703 3.65651H42.2848V8.40759Z" fill="#23292F"/>
<path d="M53.479 0.597279H57.0779L62.3746 9.9372L67.1958 0.597279H70.659L64.0043 13.2514C63.3403 14.5029 62.5632 15.4145 61.6729 15.9861C60.7976 16.5424 59.6961 16.8205 58.3681 16.8205H56.6026V14.2248H58.1418C59.2132 14.2248 60.0582 13.8076 60.6769 12.9733L53.479 0.597279Z" fill="#23292F"/>
<path d="M75.7954 16.8205H72.6039V0.597279H77.7873L82.6086 13.1818L87.3846 0.597279H92.5681V16.8205H89.3991V3.93462L84.3741 16.8205H80.7978L75.7954 3.9578V16.8205Z" fill="#23292F"/>
<path d="M95.1609 10.9801H98.443C98.7297 12.0153 99.2503 12.7724 100.005 13.2513C100.759 13.7303 101.801 13.9698 103.128 13.9698C104.622 13.9698 105.762 13.6685 106.546 13.0659C107.331 12.4479 107.814 11.4745 107.995 10.1458H102.019V7.27194H107.995C107.814 5.94318 107.331 4.96979 106.546 4.35177C105.762 3.73374 104.622 3.42473 103.128 3.42473C100.548 3.42473 98.9862 4.4213 98.443 6.41443H95.1609C95.4627 4.32859 96.2549 2.8067 97.5376 1.84876C98.8202 0.875368 100.684 0.388672 103.128 0.388672C105.98 0.388672 108.048 1.04533 109.33 2.35863C110.628 3.67194 111.277 5.78868 111.277 8.70885C111.277 11.6136 110.628 13.7303 109.33 15.0591C108.048 16.3724 105.98 17.029 103.128 17.029C100.684 17.029 98.8202 16.5501 97.5376 15.5921C96.2549 14.6187 95.4627 13.0814 95.1609 10.9801Z" fill="#23292F"/>
<path d="M113.829 16.8205V0.597256H117.02V6.97065H119.465L124.445 0.597256H128.315L122.113 8.47709L128.836 16.8205H124.875L119.488 10.0299H117.02V16.8205H113.829Z" fill="#23292F"/>
<path d="M129.224 8.70885C129.224 5.78868 129.865 3.67194 131.148 2.35863C132.431 1.04533 134.498 0.388672 137.35 0.388672C139.795 0.388672 141.658 0.875368 142.941 1.84876C144.224 2.8067 145.016 4.32859 145.318 6.41443H142.058C141.771 5.37924 141.243 4.62215 140.474 4.14318C139.719 3.66421 138.678 3.42473 137.35 3.42473C135.615 3.42473 134.355 3.84962 133.57 4.69941C132.785 5.53374 132.393 6.87022 132.393 8.70885C132.393 10.5475 132.785 11.884 133.57 12.7183C134.355 13.5526 135.615 13.9698 137.35 13.9698C138.678 13.9698 139.719 13.7303 140.474 13.2513C141.243 12.7724 141.771 12.0153 142.058 10.9801H145.34C145.023 13.0814 144.224 14.6187 142.941 15.5921C141.658 16.5501 139.795 17.029 137.35 17.029C134.498 17.029 132.431 16.3724 131.148 15.0591C129.865 13.7303 129.224 11.6136 129.224 8.70885Z" fill="#23292F"/>
<path d="M147.892 16.8205V0.597256H163.488V16.8205H160.319V3.65649H151.084V16.8205H147.892Z" fill="#23292F"/>
<path d="M179.812 16.8205H166.593V0.597256H179.812V3.65649H169.784V7.27194H178.68V10.1458H169.784V13.7612H179.812V16.8205Z" fill="#23292F"/>
<path d="M182.508 16.8205V0.597256H190.566C192.528 0.597256 193.946 1.02987 194.821 1.89511C195.712 2.7449 196.157 4.12001 196.157 6.02044C196.157 7.92087 195.712 9.3037 194.821 10.1689C193.946 11.0342 192.528 11.4668 190.566 11.4668H185.699V16.8205H182.508ZM185.699 8.40757H190.385C191.29 8.40757 191.947 8.22216 192.354 7.85134C192.777 7.46508 192.988 6.85477 192.988 6.02044C192.988 5.20155 192.777 4.6067 192.354 4.23589C191.947 3.84962 191.29 3.65649 190.385 3.65649H185.699V8.40757Z" fill="#23292F"/>
<path d="M197.495 3.65649V0.597256H213V3.65649H206.843V16.8205H203.651V3.65649H197.495Z" fill="#23292F"/>
<defs>
<linearGradient id="paint0_linear_2331_20032" x1="16.5321" y1="21.2576" x2="7.54206" y2="26.4126" gradientUnits="userSpaceOnUse">
<stop/>
<stop offset="0.98671" stop-opacity="0"/>
</linearGradient>
<linearGradient id="paint1_linear_2331_20032" x1="12.3433" y1="3.72107" x2="5.83351" y2="9.49057" gradientUnits="userSpaceOnUse">
<stop/>
<stop offset="0.0001" stop-opacity="0.6"/>
<stop offset="1" stop-opacity="0"/>
</linearGradient>
</defs>
</svg>
