<svg width="413" height="108" viewBox="0 0 413 108" fill="none" xmlns="http://www.w3.org/2000/svg">
<path d="M129 24.3V31.3C129 39.88 124.87 44.55 116.44 44.55H112.44V64.66H104.02V11.05H116.42C124.91 11.05 129 15.73 129 24.3ZM112.5 18.71V36.8601H116.5C119.18 36.8601 120.64 35.64 120.64 31.81V23.81C120.64 19.98 119.18 18.75 116.5 18.75L112.5 18.71Z" fill="#702885"/>
<path d="M151.63 51C149.63 60.65 146.35 65.47 134.63 64.71V57.23C138.92 57.5401 141.37 56.7701 142.06 52.87L142.14 52.41L130.5 11.05H138.84L143.44 29.3601L146 41.92L148 29.43L151.83 11.05H160.64L151.63 51Z" fill="#702885"/>
<path d="M182 49.12L187.74 11.05H199.46V64.66H191.46V26.22L185.64 64.66H177.64L171.36 26.75V64.66H164.01V11.05H175.73L182 49.12Z" fill="#702885"/>
<path d="M212.509 45.4401V52.3301C212.509 56.1601 214.189 57.5401 216.869 57.5401C219.549 57.5401 221.239 56.1601 221.239 52.3301V40.7701H213.499V33.1101H221.239V23.3801C221.239 19.5601 219.549 18.1001 216.869 18.1001C214.189 18.1001 212.509 19.5601 212.509 23.3801V28.4401H204.699V23.9201C204.699 15.3401 208.829 10.4401 217.099 10.4401C225.369 10.4401 229.659 15.3401 229.659 23.9201V51.8001C229.659 60.3701 225.369 65.2701 217.099 65.2701C208.829 65.2701 204.539 60.3701 204.539 51.8001V45.4401H212.509Z" fill="#00926B"/>
<path d="M246.2 43.3L243.59 48.2001V64.66H235.17V11.05H243.59V34.41L254.59 11.05H263L251.33 35L263 64.66H254.35L246.2 43.3Z" fill="#00926B"/>
<path d="M291.3 44.6701V51.8001C291.3 60.3701 287.01 65.2701 278.74 65.2701C270.47 65.2701 266.18 60.3701 266.18 51.8001V23.9201C266.18 15.3401 270.47 10.4401 278.74 10.4401C287.01 10.4401 291.3 15.3401 291.3 23.9201V29.1301H283.3V23.3801C283.3 19.5601 281.61 18.1001 278.93 18.1001C276.25 18.1001 274.57 19.5601 274.57 23.3801V52.3801C274.57 56.2101 276.25 57.5901 278.93 57.5901C281.61 57.5901 283.3 56.2101 283.3 52.3801V44.6701H291.3Z" fill="#00926B"/>
<path d="M304.85 64.66H296.43V11.05H323V64.66H314.42V18.71H304.85V64.66Z" fill="#00926B"/>
<path d="M337.55 33.65H349.11V41.3H337.55V57H352.1V64.66H329.1V11.05H352.1V18.71H337.55V33.65Z" fill="#00926B"/>
<path d="M382.27 24.3V31.3C382.27 39.88 378.13 44.55 369.71 44.55H365.71V64.66H357.3V11.05H369.71C378.13 11.05 382.27 15.73 382.27 24.3ZM365.73 18.71V36.8601H369.73C372.41 36.8601 373.86 35.64 373.86 31.81V23.81C373.86 19.98 372.41 18.75 369.73 18.75L365.73 18.71Z" fill="#00926B"/>
<path d="M383.72 11.05H409.72V18.71H401V64.66H392.58V18.71H383.77L383.72 11.05Z" fill="#00926B"/>
<path fill-rule="evenodd" clip-rule="evenodd" d="M13.7773 99C23.1482 94.7723 35.893 92.0669 50.0574 91.6863V82.2949C34.8335 82.8298 22.1299 86.3477 13.7773 91.5526V99ZM54.0896 82.2126H52.7421V91.6143H53.421C63.1648 91.5496 72.8753 92.7599 82.3051 95.2146V86.286C73.1735 83.4491 63.6507 82.0743 54.0896 82.2126Z" fill="#00926B"/>
<path fill-rule="evenodd" clip-rule="evenodd" d="M52.7432 19.0647V91.6761H54.0907C63.6421 91.6048 73.1512 92.9533 82.3062 95.6775V64.0778H95.7402L52.7432 19.0647Z" fill="#702885"/>
<path fill-rule="evenodd" clip-rule="evenodd" d="M32.5915 17.7377V11.0001H16.4728V35.2245L0.34375 51.2404L13.7777 51.3124V94.6694C22.7989 89.948 35.6363 86.8209 50.0578 86.3272V0.250854L32.5915 17.7377Z" fill="#00926B"/>
<path d="M105.172 94.953C104.709 94.953 104.343 94.831 104.074 94.587C103.806 94.3186 103.672 93.9648 103.672 93.5256V78.0438C103.672 77.6046 103.806 77.2508 104.074 76.9824C104.343 76.714 104.709 76.5798 105.172 76.5798C105.612 76.5798 105.965 76.714 106.234 76.9824C106.502 77.2508 106.636 77.6046 106.636 78.0438V84.4122H116.226V78.0438C116.226 77.6046 116.36 77.2508 116.628 76.9824C116.921 76.714 117.287 76.5798 117.726 76.5798C118.165 76.5798 118.519 76.714 118.788 76.9824C119.056 77.2508 119.19 77.6046 119.19 78.0438L119.227 93.4524C119.227 93.916 119.093 94.282 118.824 94.5504C118.556 94.8188 118.19 94.953 117.726 94.953C117.287 94.953 116.921 94.8188 116.628 94.5504C116.36 94.282 116.226 93.916 116.226 93.4524V86.7912H106.636V93.5256C106.636 93.9648 106.502 94.3186 106.234 94.587C105.965 94.831 105.612 94.953 105.172 94.953ZM131.938 76.5066C136.403 76.5066 138.635 78.849 138.635 83.5338V93.489C138.635 93.9282 138.501 94.282 138.233 94.5504C137.989 94.8188 137.647 94.953 137.208 94.953C136.769 94.953 136.415 94.8188 136.147 94.5504C135.878 94.282 135.744 93.9282 135.744 93.489V91.7322C135.28 92.7814 134.573 93.5988 133.621 94.1844C132.67 94.7456 131.572 95.0262 130.327 95.0262C129.18 95.0262 128.119 94.7944 127.143 94.3308C126.191 93.8672 125.435 93.2206 124.874 92.391C124.313 91.5614 124.032 90.6464 124.032 89.646C124.032 88.304 124.374 87.267 125.057 86.535C125.74 85.7786 126.862 85.2418 128.424 84.9246C129.986 84.583 132.157 84.4122 134.939 84.4122H135.744V83.2044C135.744 81.7404 135.439 80.6668 134.829 79.9836C134.243 79.3004 133.28 78.9588 131.938 78.9588C130.278 78.9588 128.595 79.4102 126.887 80.313C126.228 80.7278 125.764 80.9352 125.496 80.9352C125.203 80.9352 124.959 80.8254 124.764 80.6058C124.569 80.3862 124.471 80.1056 124.471 79.764C124.471 79.4224 124.569 79.1296 124.764 78.8856C124.984 78.6172 125.325 78.3488 125.789 78.0804C126.643 77.5924 127.607 77.2142 128.68 76.9458C129.778 76.653 130.864 76.5066 131.938 76.5066ZM130.73 92.6838C132.194 92.6838 133.389 92.1958 134.317 91.2198C135.268 90.2194 135.744 88.9384 135.744 87.3768V86.3154H135.085C132.938 86.3154 131.303 86.413 130.181 86.6082C129.058 86.779 128.253 87.084 127.765 87.5232C127.302 87.938 127.07 88.5602 127.07 89.3898C127.07 90.3414 127.411 91.1344 128.095 91.7688C128.802 92.3788 129.681 92.6838 130.73 92.6838ZM149.516 94.953C149.076 94.953 148.723 94.831 148.454 94.587C148.186 94.3186 148.052 93.9648 148.052 93.5256V79.2882H142.818C142.452 79.2882 142.159 79.1784 141.939 78.9588C141.72 78.7392 141.61 78.4586 141.61 78.117C141.61 77.7754 141.72 77.4948 141.939 77.2752C142.159 77.0556 142.452 76.9458 142.818 76.9458H156.213C156.579 76.9458 156.872 77.0556 157.092 77.2752C157.311 77.4948 157.421 77.7754 157.421 78.117C157.421 78.4586 157.311 78.7392 157.092 78.9588C156.872 79.1784 156.579 79.2882 156.213 79.2882H151.016V93.5256C151.016 93.9648 150.87 94.3186 150.577 94.587C150.309 94.831 149.955 94.953 149.516 94.953ZM172.692 94.953C172.229 94.953 171.863 94.831 171.594 94.587C171.326 94.3186 171.192 93.9526 171.192 93.489V88.0722H168.922C167.946 88.0722 167.105 88.2918 166.397 88.731C165.714 89.1702 165.092 89.8168 164.53 90.6708L162.151 94.3308C161.81 94.8188 161.383 95.0628 160.87 95.0628C160.504 95.0628 160.175 94.9286 159.882 94.6602C159.589 94.3918 159.443 94.0746 159.443 93.7086C159.443 93.4646 159.541 93.184 159.736 92.8668L161.273 90.4146C161.785 89.6094 162.347 88.9384 162.957 88.4016C163.591 87.8648 164.238 87.511 164.896 87.3402C163.237 87.0962 162.042 86.5228 161.31 85.62C160.578 84.7172 160.212 83.6558 160.212 82.4358C160.212 80.679 160.761 79.3248 161.859 78.3732C162.981 77.4216 164.469 76.9458 166.324 76.9458H172.619C173.083 76.9458 173.449 77.08 173.717 77.3484C173.985 77.6168 174.12 77.9706 174.12 78.4098V93.489C174.12 93.9526 173.985 94.3186 173.717 94.587C173.473 94.831 173.131 94.953 172.692 94.953ZM171.192 79.1784H167.129C165.836 79.1784 164.835 79.459 164.128 80.0202C163.42 80.5814 163.066 81.4232 163.066 82.5456C163.066 83.7412 163.445 84.5952 164.201 85.1076C164.982 85.5956 165.982 85.8396 167.202 85.8396H171.192V79.1784ZM189.509 94.953C189.094 94.953 188.74 94.8188 188.447 94.5504C188.179 94.282 188.045 93.9282 188.045 93.489V86.6814H186.581C185.531 86.6814 184.69 86.9254 184.055 87.4134C183.445 87.9014 182.908 88.6578 182.445 89.6826L180.468 94.038C180.2 94.648 179.761 94.953 179.151 94.953C178.76 94.953 178.407 94.8188 178.089 94.5504C177.797 94.282 177.65 93.9526 177.65 93.5622C177.65 93.4402 177.699 93.2328 177.797 92.94L179.517 89.2068C180.102 87.9868 180.688 87.0596 181.274 86.4252C181.859 85.7908 182.616 85.3638 183.543 85.1442L179.004 78.7758C178.809 78.4586 178.712 78.178 178.712 77.934C178.712 77.568 178.846 77.263 179.114 77.019C179.407 76.7506 179.736 76.6164 180.102 76.6164C180.59 76.6164 180.981 76.8482 181.274 77.3118L186.251 84.5952H188.045V78.0804C188.045 77.6412 188.179 77.2874 188.447 77.019C188.74 76.7262 189.094 76.5798 189.509 76.5798C189.948 76.5798 190.302 76.714 190.57 76.9824C190.838 77.2508 190.973 77.6168 190.973 78.0804V84.5952H192.803L197.707 77.3484C198.024 76.8604 198.427 76.6164 198.915 76.6164C199.281 76.6164 199.598 76.7506 199.866 77.019C200.159 77.263 200.306 77.568 200.306 77.934C200.306 78.2268 200.208 78.5074 200.013 78.7758L195.511 85.1442C196.438 85.3638 197.195 85.7908 197.78 86.4252C198.366 87.0352 198.939 87.9624 199.5 89.2068L201.257 92.94C201.355 93.1352 201.404 93.3426 201.404 93.5622C201.404 93.977 201.245 94.3186 200.928 94.587C200.611 94.8554 200.257 94.9896 199.866 94.9896C199.598 94.9896 199.342 94.9164 199.098 94.77C198.878 94.5992 198.707 94.3674 198.585 94.0746L196.609 89.6826C196.121 88.6578 195.56 87.9014 194.925 87.4134C194.315 86.9254 193.486 86.6814 192.437 86.6814H190.973V93.489C190.973 93.9282 190.838 94.282 190.57 94.5504C190.302 94.8188 189.948 94.953 189.509 94.953ZM206.359 94.953C205.895 94.953 205.529 94.831 205.261 94.587C204.992 94.3186 204.858 93.9648 204.858 93.5256V78.0438C204.858 77.6046 204.992 77.2508 205.261 76.9824C205.529 76.714 205.895 76.5798 206.359 76.5798C206.798 76.5798 207.152 76.714 207.42 76.9824C207.688 77.2508 207.823 77.6046 207.823 78.0438V84.4122H217.412V78.0438C217.412 77.6046 217.546 77.2508 217.814 76.9824C218.107 76.714 218.473 76.5798 218.912 76.5798C219.352 76.5798 219.705 76.714 219.974 76.9824C220.242 77.2508 220.376 77.6046 220.376 78.0438L220.413 93.4524C220.413 93.916 220.279 94.282 220.01 94.5504C219.742 94.8188 219.376 94.953 218.912 94.953C218.473 94.953 218.107 94.8188 217.814 94.5504C217.546 94.282 217.412 93.916 217.412 93.4524V86.7912H207.823V93.5256C207.823 93.9648 207.688 94.3186 207.42 94.587C207.152 94.831 206.798 94.953 206.359 94.953ZM227.304 94.77C226.841 94.77 226.463 94.6358 226.17 94.3674C225.901 94.099 225.767 93.7452 225.767 93.306V78.0438C225.767 77.6046 225.901 77.2508 226.17 76.9824C226.438 76.714 226.804 76.5798 227.268 76.5798C227.707 76.5798 228.061 76.714 228.329 76.9824C228.598 77.2508 228.732 77.6046 228.732 78.0438V83.3142H231.44C235.979 83.3142 238.248 85.1686 238.248 88.8774C238.248 90.195 237.918 91.3052 237.26 92.208C236.601 93.0864 235.735 93.733 234.661 94.1478C233.612 94.5626 232.502 94.77 231.33 94.77H227.304ZM242.567 94.953C242.127 94.953 241.774 94.831 241.505 94.587C241.237 94.3186 241.103 93.9648 241.103 93.5256V78.0438C241.103 77.6046 241.237 77.2508 241.505 76.9824C241.774 76.714 242.127 76.5798 242.567 76.5798C243.03 76.5798 243.396 76.714 243.665 76.9824C243.933 77.2508 244.067 77.6046 244.067 78.0438V93.5256C244.067 93.9648 243.933 94.3186 243.665 94.587C243.396 94.831 243.03 94.953 242.567 94.953ZM230.855 92.5374C232.026 92.5374 233.051 92.2568 233.929 91.6956C234.832 91.1344 235.283 90.2072 235.283 88.914C235.283 87.5964 234.881 86.7058 234.075 86.2422C233.295 85.7786 232.221 85.5468 230.855 85.5468H228.695V92.5374H230.855ZM263.3 90.6342C263.568 90.6342 263.8 90.744 263.995 90.9636C264.19 91.1832 264.288 91.4638 264.288 91.8054C264.288 92.4154 263.861 92.9766 263.007 93.489C262.129 94.0014 261.201 94.3918 260.225 94.6602C259.249 94.9042 258.298 95.0262 257.371 95.0262C254.613 95.0262 252.43 94.2088 250.819 92.574C249.233 90.9392 248.44 88.6822 248.44 85.803C248.44 83.973 248.794 82.3626 249.502 80.9718C250.209 79.5566 251.197 78.4586 252.466 77.6778C253.759 76.897 255.223 76.5066 256.858 76.5066C259.176 76.5066 261.018 77.263 262.385 78.7758C263.751 80.2886 264.434 82.3382 264.434 84.9246C264.434 85.4126 264.337 85.7664 264.142 85.986C263.946 86.2056 263.629 86.3154 263.19 86.3154H251.405C251.624 90.5122 253.613 92.6106 257.371 92.6106C258.322 92.6106 259.14 92.4886 259.823 92.2446C260.506 91.9762 261.238 91.6224 262.019 91.1832C262.653 90.8172 263.08 90.6342 263.3 90.6342ZM256.895 78.8124C255.333 78.8124 254.077 79.3004 253.125 80.2764C252.198 81.2524 251.649 82.631 251.478 84.4122H261.836C261.787 82.6066 261.336 81.228 260.482 80.2764C259.628 79.3004 258.432 78.8124 256.895 78.8124ZM279.666 94.953C279.202 94.953 278.836 94.831 278.568 94.587C278.299 94.3186 278.165 93.9648 278.165 93.5256V78.483C278.165 77.995 278.299 77.6168 278.568 77.3484C278.836 77.08 279.202 76.9458 279.666 76.9458H291.927C292.39 76.9458 292.756 77.08 293.025 77.3484C293.318 77.6168 293.464 77.9828 293.464 78.4464V93.5256C293.464 93.9648 293.33 94.3186 293.061 94.587C292.793 94.831 292.439 94.953 292 94.953C291.536 94.953 291.17 94.831 290.902 94.587C290.634 94.3186 290.499 93.9648 290.499 93.5256V79.2882H281.13V93.5256C281.13 93.9648 280.996 94.3186 280.727 94.587C280.459 94.831 280.105 94.953 279.666 94.953ZM306.291 95.0262C304.607 95.0262 303.119 94.648 301.825 93.8916C300.557 93.1352 299.568 92.0616 298.861 90.6708C298.178 89.2556 297.836 87.6208 297.836 85.7664C297.836 83.912 298.178 82.2894 298.861 80.8986C299.568 79.4834 300.557 78.3976 301.825 77.6412C303.119 76.8848 304.607 76.5066 306.291 76.5066C307.974 76.5066 309.463 76.8848 310.756 77.6412C312.049 78.3976 313.037 79.4834 313.72 80.8986C314.428 82.2894 314.782 83.912 314.782 85.7664C314.782 87.6208 314.428 89.2556 313.72 90.6708C313.037 92.0616 312.049 93.1352 310.756 93.8916C309.463 94.648 307.974 95.0262 306.291 95.0262ZM306.291 92.574C308.047 92.574 309.389 92.0006 310.317 90.8538C311.268 89.6826 311.744 87.9868 311.744 85.7664C311.744 83.5948 311.268 81.9234 310.317 80.7522C309.365 79.5566 308.023 78.9588 306.291 78.9588C304.558 78.9588 303.216 79.5566 302.265 80.7522C301.313 81.9234 300.837 83.5948 300.837 85.7664C300.837 87.9624 301.301 89.646 302.228 90.8172C303.18 91.9884 304.534 92.574 306.291 92.574ZM324.617 94.953C324.177 94.953 323.824 94.831 323.555 94.587C323.287 94.3186 323.153 93.9648 323.153 93.5256V79.2882H317.919C317.553 79.2882 317.26 79.1784 317.04 78.9588C316.821 78.7392 316.711 78.4586 316.711 78.117C316.711 77.7754 316.821 77.4948 317.04 77.2752C317.26 77.0556 317.553 76.9458 317.919 76.9458H331.314C331.68 76.9458 331.973 77.0556 332.193 77.2752C332.412 77.4948 332.522 77.7754 332.522 78.117C332.522 78.4586 332.412 78.7392 332.193 78.9588C331.973 79.1784 331.68 79.2882 331.314 79.2882H326.117V93.5256C326.117 93.9648 325.971 94.3186 325.678 94.587C325.41 94.831 325.056 94.953 324.617 94.953ZM342.855 95.0262C341.171 95.0262 339.683 94.648 338.39 93.8916C337.121 93.1352 336.133 92.0616 335.425 90.6708C334.742 89.2556 334.4 87.6208 334.4 85.7664C334.4 83.912 334.742 82.2894 335.425 80.8986C336.133 79.4834 337.121 78.3976 338.39 77.6412C339.683 76.8848 341.171 76.5066 342.855 76.5066C344.538 76.5066 346.027 76.8848 347.32 77.6412C348.613 78.3976 349.601 79.4834 350.285 80.8986C350.992 82.2894 351.346 83.912 351.346 85.7664C351.346 87.6208 350.992 89.2556 350.285 90.6708C349.601 92.0616 348.613 93.1352 347.32 93.8916C346.027 94.648 344.538 95.0262 342.855 95.0262ZM342.855 92.574C344.612 92.574 345.954 92.0006 346.881 90.8538C347.832 89.6826 348.308 87.9868 348.308 85.7664C348.308 83.5948 347.832 81.9234 346.881 80.7522C345.929 79.5566 344.587 78.9588 342.855 78.9588C341.122 78.9588 339.78 79.5566 338.829 80.7522C337.877 81.9234 337.401 83.5948 337.401 85.7664C337.401 87.9624 337.865 89.646 338.792 90.8172C339.744 91.9884 341.098 92.574 342.855 92.574ZM359.953 81.411C359.953 85.2418 359.55 88.1942 358.745 90.2682C357.964 92.3422 356.671 93.8794 354.865 94.8798C354.695 94.953 354.487 94.9896 354.243 94.9896C353.877 94.9896 353.572 94.8798 353.328 94.6602C353.109 94.4406 352.999 94.16 352.999 93.8184C352.999 93.5744 353.06 93.3426 353.182 93.123C353.304 92.9034 353.487 92.7326 353.731 92.6106C354.609 92.0982 355.292 91.415 355.78 90.561C356.293 89.707 356.647 88.5724 356.842 87.1572C357.061 85.7176 357.171 83.8144 357.171 81.4476V78.483C357.171 77.995 357.305 77.6168 357.574 77.3484C357.842 77.08 358.208 76.9458 358.672 76.9458H368.371C368.834 76.9458 369.2 77.08 369.469 77.3484C369.762 77.6168 369.908 77.9828 369.908 78.4464V93.5256C369.908 93.9404 369.762 94.282 369.469 94.5504C369.2 94.8188 368.847 94.953 368.407 94.953C367.968 94.953 367.614 94.8188 367.346 94.5504C367.078 94.282 366.943 93.9404 366.943 93.5256V79.2882H359.953V81.411ZM383.622 85.1076C384.501 85.3516 385.208 85.7542 385.745 86.3154C386.282 86.8766 386.916 87.7794 387.648 89.0238L389.954 92.7936C390.101 93.0376 390.174 93.2938 390.174 93.5622C390.174 93.9526 390.027 94.282 389.735 94.5504C389.442 94.8188 389.1 94.953 388.71 94.953C388.173 94.953 387.746 94.6968 387.429 94.1844L384.647 89.4996C384.013 88.4504 383.415 87.7428 382.854 87.3768C382.293 87.0108 381.487 86.8278 380.438 86.8278H378.389V93.489C378.389 93.9526 378.254 94.3186 377.986 94.587C377.718 94.831 377.352 94.953 376.888 94.953C376.449 94.953 376.095 94.831 375.827 94.587C375.558 94.3186 375.424 93.9526 375.424 93.489V78.0438C375.424 77.6046 375.558 77.2508 375.827 76.9824C376.095 76.714 376.449 76.5798 376.888 76.5798C377.352 76.5798 377.718 76.714 377.986 76.9824C378.254 77.2508 378.389 77.6046 378.389 78.0438V84.522H380.877L386.953 77.202C387.295 76.7872 387.673 76.5798 388.088 76.5798C388.429 76.5798 388.722 76.7018 388.966 76.9458C389.234 77.1898 389.369 77.4948 389.369 77.8608C389.369 78.178 389.234 78.5074 388.966 78.849L383.622 85.1076ZM406.271 77.5314C406.515 77.1898 406.771 76.9458 407.039 76.7994C407.308 76.653 407.625 76.5798 407.991 76.5798C408.455 76.5798 408.821 76.7262 409.089 77.019C409.382 77.3118 409.528 77.6778 409.528 78.117V93.5256C409.528 93.9404 409.394 94.282 409.126 94.5504C408.857 94.8188 408.516 94.953 408.101 94.953C407.71 94.953 407.369 94.8188 407.076 94.5504C406.808 94.2576 406.673 93.916 406.673 93.5256V80.7522L397.048 94.0746C396.633 94.6602 396.084 94.953 395.401 94.953C394.937 94.953 394.559 94.8188 394.266 94.5504C393.973 94.2576 393.827 93.8916 393.827 93.4524V78.0438C393.827 77.629 393.961 77.2874 394.229 77.019C394.522 76.7262 394.876 76.5798 395.291 76.5798C395.706 76.5798 396.047 76.7262 396.316 77.019C396.584 77.2874 396.718 77.629 396.718 78.0438V90.6342L406.271 77.5314Z" fill="#282828"/>
</svg>
