<svg width="511" height="56" viewBox="0 0 511 56" fill="none" xmlns="http://www.w3.org/2000/svg">
<path d="M493.057 -0.12207H3.97656V39.002H493.057V-0.12207Z" fill="#F7F7F7"/>
<path d="M492.673 1.4043H481.209C478.459 1.4043 476.245 3.61829 476.245 6.36809C476.245 9.1179 478.459 11.3319 481.209 11.3319H492.673V1.4043Z" fill="#B47D6C"/>
<path d="M492.673 27.3857H481.209C478.459 27.3857 476.245 29.5997 476.245 32.3495C476.245 35.0993 478.459 37.3133 481.209 37.3133H492.673V27.3857Z" fill="#B47D6C"/>
<path d="M492.673 14.3955H481.209C478.459 14.3955 476.245 16.6095 476.245 19.3593C476.245 22.1091 478.459 24.3231 481.209 24.3231H492.673V14.3955Z" fill="#B47D6C"/>
<path d="M4.36035 1.4043H12.7614C15.5112 1.4043 17.7252 3.61829 17.7252 6.36809C17.7252 9.1179 15.5112 11.3319 12.7614 11.3319H4.36035V1.4043Z" fill="#B47D6C"/>
<path d="M4.36035 27.3857H12.7614C15.5112 27.3857 17.7252 29.5997 17.7252 32.3495C17.7252 35.0993 15.5112 37.3133 12.7614 37.3133H4.36035V27.3857Z" fill="#B47D6C"/>
<path d="M4.36035 14.3955H12.7614C15.5112 14.3955 17.7252 16.6095 17.7252 19.3593C17.7252 22.1091 15.5112 24.3231 12.7614 24.3231H4.36035V14.3955Z" fill="#B47D6C"/>
<path d="M124.866 28.074L131.134 28.9939L124.866 29.5702V30.6822L133.965 29.7319V28.5895L127.505 27.6696L133.965 26.7496V25.587L124.866 24.6367V25.7488L131.134 26.325L124.866 27.245C124.866 27.4573 124.866 27.7707 124.866 28.074Z" fill="#F7991F"/>
<path d="M127.919 21.3812V20.3096H126.736C125.473 20.3096 124.866 20.9161 124.866 22.1798C124.866 23.4435 125.473 24.0501 126.736 24.0501H132.084C133.348 24.0501 133.955 23.4435 133.955 22.1798C133.955 20.9161 133.348 20.3096 132.084 20.3096H129.567V22.0282H130.639V21.3407H132.125C132.661 21.3407 132.924 21.6036 132.924 22.1394C132.924 22.6752 132.661 22.9381 132.125 22.9381H126.777C126.241 22.9381 125.978 22.6752 125.978 22.1394C125.978 21.6036 126.241 21.3407 126.777 21.3407L127.919 21.3812Z" fill="#F7991F"/>
<path d="M131.205 34.9485H132.085C133.349 34.9485 133.955 34.342 133.955 33.0783C133.955 31.8146 133.349 31.208 132.085 31.208H131.397C130.447 31.208 129.719 31.7438 129.183 32.5121C128.799 33.0075 128.071 33.9275 127.384 33.9275H126.696C126.161 33.9275 125.898 33.6646 125.898 33.1288C125.898 32.593 126.161 32.3302 126.696 32.3302H127.576V31.2484H126.696C125.433 31.2484 124.826 31.855 124.826 33.1187C124.826 34.3824 125.433 34.989 126.696 34.989H127.384C128.334 34.989 129.062 34.4532 129.598 33.6849C129.982 33.1895 130.71 32.2695 131.397 32.2695H132.085C132.621 32.2695 132.883 32.5324 132.883 33.0682C132.883 33.604 132.621 33.8668 132.085 33.8668H131.205V34.9485Z" fill="#F7991F"/>
<path d="M127.424 17.7519C127.424 19.0156 128.03 19.6221 129.294 19.6221H133.955V18.5505H129.294C128.758 18.5505 128.495 18.2877 128.495 17.7519V16.7207H127.424V17.7519Z" fill="#F7991F"/>
<path d="M127.424 14.466C127.424 15.7297 128.03 16.3362 129.294 16.3362H132.084C133.348 16.3362 133.955 15.7297 133.955 14.466C133.955 13.2023 133.348 12.5957 132.084 12.5957H129.294C128.041 12.5957 127.424 13.2124 127.424 14.466ZM132.893 14.466C132.893 15.0018 132.63 15.2646 132.094 15.2646H129.304C128.768 15.2646 128.506 15.0018 128.506 14.466C128.506 13.9302 128.768 13.6673 129.304 13.6673H132.094C132.62 13.6269 132.893 13.9302 132.893 14.466Z" fill="#F7991F"/>
<path d="M127.424 11.9896H132.084C133.348 11.9896 133.955 11.383 133.955 10.1193C133.955 8.8556 133.348 8.24902 132.084 8.24902H127.424V9.32065H132.084C132.62 9.32065 132.883 9.58349 132.883 10.1193C132.883 10.6551 132.62 10.9179 132.084 10.9179H127.424V11.9896Z" fill="#F7991F"/>
<path d="M133.965 5.76187C133.965 4.49818 133.359 3.8916 132.095 3.8916H129.305C128.041 3.8916 127.435 4.49818 127.435 5.76187V6.56053V7.32886V7.63214H136.189V6.56053H133.975L133.965 5.76187ZM132.894 6.60096H128.496V5.80231C128.496 5.26651 128.759 5.00365 129.295 5.00365H132.085C132.621 5.00365 132.884 5.26651 132.884 5.80231V6.60096H132.894Z" fill="#F7991F"/>
<path opacity="0.13" d="M25.3281 27.7297L36.6003 39.0423H66.8683H75.5828H105.841L77.8372 10.9883L67.8591 23.3321L55.8287 11.3017L51.1985 23.3321L38.8547 10.9883L25.3281 27.7297Z" fill="black"/>
<path opacity="0.13" d="M103.435 27.7297L114.707 39.0423H144.965L116.921 10.9883L103.435 27.7297Z" fill="black"/>
<path opacity="0.13" d="M142.175 27.7297L153.447 39.0423H183.715L155.661 10.9883L142.175 27.7297Z" fill="black"/>
<path opacity="0.13" d="M181.146 27.7297L192.419 39.0423H222.687H231.553H261.811L233.767 10.9883L223.253 24.0195L210.575 11.3017L206.218 22.5738L194.633 10.9883L181.146 27.7297Z" fill="black"/>
<path opacity="0.13" d="M259.405 27.7297L270.677 39.0423H300.935H309.65H339.908L311.864 10.9883L301.815 23.4534L289.663 11.3017L285.084 23.1804L272.891 10.9883L259.405 27.7297Z" fill="black"/>
<path opacity="0.13" d="M337.502 27.7297L348.774 39.0423H379.032L350.988 10.9883L337.502 27.7297Z" fill="black"/>
<path opacity="0.13" d="M376.252 27.7297L387.514 39.0423H417.782L389.738 10.9883L376.252 27.7297Z" fill="black"/>
<path opacity="0.13" d="M440.396 22.6851L428.71 10.9883L415.224 27.7297L426.496 39.0423H456.754H465.468H492.552V35.8679L467.682 10.9883L457.33 23.8274L444.794 11.3017L440.396 22.6851Z" fill="black"/>
<path d="M4.74489 -0.12207H3.97656V39.002H4.74489V-0.12207Z" fill="black"/>
<path d="M493.057 -0.12207H492.289V39.002H493.057V-0.12207Z" fill="black"/>
<path d="M8.59659 21.6134C8.55615 21.3808 8.51571 21.118 8.44494 20.9259C8.36407 20.6934 8.25286 20.5417 8.14166 20.3497C8.03045 20.198 7.83837 20.0464 7.68673 19.8947C7.49464 19.7835 7.343 19.6622 7.11048 19.5914C6.9184 19.5106 6.65555 19.4398 6.46347 19.4398C6.27139 19.3994 6.11974 19.4398 6.00854 19.4398C5.89733 19.4398 5.81645 19.4398 5.81645 19.4398C5.77602 19.4398 5.77602 19.4398 6.04897 18.9849C6.31182 18.5299 7.6564 16.4271 7.91924 15.9318C8.18209 15.4364 8.1821 15.396 8.1821 15.3252C8.1821 15.2544 8.1821 15.1331 8.10122 15.0219C8.06078 14.9107 7.94957 14.8298 7.8687 14.7591C7.78782 14.7186 4.35057 19.2679 4.35057 19.2679C4.35057 19.2679 0.953753 14.7186 0.832438 14.7591C0.751561 14.7995 0.640357 14.9107 0.599919 15.0219C0.559481 15.1331 0.519044 15.2544 0.519044 15.3252C0.519044 15.4061 0.519041 15.4364 0.78189 15.9318C1.04474 16.4271 2.38931 18.4895 2.65216 18.9849C2.91501 19.4398 2.91501 19.4398 2.88468 19.4398C2.84424 19.4398 2.77348 19.4398 2.6926 19.4398C2.5814 19.4398 2.42975 19.4398 2.23767 19.4398C2.04559 19.4802 1.81307 19.5207 1.59066 19.5914C1.39857 19.6723 1.20649 19.7835 1.01441 19.8947C0.822327 20.0059 0.670683 20.1576 0.559478 20.3497C0.448273 20.5013 0.326958 20.6934 0.256191 20.9259C0.175314 21.1584 0.104547 21.3808 0.104547 21.6134C0.0641092 21.8459 0.0641092 22.0683 0.104547 22.2604C0.144986 22.4929 0.215755 22.7153 0.296632 22.9074C0.377508 23.0995 0.529151 23.2915 0.680794 23.4836C0.872876 23.6757 1.1054 23.8678 1.28737 24.0194C1.47945 24.1711 1.63109 24.252 1.7423 24.2823C1.89394 24.3227 2.00515 24.3227 2.12646 24.2823C2.24778 24.2419 2.27811 24.2014 2.58139 23.706C2.88468 23.2107 3.46093 22.2199 3.76421 21.7144C4.0675 21.2191 4.30002 20.7642 4.30002 20.7642C4.30002 20.7642 4.56287 21.2191 4.83582 21.7144C5.09867 22.2098 5.71536 23.2005 6.01865 23.706C6.32193 24.2014 6.40281 24.2419 6.47358 24.2823C6.55445 24.3227 6.7061 24.3227 6.85774 24.2823C7.00938 24.2419 7.12059 24.1711 7.31267 24.0194C7.50475 23.8678 7.73727 23.6757 7.91924 23.4836C8.11133 23.2915 8.22254 23.0995 8.30341 22.9074C8.38429 22.7153 8.45505 22.4828 8.49549 22.2604C8.63703 22.038 8.63703 21.8459 8.59659 21.6134ZM3.24863 20.8147C2.98578 21.3505 2.36909 22.4221 2.06581 22.9175C1.72208 23.4129 1.68164 23.3724 1.61088 23.2208C1.53 23.0691 1.37836 22.7962 1.30759 22.5333C1.22671 22.2705 1.22671 21.9571 1.30759 21.6538C1.38847 21.391 1.54011 21.118 1.65131 20.9259C1.80295 20.7338 1.9546 20.6226 2.10624 20.5013C2.29832 20.3901 2.49041 20.3092 2.68249 20.2688C2.87457 20.2283 3.06665 20.1879 3.17786 20.1879C3.35983 20.2385 3.51148 20.2789 3.24863 20.8147ZM7.45421 22.5333C7.37333 22.7962 7.26213 23.0691 7.15092 23.2208C7.07004 23.3724 7.03971 23.4129 6.69599 22.9175C6.35226 22.4221 5.74569 21.3505 5.51317 20.8147C5.25032 20.2789 5.36152 20.2385 5.51317 20.2385C5.66481 20.2385 5.81646 20.2384 6.00854 20.3193C6.20062 20.3598 6.3927 20.4305 6.58479 20.5518C6.77687 20.6631 6.92851 20.7844 7.03972 20.9764C7.19136 21.1685 7.30256 21.4314 7.38344 21.7044C7.48453 21.9571 7.48454 22.23 7.45421 22.5333Z" fill="black"/>
<path d="M496.909 21.6134C496.869 21.3808 496.828 21.118 496.757 20.9259C496.677 20.6934 496.565 20.5417 496.454 20.3497C496.343 20.198 496.151 20.0464 495.999 19.8947C495.807 19.7835 495.655 19.6622 495.423 19.5914C495.231 19.5106 494.968 19.4398 494.776 19.4398C494.584 19.3994 494.432 19.4398 494.321 19.4398C494.21 19.4398 494.129 19.4398 494.129 19.4398C494.089 19.4398 494.088 19.4398 494.361 18.9849C494.624 18.5299 495.969 16.4271 496.232 15.9318C496.495 15.4364 496.495 15.396 496.495 15.3252C496.495 15.2544 496.495 15.1331 496.414 15.0219C496.373 14.9107 496.262 14.8298 496.181 14.7591C496.1 14.7186 492.663 19.2679 492.663 19.2679C492.663 19.2679 489.266 14.7186 489.145 14.7591C489.064 14.7995 488.953 14.9107 488.912 15.0219C488.872 15.1331 488.832 15.2544 488.832 15.3252C488.832 15.4061 488.832 15.4364 489.094 15.9318C489.357 16.4271 490.702 18.4895 490.965 18.9849C491.228 19.4398 491.228 19.4398 491.197 19.4398C491.157 19.4398 491.086 19.4398 491.005 19.4398C490.894 19.4398 490.742 19.4398 490.55 19.4398C490.358 19.4802 490.126 19.5207 489.903 19.5914C489.711 19.6723 489.519 19.7835 489.327 19.8947C489.135 20.0059 488.983 20.1576 488.872 20.3497C488.761 20.5013 488.639 20.6934 488.569 20.9259C488.488 21.1584 488.417 21.3808 488.417 21.6134C488.377 21.8459 488.377 22.0683 488.417 22.2604C488.457 22.4929 488.528 22.7153 488.609 22.9074C488.69 23.0995 488.842 23.2915 488.993 23.4836C489.185 23.6757 489.418 23.8678 489.6 24.0194C489.792 24.1711 489.944 24.252 490.055 24.2823C490.206 24.3227 490.318 24.3227 490.439 24.2823C490.55 24.2419 490.591 24.2014 490.894 23.706C491.197 23.2107 491.773 22.2199 492.077 21.7144C492.38 21.2191 492.613 20.7642 492.613 20.7642C492.613 20.7642 492.875 21.2191 493.148 21.7144C493.411 22.2098 494.028 23.2005 494.331 23.706C494.634 24.2014 494.715 24.2419 494.786 24.2823C494.857 24.3227 495.019 24.3227 495.17 24.2823C495.322 24.2419 495.433 24.1711 495.625 24.0194C495.817 23.8678 496.05 23.6757 496.232 23.4836C496.424 23.2915 496.535 23.0995 496.616 22.9074C496.697 22.7153 496.768 22.4828 496.808 22.2604C496.95 22.038 496.95 21.8459 496.909 21.6134ZM491.561 20.8147C491.298 21.3505 490.682 22.4221 490.378 22.9175C490.035 23.4129 489.994 23.3724 489.923 23.2208C489.842 23.0691 489.691 22.7962 489.62 22.5333C489.539 22.2705 489.539 21.9571 489.62 21.6538C489.701 21.391 489.853 21.118 489.964 20.9259C490.115 20.7338 490.267 20.6226 490.419 20.5013C490.611 20.3901 490.803 20.3092 490.995 20.2688C491.187 20.2283 491.379 20.1879 491.49 20.1879C491.672 20.2385 491.834 20.2789 491.561 20.8147ZM495.767 22.5333C495.686 22.7962 495.575 23.0691 495.463 23.2208C495.383 23.3724 495.352 23.4129 495.009 22.9175C494.665 22.4221 494.058 21.3505 493.826 20.8147C493.563 20.2789 493.674 20.2385 493.826 20.2385C493.977 20.2385 494.129 20.2384 494.321 20.3193C494.513 20.3598 494.705 20.4305 494.897 20.5518C495.089 20.6631 495.241 20.7844 495.352 20.9764C495.504 21.1685 495.615 21.4314 495.696 21.7044C495.807 21.9571 495.807 22.23 495.767 22.5333Z" fill="black"/>
<path d="M4.74489 38.8506H3.97656V46.4934H4.74489V38.8506Z" fill="black"/>
<path d="M493.057 38.8506H492.289V46.4934H493.057V38.8506Z" fill="black"/>
<path d="M500.7 38.2334H493.058V39.0017H500.7V38.2334Z" fill="black"/>
<path d="M500.7 -0.12207H493.058V0.646267H500.7V-0.12207Z" fill="black"/>
<path d="M486.365 42.8535H12.1855V43.2377H486.365V42.8535Z" fill="black"/>
<path d="M4.73438 43.0455L12.3772 41.1348V44.9562L4.73438 43.0455Z" fill="black"/>
<path d="M492.288 43.0455L484.646 41.1348V44.9562L492.288 43.0455Z" fill="black"/>
<path d="M498.78 0.635742L496.869 8.27859H500.691L498.78 0.635742Z" fill="black"/>
<path d="M498.78 38.2337L496.869 30.5908H500.691L498.78 38.2337Z" fill="black"/>
<path d="M498.982 7.89453H498.598V31.2072H498.982V7.89453Z" fill="black"/>
<path d="M505.752 25.9697C506.1 25.9697 506.411 26.0593 506.685 26.2383C506.955 26.4173 507.168 26.6615 507.324 26.9707C507.497 26.5996 507.733 26.3148 508.032 26.1162C508.332 25.9144 508.67 25.8135 509.048 25.8135C509.673 25.8135 510.169 26.0251 510.537 26.4482C510.902 26.8714 511.084 27.4346 511.084 28.1377C511.084 28.8441 510.9 29.4105 510.532 29.8369C510.164 30.2601 509.67 30.4717 509.048 30.4717C508.667 30.4717 508.325 30.3708 508.022 30.1689C507.72 29.9671 507.487 29.6839 507.324 29.3193C507.168 29.6253 506.955 29.8678 506.685 30.0469C506.411 30.2227 506.1 30.3105 505.752 30.3105C505.146 30.3105 504.666 30.1152 504.312 29.7246C503.957 29.334 503.779 28.8066 503.779 28.1426C503.779 27.4753 503.957 26.9463 504.312 26.5557C504.666 26.165 505.146 25.9697 505.752 25.9697ZM508.989 27C508.638 27 508.354 27.1058 508.14 27.3174C507.922 27.5257 507.813 27.8024 507.813 28.1475C507.813 28.4925 507.92 28.7692 508.135 28.9775C508.35 29.1826 508.634 29.2852 508.989 29.2852C509.338 29.2852 509.616 29.1842 509.824 28.9824C510.033 28.7773 510.137 28.4958 510.137 28.1377C510.137 27.7796 510.036 27.5013 509.834 27.3027C509.632 27.1009 509.351 27 508.989 27ZM505.796 27.1514C505.487 27.1514 505.233 27.2409 505.034 27.4199C504.832 27.599 504.731 27.8398 504.731 28.1426C504.731 28.4453 504.827 28.6846 505.02 28.8604C505.208 29.0361 505.467 29.124 505.796 29.124C506.121 29.124 506.38 29.0361 506.572 28.8604C506.764 28.6813 506.86 28.4404 506.86 28.1377C506.86 27.835 506.764 27.5957 506.572 27.4199C506.38 27.2409 506.121 27.1514 505.796 27.1514ZM505.703 23.5723L506.255 23.5381C505.822 23.167 505.605 22.6592 505.605 22.0147C505.605 21.3083 505.876 20.8249 506.416 20.5645C505.876 20.1804 505.605 19.64 505.605 18.9434C505.605 18.3607 505.767 17.9278 506.089 17.6446C506.411 17.3581 506.886 17.2116 507.515 17.2051H510.986V18.3916H507.549C507.214 18.3916 506.968 18.4649 506.812 18.6113C506.655 18.7578 506.577 19.0003 506.577 19.3389C506.577 19.6091 506.65 19.8304 506.797 20.0029C506.94 20.1722 507.129 20.291 507.363 20.3594L510.986 20.3545V21.541H507.51C506.888 21.5573 506.577 21.8747 506.577 22.4932C506.577 22.9684 506.771 23.3054 507.158 23.5039H510.986V24.6904H505.703V23.5723ZM505.703 14.8711L506.255 14.8369C505.822 14.4658 505.605 13.958 505.605 13.3135C505.605 12.6071 505.876 12.1237 506.416 11.8633C505.876 11.4792 505.605 10.9388 505.605 10.2422C505.605 9.65954 505.767 9.2266 506.089 8.9434C506.411 8.65694 506.886 8.51046 507.515 8.50394H510.986V9.69047H507.549C507.214 9.69047 506.968 9.76371 506.812 9.91019C506.655 10.0567 506.577 10.2992 506.577 10.6377C506.577 10.9079 506.65 11.1293 506.797 11.3018C506.94 11.4711 507.129 11.5899 507.363 11.6582L510.986 11.6534V12.8399H507.51C506.888 12.8562 506.577 13.1735 506.577 13.792C506.577 14.2673 506.771 14.6042 507.158 14.8028H510.986V15.9893H505.703V14.8711Z" fill="black"/>
<path d="M235.032 55.5791H233.851V49.8711L232.107 50.4668V49.4658L234.881 48.4453H235.032V55.5791ZM242.137 52.5859C242.137 53.6081 241.945 54.3796 241.561 54.9004C241.18 55.418 240.599 55.6768 239.817 55.6768C239.049 55.6768 238.47 55.4245 238.079 54.9199C237.692 54.4121 237.493 53.6618 237.483 52.669V51.4385C237.483 50.4164 237.674 49.6497 238.055 49.1387C238.439 48.6276 239.023 48.3721 239.808 48.3721C240.586 48.3721 241.165 48.6211 241.546 49.1192C241.93 49.6172 242.127 50.3626 242.137 51.3555V52.5859ZM240.95 51.2578C240.95 50.5905 240.859 50.1022 240.677 49.793C240.494 49.4805 240.205 49.3242 239.808 49.3242C239.42 49.3242 239.135 49.4723 238.953 49.7686C238.771 50.0615 238.675 50.5205 238.665 51.1455V52.7568C238.665 53.4209 238.758 53.9157 238.943 54.2412C239.129 54.5667 239.42 54.7295 239.817 54.7295C240.198 54.7295 240.48 54.5798 240.662 54.2803C240.844 53.9775 240.94 53.5055 240.95 52.8643V51.2578ZM247.82 52.5859C247.82 53.6081 247.628 54.3796 247.244 54.9004C246.863 55.418 246.282 55.6768 245.501 55.6768C244.733 55.6768 244.153 55.4245 243.763 54.9199C243.375 54.4121 243.177 53.6618 243.167 52.669V51.4385C243.167 50.4164 243.357 49.6497 243.738 49.1387C244.122 48.6276 244.707 48.3721 245.491 48.3721C246.269 48.3721 246.849 48.6211 247.229 49.1192C247.614 49.6172 247.811 50.3626 247.82 51.3555V52.5859ZM246.634 51.2578C246.634 50.5905 246.543 50.1022 246.36 49.793C246.178 49.4805 245.888 49.3242 245.491 49.3242C245.104 49.3242 244.819 49.4723 244.637 49.7686C244.454 50.0615 244.358 50.5205 244.349 51.1455V52.7568C244.349 53.4209 244.441 53.9157 244.627 54.2412C244.812 54.5667 245.104 54.7295 245.501 54.7295C245.882 54.7295 246.163 54.5798 246.346 54.2803C246.528 53.9775 246.624 53.5055 246.634 52.8643V51.2578ZM250.061 50.2959L250.096 50.8477C250.467 50.4147 250.975 50.1983 251.619 50.1983C252.325 50.1983 252.809 50.4684 253.069 51.0088C253.453 50.4684 253.994 50.1983 254.69 50.1983C255.273 50.1983 255.706 50.3594 255.989 50.6816C256.276 51.0039 256.422 51.4792 256.429 52.1074V55.5791H255.242V52.1416C255.242 51.8063 255.169 51.5606 255.022 51.4043C254.876 51.2481 254.633 51.1699 254.295 51.1699C254.025 51.1699 253.803 51.2432 253.631 51.3897C253.462 51.5329 253.343 51.7217 253.274 51.9561L253.279 55.5791H252.093V52.1025C252.076 51.4808 251.759 51.1699 251.141 51.1699C250.665 51.1699 250.328 51.3636 250.13 51.751V55.5791H248.943V50.2959H250.061ZM258.763 50.2959L258.797 50.8477C259.168 50.4147 259.676 50.1983 260.32 50.1983C261.027 50.1983 261.51 50.4684 261.77 51.0088C262.155 50.4684 262.695 50.1983 263.392 50.1983C263.974 50.1983 264.407 50.3594 264.69 50.6816C264.977 51.0039 265.123 51.4792 265.13 52.1074V55.5791H263.943V52.1416C263.943 51.8063 263.87 51.5606 263.724 51.4043C263.577 51.2481 263.335 51.1699 262.996 51.1699C262.726 51.1699 262.505 51.2432 262.332 51.3897C262.163 51.5329 262.044 51.7217 261.976 51.9561L261.98 55.5791H260.794V52.1025C260.778 51.4808 260.46 51.1699 259.842 51.1699C259.366 51.1699 259.03 51.3636 258.831 51.751V55.5791H257.644V50.2959H258.763Z" fill="black"/>
<path d="M211.445 14.3955H203.044V27.0021H211.445V14.3955Z" fill="#999999"/>
<path d="M210.687 15.1533H203.812V26.2334H210.687V15.1533Z" fill="black"/>
<path d="M203.044 27.002V28.4173C203.044 29.5293 203.964 30.4392 205.066 30.4392H209.423C210.535 30.4392 211.445 29.5192 211.445 28.4173V27.002H203.044Z" fill="#B3B3B3"/>
<path d="M203.044 14.3953V12.9799C203.044 11.8679 203.964 10.958 205.066 10.958H209.423C210.535 10.958 211.445 11.878 211.445 12.9799V14.3953H203.044Z" fill="#B3B3B3"/>
<path d="M290.543 14.3955H282.142V27.0021H290.543V14.3955Z" fill="#999999"/>
<path d="M289.774 15.1533H282.899V26.2334H289.774V15.1533Z" fill="black"/>
<path d="M282.142 27.002V28.4173C282.142 29.5293 283.062 30.4392 284.164 30.4392H288.521C289.633 30.4392 290.543 29.5192 290.543 28.4173V27.002H282.142Z" fill="#B3B3B3"/>
<path d="M282.142 14.3953V12.9799C282.142 11.8679 283.062 10.958 284.164 10.958H288.521C289.633 10.958 290.543 11.878 290.543 12.9799V14.3953H282.142Z" fill="#B3B3B3"/>
<path d="M445.664 14.3955H437.263V27.0021H445.664V14.3955Z" fill="#999999"/>
<path d="M444.906 15.1533H438.031V26.2334H444.906V15.1533Z" fill="black"/>
<path d="M437.263 27.002V28.4173C437.263 29.5293 438.183 30.4392 439.285 30.4392H443.642C444.754 30.4392 445.664 29.5192 445.664 28.4173V27.002H437.263Z" fill="#B3B3B3"/>
<path d="M437.263 14.3953V12.9799C437.263 11.8679 438.183 10.958 439.285 10.958H443.642C444.754 10.958 445.664 11.878 445.664 12.9799V14.3953H437.263Z" fill="#B3B3B3"/>
<path d="M56.6979 14.3955H48.2969V27.0021H56.6979V14.3955Z" fill="#999999"/>
<path d="M55.9399 15.1533H49.0654V26.2334H55.9399V15.1533Z" fill="black"/>
<path d="M48.2969 27.002V28.4173C48.2969 29.5293 49.2168 30.4392 50.3188 30.4392H54.676C55.7881 30.4392 56.6979 29.5192 56.6979 28.4173V27.002H48.2969Z" fill="#B3B3B3"/>
<path d="M48.2969 14.3953V12.9799C48.2969 11.8679 49.2168 10.958 50.3188 10.958H54.676C55.7881 10.958 56.6979 11.878 56.6979 12.9799V14.3953H48.2969Z" fill="#B3B3B3"/>
<path d="M77.9378 11.2207H64.1787V27.6488H77.9378V11.2207Z" fill="#EFEFEF"/>
<path d="M76.3811 11.2211H77.9076L77.5234 10.8369H63.7744L64.1485 11.6052H75.9969L77.9076 13.516V12.7476L76.3811 11.2211Z" fill="white"/>
<path d="M63.7744 10.8369V27.265L64.1485 27.6491V11.6052" fill="#999999"/>
<path d="M67.9697 30.3285H72.9335C74.4196 30.3285 75.6125 29.1456 75.6125 27.6494H65.3008C65.3008 29.1456 66.524 30.3285 67.9697 30.3285Z" fill="#B3B3B3"/>
<path d="M67.9697 8.54199H72.9335C74.4196 8.54199 75.6125 9.7248 75.6125 11.221H65.3008C65.3008 9.73491 66.524 8.54199 67.9697 8.54199Z" fill="#B3B3B3"/>
<path d="M155.944 11.2207H142.185V27.6488H155.944V11.2207Z" fill="#EFEFEF"/>
<path d="M154.407 11.2211H155.933L155.549 10.8369H141.79L142.174 11.6052H154.023L155.933 13.516V12.7476L154.407 11.2211Z" fill="white"/>
<path d="M141.79 10.8369V27.265L142.174 27.6491V11.6052" fill="#999999"/>
<path d="M145.996 30.3285H150.96C152.446 30.3285 153.639 29.1456 153.639 27.6494H143.327C143.327 29.1456 144.51 30.3285 145.996 30.3285Z" fill="#B3B3B3"/>
<path d="M145.996 8.54199H150.96C152.446 8.54199 153.639 9.7248 153.639 11.221H143.327C143.327 9.73491 144.51 8.54199 145.996 8.54199Z" fill="#B3B3B3"/>
<path d="M233.959 11.2207H220.2V27.6488H233.959V11.2207Z" fill="#EFEFEF"/>
<path d="M232.422 11.2211H233.959L233.575 10.8369H219.815L220.2 11.6052H232.048L233.959 13.516V12.7476L232.422 11.2211Z" fill="white"/>
<path d="M219.815 10.8369V27.265L220.2 27.6491V11.6052" fill="#999999"/>
<path d="M224.022 30.3285H228.985C230.471 30.3285 231.664 29.1456 231.664 27.6494H221.353C221.342 29.1456 222.535 30.3285 224.022 30.3285Z" fill="#B3B3B3"/>
<path d="M224.022 8.54199H228.985C230.471 8.54199 231.664 9.7248 231.664 11.221H221.353C221.342 9.73491 222.535 8.54199 224.022 8.54199Z" fill="#B3B3B3"/>
<path d="M311.964 11.2207H298.205V27.6488H311.964V11.2207Z" fill="#EFEFEF"/>
<path d="M310.448 11.2211H311.975L311.601 10.8369H297.842L298.226 11.6052H310.064L311.975 13.516V12.7476L310.448 11.2211Z" fill="white"/>
<path d="M297.842 10.8369V27.265L298.226 27.6491V11.6052" fill="#999999"/>
<path d="M302.047 30.3285H307.011C308.497 30.3285 309.69 29.1456 309.69 27.6494H299.378C299.368 29.1456 300.551 30.3285 302.047 30.3285Z" fill="#B3B3B3"/>
<path d="M302.047 8.54199H307.011C308.497 8.54199 309.69 9.7248 309.69 11.221H299.378C299.368 9.73491 300.551 8.54199 302.047 8.54199Z" fill="#B3B3B3"/>
<path d="M389.97 11.2207H376.211V27.6488H389.97V11.2207Z" fill="#EFEFEF"/>
<path d="M388.474 11.2211H390L389.616 10.8369H375.867L376.251 11.6052H388.09L390 13.516V12.7476L388.474 11.2211Z" fill="white"/>
<path d="M375.867 10.8369V27.265L376.251 27.6491V11.6052" fill="#999999"/>
<path d="M380.063 30.3285H385.026C386.512 30.3285 387.705 29.1456 387.705 27.6494H377.394C377.394 29.1456 378.576 30.3285 380.063 30.3285Z" fill="#B3B3B3"/>
<path d="M380.063 8.54199H385.026C386.512 8.54199 387.705 9.7248 387.705 11.221H377.394C377.394 9.73491 378.576 8.54199 380.063 8.54199Z" fill="#B3B3B3"/>
<path d="M468.026 11.2207H454.267V27.6488H468.026V11.2207Z" fill="#EFEFEF"/>
<path d="M466.459 11.2211H467.986L467.602 10.8369H453.853L454.237 11.6052H466.075L467.986 13.516V12.7476L466.459 11.2211Z" fill="white"/>
<path d="M453.853 10.8369V27.265L454.237 27.6491V11.6052" fill="#999999"/>
<path d="M458.048 30.3285H463.012C464.498 30.3285 465.691 29.1456 465.691 27.6494H455.379C455.379 29.1456 456.602 30.3285 458.048 30.3285Z" fill="#B3B3B3"/>
<path d="M458.048 8.54199H463.012C464.498 8.54199 465.691 9.7248 465.691 11.221H455.379C455.379 9.73491 456.602 8.54199 458.048 8.54199Z" fill="#B3B3B3"/>
<path d="M38.9349 11.2207H25.1758V27.6488H38.9349V11.2207Z" fill="#EFEFEF"/>
<path d="M37.3684 11.2211H38.8949L38.5107 10.8369H24.7617L25.1459 11.6052H36.9842L38.8949 13.516V12.7476L37.3684 11.2211Z" fill="white"/>
<path d="M24.7617 10.8369V27.265L25.1459 27.6491V11.6052" fill="#999999"/>
<path d="M28.9668 30.3285H33.9306C35.4167 30.3285 36.6097 29.1456 36.6097 27.6494H26.2979C26.2878 29.1456 27.5111 30.3285 28.9668 30.3285Z" fill="#B3B3B3"/>
<path d="M28.9668 8.54199H33.9306C35.4167 8.54199 36.6097 9.7248 36.6097 11.221H26.2979C26.2878 9.73491 27.5111 8.54199 28.9668 8.54199Z" fill="#B3B3B3"/>
<path d="M116.941 11.2207H103.182V27.6488H116.941V11.2207Z" fill="#EFEFEF"/>
<path d="M115.394 11.2211H116.92L116.536 10.8369H102.787L103.161 11.6052H115.01L116.92 13.516V12.7476L115.394 11.2211Z" fill="white"/>
<path d="M102.787 10.8369V27.265L103.161 27.6491V11.6052" fill="#999999"/>
<path d="M106.982 30.3285H111.946C113.432 30.3285 114.625 29.1456 114.625 27.6494H104.313C104.313 29.1456 105.537 30.3285 106.982 30.3285Z" fill="#B3B3B3"/>
<path d="M106.982 8.54199H111.946C113.432 8.54199 114.625 9.7248 114.625 11.221H104.313C104.313 9.73491 105.537 8.54199 106.982 8.54199Z" fill="#B3B3B3"/>
<path d="M194.947 11.2207H181.188V27.6488H194.947V11.2207Z" fill="#EFEFEF"/>
<path d="M193.419 11.2211H194.946L194.562 10.8369H180.803L181.187 11.6052H193.035L194.946 13.516V12.7476L193.419 11.2211Z" fill="white"/>
<path d="M180.803 10.8369V27.265L181.187 27.6491V11.6052" fill="#999999"/>
<path d="M185.009 30.3285H189.973C191.459 30.3285 192.652 29.1456 192.652 27.6494H182.34C182.33 29.1456 183.523 30.3285 185.009 30.3285Z" fill="#B3B3B3"/>
<path d="M185.009 8.54199H189.973C191.459 8.54199 192.652 9.7248 192.652 11.221H182.34C182.33 9.73491 183.523 8.54199 185.009 8.54199Z" fill="#B3B3B3"/>
<path d="M272.962 11.2207H259.203V27.6488H272.962V11.2207Z" fill="#EFEFEF"/>
<path d="M271.435 11.2211H272.971L272.587 10.8369H258.828L259.212 11.6052H271.061L272.971 13.516V12.7476L271.435 11.2211Z" fill="white"/>
<path d="M258.828 10.8369V27.265L259.212 27.6491V11.6052" fill="#999999"/>
<path d="M263.034 30.3285H267.998C269.484 30.3285 270.677 29.1456 270.677 27.6494H260.365C260.355 29.1456 261.538 30.3285 263.034 30.3285Z" fill="#B3B3B3"/>
<path d="M263.034 8.54199H267.998C269.484 8.54199 270.677 9.7248 270.677 11.221H260.365C260.355 9.73491 261.538 8.54199 263.034 8.54199Z" fill="#B3B3B3"/>
<path d="M350.967 11.2207H337.208V27.6488H350.967V11.2207Z" fill="#EFEFEF"/>
<path d="M349.461 11.2211H350.988L350.603 10.8369H336.854L337.239 11.6052H349.077L350.988 13.516V12.7476L349.461 11.2211Z" fill="white"/>
<path d="M336.854 10.8369V27.265L337.239 27.6491V11.6052" fill="#999999"/>
<path d="M341.06 30.3285H346.023C347.51 30.3285 348.702 29.1456 348.702 27.6494H338.391C338.381 29.1456 339.563 30.3285 341.06 30.3285Z" fill="#B3B3B3"/>
<path d="M341.06 8.54199H346.023C347.51 8.54199 348.702 9.7248 348.702 11.221H338.391C338.381 9.73491 339.563 8.54199 341.06 8.54199Z" fill="#B3B3B3"/>
<path d="M429.013 11.2207H415.254V27.6488H429.013V11.2207Z" fill="#EFEFEF"/>
<path d="M427.446 11.2211H428.973L428.589 10.8369H414.84L415.224 11.6052H427.062L428.973 13.516V12.7476L427.446 11.2211Z" fill="white"/>
<path d="M414.84 10.8369V27.265L415.224 27.6491V11.6052" fill="#999999"/>
<path d="M419.045 30.3285H424.009C425.495 30.3285 426.688 29.1456 426.688 27.6494H416.376C416.366 29.1456 417.589 30.3285 419.045 30.3285Z" fill="#B3B3B3"/>
<path d="M419.045 8.54199H424.009C425.495 8.54199 426.688 9.7248 426.688 11.221H416.376C416.366 9.73491 417.589 8.54199 419.045 8.54199Z" fill="#B3B3B3"/>
<path d="M19.8279 35.7158H18.6855V35.0688H19.8279V33.7646H20.5154V35.0688H21.6578V35.7158H20.5154V36.9391H19.8279V35.7158Z" fill="black"/>
<path d="M19.8279 4.00248H18.6855V3.35547H19.8279H20.5154H21.6578V4.00248H20.5154H19.8279Z" fill="black"/>
<path d="M27.5796 37.8105H24.0199V37.3143L25.9005 35.2247C26.1791 34.9088 26.3706 34.6525 26.4751 34.456C26.5821 34.257 26.6356 34.0518 26.6356 33.8403C26.6356 33.5568 26.5497 33.3242 26.3781 33.1426C26.2065 32.961 25.9776 32.8702 25.6915 32.8702C25.3482 32.8702 25.0808 32.9684 24.8893 33.165C24.7002 33.359 24.6057 33.6301 24.6057 33.9784H23.9154C23.9154 33.4784 24.0758 33.0742 24.3967 32.7657C24.7201 32.4572 25.1517 32.303 25.6915 32.303C26.1965 32.303 26.5958 32.4361 26.8893 32.7023C27.1828 32.966 27.3296 33.318 27.3296 33.7583C27.3296 34.2931 26.9888 34.9299 26.3072 35.6687L24.852 37.2471H27.5796V37.8105ZM31.2252 35.9859H31.9789V36.5493H31.2252V37.8105H30.5311V36.5493H28.0572V36.1426L30.4901 32.3776H31.2252V35.9859ZM28.8408 35.9859H30.5311V33.3217L30.449 33.4709L28.8408 35.9859ZM34.5797 36.859L36.1319 32.3776H36.9155L34.9006 37.8105H34.2663L32.255 32.3776H33.0349L34.5797 36.859Z" fill="black"/>
<path d="M472.605 35.7158H471.463V35.0688H472.605V33.7646H473.293V35.0688H474.435V35.7158H473.293V36.9391H472.605V35.7158Z" fill="black"/>
<path d="M472.605 4.00248H471.463V3.35547H472.605H473.293H474.435V4.00248H473.293H472.605Z" fill="black"/>
<path d="M461.637 37.8105H458.077V37.3143L459.958 35.2247C460.237 34.9088 460.428 34.6525 460.533 34.456C460.64 34.257 460.693 34.0518 460.693 33.8403C460.693 33.5568 460.607 33.3242 460.436 33.1426C460.264 32.961 460.035 32.8702 459.749 32.8702C459.406 32.8702 459.138 32.9684 458.947 33.165C458.758 33.359 458.663 33.6301 458.663 33.9784H457.973C457.973 33.4784 458.133 33.0742 458.454 32.7657C458.778 32.4572 459.209 32.303 459.749 32.303C460.254 32.303 460.653 32.4361 460.947 32.7023C461.24 32.966 461.387 33.318 461.387 33.7583C461.387 34.2931 461.046 34.9299 460.365 35.6687L458.91 37.2471H461.637V37.8105ZM465.283 35.9859H466.037V36.5493H465.283V37.8105H464.589V36.5493H462.115V36.1426L464.548 32.3776H465.283V35.9859ZM462.898 35.9859H464.589V33.3217L464.507 33.4709L462.898 35.9859ZM468.637 36.859L470.19 32.3776H470.973L468.958 37.8105H468.324L466.313 32.3776H467.093L468.637 36.859Z" fill="black"/>
<path d="M54.3115 23.4133V23.8991H51.091L51.4488 24.8733H51.01L50.4902 23.489V23.4133H54.3115ZM54.3115 19.5058V21.9976H53.9641L52.5014 20.6812C52.2803 20.4861 52.1009 20.3521 51.9634 20.2789C51.8241 20.204 51.6804 20.1666 51.5324 20.1666C51.3339 20.1666 51.1711 20.2267 51.044 20.3468C50.9168 20.467 50.8533 20.6272 50.8533 20.8274C50.8533 21.0677 50.9221 21.2549 51.0596 21.389C51.1955 21.5213 51.3853 21.5875 51.629 21.5875V22.0707C51.279 22.0707 50.9961 21.9584 50.7802 21.7338C50.5642 21.5074 50.4563 21.2053 50.4563 20.8274C50.4563 20.4739 50.5494 20.1945 50.7358 19.989C50.9203 19.7835 51.1667 19.6808 51.4749 19.6808C51.8493 19.6808 52.2951 19.9193 52.8123 20.3965L53.9171 21.4151V19.5058H54.3115ZM54.3115 17.4058V17.8916H51.091L51.4488 18.8658H51.01L50.4902 17.4815V17.4058H54.3115Z" fill="white"/>
<path d="M443.282 23.4133V23.8991H440.062L440.42 24.8733H439.981L439.461 23.489V23.4133H443.282ZM443.282 19.5058V21.9976H442.935L441.472 20.6812C441.251 20.4861 441.072 20.3521 440.934 20.2789C440.795 20.204 440.651 20.1666 440.503 20.1666C440.305 20.1666 440.142 20.2267 440.015 20.3468C439.888 20.467 439.824 20.6272 439.824 20.8274C439.824 21.0677 439.893 21.2549 440.03 21.389C440.166 21.5213 440.356 21.5875 440.6 21.5875V22.0707C440.25 22.0707 439.967 21.9584 439.751 21.7338C439.535 21.5074 439.427 21.2053 439.427 20.8274C439.427 20.4739 439.52 20.1945 439.706 19.989C439.891 19.7835 440.137 19.6808 440.446 19.6808C440.82 19.6808 441.266 19.9193 441.783 20.3965L442.888 21.4151V19.5058H443.282ZM443.282 17.4058V17.8916H440.062L440.42 18.8658H439.981L439.461 17.4815V17.4058H443.282Z" fill="white"/>
<path d="M288.152 23.4133V23.8991H284.932L285.29 24.8733H284.851L284.331 23.489V23.4133H288.152ZM288.152 19.5058V21.9976H287.805L286.342 20.6812C286.121 20.4861 285.942 20.3521 285.804 20.2789C285.665 20.204 285.521 20.1666 285.373 20.1666C285.175 20.1666 285.012 20.2267 284.885 20.3468C284.758 20.467 284.694 20.6272 284.694 20.8274C284.694 21.0677 284.763 21.2549 284.9 21.389C285.036 21.5213 285.226 21.5875 285.47 21.5875V22.0707C285.12 22.0707 284.837 21.9584 284.621 21.7338C284.405 21.5074 284.297 21.2053 284.297 20.8274C284.297 20.4739 284.39 20.1945 284.577 19.989C284.761 19.7835 285.008 19.6808 285.316 19.6808C285.69 19.6808 286.136 19.9193 286.653 20.3965L287.758 21.4151V19.5058H288.152ZM288.152 17.4058V17.8916H284.932L285.29 18.8658H284.851L284.331 17.4815V17.4058H288.152Z" fill="white"/>
<path d="M209.06 23.4133V23.8991H205.839L206.197 24.8733H205.758L205.238 23.489V23.4133H209.06ZM209.06 19.5058V21.9976H208.712L207.249 20.6812C207.028 20.4861 206.849 20.3521 206.711 20.2789C206.572 20.204 206.428 20.1666 206.28 20.1666C206.082 20.1666 205.919 20.2267 205.792 20.3468C205.665 20.467 205.601 20.6272 205.601 20.8274C205.601 21.0677 205.67 21.2549 205.808 21.389C205.944 21.5213 206.133 21.5875 206.377 21.5875V22.0707C206.027 22.0707 205.744 21.9584 205.528 21.7338C205.312 21.5074 205.204 21.2053 205.204 20.8274C205.204 20.4739 205.297 20.1945 205.484 19.989C205.668 19.7835 205.915 19.6808 206.223 19.6808C206.597 19.6808 207.043 19.9193 207.56 20.3965L208.665 21.4151V19.5058H209.06ZM209.06 17.4058V17.8916H205.839L206.197 18.8658H205.758L205.238 17.4815V17.4058H209.06Z" fill="white"/>
<path d="M76.7956 24.4845L74.5108 26.7693H67.4746L65.1797 24.4845V14.5468L67.4746 12.252H74.5108L76.7956 14.5468V24.4845Z" fill="#FFF786"/>
<path d="M154.821 24.4845L152.526 26.7693H145.5L143.205 24.4845V14.5468L145.5 12.252H152.526L154.821 14.5468V24.4845Z" fill="#FFF786"/>
<path d="M232.846 24.4845L230.551 26.7693H223.525L221.23 24.4845V14.5468L223.525 12.252H230.551L232.846 14.5468V24.4845Z" fill="#FFF786"/>
<path d="M310.872 24.4845L308.577 26.7693H301.511L299.216 24.4845V14.5468L301.511 12.252H308.577L310.872 14.5468V24.4845Z" fill="#FFF786"/>
<path d="M388.858 24.4845L386.563 26.7693H379.537L377.242 24.4845V14.5468L379.537 12.252H386.563L388.858 14.5468V24.4845Z" fill="#FFF786"/>
<path d="M466.883 24.4845L464.589 26.7693H457.552L455.268 24.4845V14.5468L457.552 12.252H464.589L466.883 14.5468V24.4845Z" fill="#FFF786"/>
<path d="M115.808 24.4845L113.524 26.7693H106.487L104.192 24.4845V14.5468L106.487 12.252H113.524L115.808 14.5468V24.4845Z" fill="#FFE876"/>
<path d="M37.7927 24.4845L35.4978 26.7693H28.4615L26.1768 24.4845V14.5468L28.4615 12.252H35.4978L37.7927 14.5468V24.4845Z" fill="#FFE876"/>
<path d="M193.834 24.4845L191.539 26.7693H184.513L182.218 24.4845V14.5468L184.513 12.252H191.539L193.834 14.5468V24.4845Z" fill="#FFE876"/>
<path d="M271.86 24.4845L269.565 26.7693H262.539L260.244 24.4845V14.5468L262.539 12.252H269.565L271.86 14.5468V24.4845Z" fill="#FFE876"/>
<path d="M349.844 24.4845L347.55 26.7693H340.523L338.229 24.4845V14.5468L340.523 12.252H347.55L349.844 14.5468V24.4845Z" fill="#FFE876"/>
<path d="M427.871 24.4845L425.576 26.7693H418.54L416.255 24.4845V14.5468L418.54 12.252H425.576L427.871 14.5468V24.4845Z" fill="#FFE876"/>
<path d="M61.5908 6.2168H80.3137V32.1984H61.5908V6.2168ZM79.5555 6.98512H62.3591V31.4402H79.5555V6.98512Z" fill="black"/>
<path d="M139.576 6.2168H158.299V32.1984H139.576V6.2168ZM157.541 6.98512H140.344V31.4402H157.541V6.98512Z" fill="black"/>
<path d="M217.602 6.2168H236.324V32.1984H217.602V6.2168ZM235.556 6.98512H218.36V31.4402H235.556V6.98512Z" fill="black"/>
<path d="M295.628 6.2168H314.351V32.1984H295.628V6.2168ZM313.583 6.98512H296.386V31.4402H313.583V6.98512Z" fill="black"/>
<path d="M373.653 6.2168H392.376V32.1984H373.653V6.2168ZM391.608 6.98512H374.412V31.4402H391.608V6.98512Z" fill="black"/>
<path d="M451.669 6.2168H470.392V32.1984H451.669V6.2168ZM469.634 6.98512H452.437V31.4402H469.634V6.98512Z" fill="black"/>
<path d="M22.5781 6.2168H41.3011V32.1984H22.5781V6.2168ZM40.5428 6.98512H23.3465V31.4402H40.5428V6.98512Z" fill="black"/>
<path d="M100.563 6.2168H119.286V32.1984H100.563V6.2168ZM118.528 6.98512H101.332V31.4402H118.528V6.98512Z" fill="black"/>
<path d="M178.589 6.2168H197.312V32.1984H178.589V6.2168ZM196.543 6.98512H179.347V31.4402H196.543V6.98512Z" fill="black"/>
<path d="M256.614 6.2168H275.337V32.1984H256.614V6.2168ZM274.569 6.98512H257.372V31.4402H274.569V6.98512Z" fill="black"/>
<path d="M334.641 6.2168H353.364V32.1984H334.641V6.2168ZM352.595 6.98512H335.399V31.4402H352.595V6.98512Z" fill="black"/>
<path d="M412.656 6.2168H431.379V32.1984H412.656V6.2168ZM430.621 6.98512H413.425V31.4402H430.621V6.98512Z" fill="black"/>
</svg>
