<svg width="51" height="56" viewBox="0 0 51 56" fill="none" xmlns="http://www.w3.org/2000/svg">
<g clip-path="url(#clip0_1378_18691)">
<path d="M28.7485 55.4498H22.5005C21.0427 55.4498 19.3765 54.0748 19.3765 51.3248V46.5123C19.3765 44.2207 18.3352 42.1582 16.6691 40.554C12.9203 37.3457 11.0459 32.7623 11.0459 27.7207C11.2542 19.0124 17.7104 12.1374 25.4162 11.9082C29.3733 11.9082 33.1221 13.5124 35.8295 16.4915C38.537 19.4707 40.2031 23.5957 40.2031 27.9498C40.2031 32.7623 38.3287 37.3457 34.7882 40.3248C32.9138 41.929 31.8725 44.4498 31.8725 46.7415V52.0123C31.8725 53.8456 30.4146 55.4498 28.7485 55.4498ZM25.6245 14.1999C18.96 14.1999 13.3368 20.3874 13.1286 27.7207C13.1286 32.0748 14.7947 36.1998 17.9187 38.7207C20.2096 40.7832 21.4592 43.5332 21.4592 46.5123V51.3248C21.4592 51.7831 21.4592 53.1581 22.5005 53.1581H28.7485C29.3733 53.1581 29.7898 52.6998 29.7898 52.0123V46.7415C29.7898 43.7623 31.2477 40.554 33.5386 38.4915C36.4543 35.9707 38.1204 32.0748 38.1204 27.9498C38.1204 24.2832 36.8709 20.8457 34.3717 18.0957C32.0807 15.5749 28.9568 14.1999 25.6245 14.1999Z" fill="#FFC107"/>
<path d="M25.6245 14.1999C18.96 14.1999 13.3368 20.3874 13.1286 27.7207C13.1286 32.0748 14.7947 36.1998 17.9187 38.7207C20.2096 40.7832 21.4592 43.5332 21.4592 46.5123V51.3248C21.4592 51.7831 21.4592 53.1581 22.5005 53.1581H28.7485C29.3733 53.1581 29.7898 52.6998 29.7898 52.0123V46.7415C29.7898 43.7623 31.2477 40.554 33.5386 38.4915C36.4543 35.9707 38.1204 32.0748 38.1204 27.9498C38.1204 24.2832 36.8709 20.8457 34.3717 18.0957C32.0807 15.5749 28.9568 14.1999 25.6245 14.1999Z" fill="#FFC107"/>
<path d="M28.7485 55.4498H22.5005C21.0427 55.4498 19.3765 54.0748 19.3765 51.3248V46.5123C19.3765 44.2207 18.3352 42.1582 16.6691 40.554C12.9203 37.3457 11.0459 32.7623 11.0459 27.7207C11.2542 19.0124 17.7104 12.1374 25.4162 11.9082C29.3733 11.9082 33.1221 13.5124 35.8295 16.4915C38.537 19.4707 40.2031 23.5957 40.2031 27.9498C40.2031 32.7623 38.3287 37.3457 34.7882 40.3248C32.9138 41.929 31.8725 44.4498 31.8725 46.7415V52.0123C31.8725 53.8456 30.4146 55.4498 28.7485 55.4498ZM25.6245 14.1999C18.96 14.1999 13.3368 20.3874 13.1286 27.7207C13.1286 32.0748 14.7947 36.1998 17.9187 38.7207C20.2096 40.7832 21.4592 43.5332 21.4592 46.5123V51.3248C21.4592 51.7831 21.4592 53.1581 22.5005 53.1581H28.7485C29.3733 53.1581 29.7898 52.6998 29.7898 52.0123V46.7415C29.7898 43.7623 31.2477 40.554 33.5386 38.4915C36.4543 35.9707 38.1204 32.0748 38.1204 27.9498C38.1204 24.2832 36.8709 20.8457 34.3717 18.0957C32.0807 15.5749 28.9568 14.1999 25.6245 14.1999Z" fill="#303030"/>
<path d="M30.8312 48.5749H20.4179C19.7931 48.5749 19.3766 48.1165 19.3766 47.429C19.3766 46.7415 19.7931 46.2832 20.4179 46.2832H30.8312C31.456 46.2832 31.8725 46.7415 31.8725 47.429C31.8725 48.1165 31.456 48.5749 30.8312 48.5749Z" fill="#303030"/>
<path d="M25.625 7.3252C25 7.3252 24.5834 6.86686 24.5834 6.17936V1.59603C24.5834 0.908529 25 0.450195 25.625 0.450195C26.25 0.450195 26.6667 0.908529 26.6667 1.59603V6.17936C26.6667 6.86686 26.25 7.3252 25.625 7.3252Z" fill="#303030"/>
<path d="M39.5798 13.7419C39.3715 13.7419 38.955 13.7419 38.7467 13.5127C38.3302 13.0544 38.3302 12.3669 38.7467 11.9085L41.6624 8.70019C42.079 8.24186 42.7038 8.24186 43.1203 8.70019C43.5368 9.15853 43.5368 9.84603 43.1203 10.3044L40.2046 13.5127C40.2046 13.5127 39.7881 13.7419 39.5798 13.7419Z" fill="#303030"/>
<path d="M49.5752 29.0963H45.4099C44.7851 29.0963 44.3685 28.638 44.3685 27.9505C44.3685 27.263 44.7851 26.8047 45.4099 26.8047H49.5752C50.2 26.8047 50.6165 27.263 50.6165 27.9505C50.6165 28.638 50.2 29.0963 49.5752 29.0963Z" fill="#303030"/>
<path d="M42.4955 47.6588C42.2872 47.6588 41.8707 47.6588 41.6624 47.4297L38.7467 44.2214C38.3302 43.763 38.3302 43.0755 38.7467 42.6172C39.1633 42.1589 39.7881 42.1589 40.2046 42.6172L43.1203 45.8255C43.5368 46.2838 43.5368 46.9713 43.1203 47.4297C43.1203 47.6588 42.912 47.6588 42.4955 47.6588Z" fill="#303030"/>
<path d="M8.75349 47.6588C8.54523 47.6588 8.1287 47.6588 7.92043 47.4297C7.5039 46.9713 7.5039 46.2838 7.92043 45.8255L10.8362 42.6172C11.2527 42.1589 11.8775 42.1589 12.294 42.6172C12.7105 43.0755 12.7105 43.763 12.294 44.2214L9.37829 47.4297C9.17002 47.6588 8.96176 47.6588 8.75349 47.6588Z" fill="#303030"/>
<path d="M5.83933 29.0963H1.67402C1.04922 29.0963 0.63269 28.638 0.63269 27.9505C0.63269 27.263 1.04922 26.8047 1.67402 26.8047H5.83933C6.46413 26.8047 6.88066 27.263 6.88066 27.9505C6.88066 28.638 6.46413 29.0963 5.83933 29.0963Z" fill="#303030"/>
<path d="M11.6692 13.7425C11.4609 13.7425 11.0444 13.7425 10.8362 13.5133L7.92043 10.0758C7.5039 9.61751 7.5039 8.93001 7.92043 8.47168C8.33696 8.01335 8.96176 8.01335 9.37829 8.47168L12.294 11.68C12.7105 12.1383 12.7105 12.8258 12.294 13.2842C12.0857 13.5133 11.8775 13.7425 11.6692 13.7425Z" fill="#303030"/>
<path d="M33.9553 29.096C33.3305 29.096 32.914 28.6377 32.914 27.9502C32.914 23.596 29.5817 19.9294 25.6247 19.9294C24.9999 19.9294 24.5834 19.471 24.5834 18.7835C24.5834 18.096 24.9999 17.6377 25.6247 17.6377C30.8313 17.6377 34.9966 22.221 34.9966 27.9502C34.9966 28.6377 34.5801 29.096 33.9553 29.096Z" fill="#303030"/>
</g>
<defs>
<clipPath id="clip0_1378_18691">
<rect width="49.9838" height="55" fill="white" transform="translate(0.63269 0.450195)"/>
</clipPath>
</defs>
</svg>
