<svg width="51" height="56" viewBox="0 0 51 56" fill="none" xmlns="http://www.w3.org/2000/svg">
<g clip-path="url(#clip0_1378_18683)">
<path d="M28.678 55.4498H22.305C20.818 55.4498 19.1186 54.0748 19.1186 51.3248V46.5123C19.1186 44.2207 18.0564 42.1582 16.357 40.554C12.5332 37.3457 10.6213 32.7623 10.6213 27.7207C10.8338 19.0124 17.4191 12.1374 25.2791 11.9082C29.3153 11.9082 33.139 13.5124 35.9006 16.4915C38.6622 19.4707 40.3617 23.5957 40.3617 27.9498C40.3617 32.7623 38.4498 37.3457 34.8385 40.3248C32.9266 41.929 31.8644 44.4498 31.8644 46.7415V52.0123C31.8644 53.8456 30.3774 55.4498 28.678 55.4498ZM25.4915 14.1999C18.6937 14.1999 12.9581 20.3874 12.7456 27.7207C12.7456 32.0748 14.4451 36.1998 17.6316 38.7207C19.9683 40.7832 21.2429 43.5332 21.2429 46.5123V51.3248C21.2429 51.7831 21.2429 53.1581 22.305 53.1581H28.678C29.3153 53.1581 29.7401 52.6998 29.7401 52.0123V46.7415C29.7401 43.7623 31.2271 40.554 33.5639 38.4915C36.5379 35.9707 38.2374 32.0748 38.2374 27.9498C38.2374 24.2832 36.9628 20.8457 34.4136 18.0957C32.0769 15.5749 28.8904 14.1999 25.4915 14.1999Z" fill="white"/>
<path d="M25.4915 14.1999C18.6937 14.1999 12.9581 20.3874 12.7456 27.7207C12.7456 32.0748 14.4451 36.1998 17.6316 38.7207C19.9683 40.7832 21.2429 43.5332 21.2429 46.5123V51.3248C21.2429 51.7831 21.2429 53.1581 22.305 53.1581H28.678C29.3153 53.1581 29.7401 52.6998 29.7401 52.0123V46.7415C29.7401 43.7623 31.2271 40.554 33.5639 38.4915C36.5379 35.9707 38.2374 32.0748 38.2374 27.9498C38.2374 24.2832 36.9628 20.8457 34.4136 18.0957C32.0769 15.5749 28.8904 14.1999 25.4915 14.1999Z" fill="white"/>
<path d="M28.678 55.4498H22.305C20.818 55.4498 19.1186 54.0748 19.1186 51.3248V46.5123C19.1186 44.2207 18.0564 42.1582 16.357 40.554C12.5332 37.3457 10.6213 32.7623 10.6213 27.7207C10.8338 19.0124 17.4191 12.1374 25.2791 11.9082C29.3153 11.9082 33.139 13.5124 35.9006 16.4915C38.6622 19.4707 40.3617 23.5957 40.3617 27.9498C40.3617 32.7623 38.4498 37.3457 34.8385 40.3248C32.9266 41.929 31.8644 44.4498 31.8644 46.7415V52.0123C31.8644 53.8456 30.3774 55.4498 28.678 55.4498ZM25.4915 14.1999C18.6937 14.1999 12.9581 20.3874 12.7456 27.7207C12.7456 32.0748 14.4451 36.1998 17.6316 38.7207C19.9683 40.7832 21.2429 43.5332 21.2429 46.5123V51.3248C21.2429 51.7831 21.2429 53.1581 22.305 53.1581H28.678C29.3153 53.1581 29.7401 52.6998 29.7401 52.0123V46.7415C29.7401 43.7623 31.2271 40.554 33.5639 38.4915C36.5379 35.9707 38.2374 32.0748 38.2374 27.9498C38.2374 24.2832 36.9628 20.8457 34.4136 18.0957C32.0769 15.5749 28.8904 14.1999 25.4915 14.1999Z" fill="#303030"/>
<path d="M30.8026 48.5749H20.1811C19.5438 48.5749 19.1189 48.1165 19.1189 47.429C19.1189 46.7415 19.5438 46.2832 20.1811 46.2832H30.8026C31.4399 46.2832 31.8648 46.7415 31.8648 47.429C31.8648 48.1165 31.4399 48.5749 30.8026 48.5749Z" fill="#303030"/>
<path d="M33.9893 29.096C33.352 29.096 32.9271 28.6377 32.9271 27.9502C32.9271 23.596 29.5283 19.9294 25.4921 19.9294C24.8548 19.9294 24.4299 19.471 24.4299 18.7835C24.4299 18.096 24.8548 17.6377 25.4921 17.6377C30.8028 17.6377 35.0514 22.221 35.0514 27.9502C35.0514 28.6377 34.6266 29.096 33.9893 29.096Z" fill="#303030"/>
</g>
<defs>
<clipPath id="clip0_1378_18683">
<rect width="50.9834" height="55" fill="white" transform="translate(0 0.450195)"/>
</clipPath>
</defs>
</svg>
