<svg width="304" height="81" viewBox="0 0 304 81" fill="none" xmlns="http://www.w3.org/2000/svg">
<path d="M0 0.0288086H100V26.6955H0V0.0288086Z" fill="#333233"/>
<path d="M0 26.6955H100V53.3621H0V26.6955Z" fill="#D4453D"/>
<path d="M0 53.3621H100V80.0288H0V53.3621Z" fill="#FAE04B"/>
<path d="M120.882 4.81264V0.0288086H122.451V11.3038H120.882V6.23008H115.084V11.3038H113.498V0.0288086H115.084V4.81264H120.882Z" fill="#98A0B6"/>
<path d="M126.591 6.31061V9.88641H132.133V11.3038H125.005V0.0288086H132.048V1.44624H126.591V4.90929H131.621V6.31061H126.591Z" fill="#98A0B6"/>
<path d="M143.426 0.0288086H145.217V11.3038H143.648V2.49321L139.743 8.63005H139.538L135.633 2.50932V11.3038H134.048V0.0288086H135.838L139.641 5.98847L143.426 0.0288086Z" fill="#98A0B6"/>
<path d="M149.355 6.31061V9.88641H154.897V11.3038H147.77V0.0288086H154.812V1.44624H149.355V4.90929H154.386V6.31061H149.355Z" fill="#98A0B6"/>
<path d="M165.475 0.0288086V9.88641H166.754V13.4622H165.168V11.3038H156.812V0.0288086H158.398V9.88641H163.889V0.0288086H165.475Z" fill="#98A0B6"/>
<path d="M171.825 5.50525L177.265 11.3038H175.321L170.171 5.89183V11.3038H168.585V0.0288086H170.171V5.11868L175.151 0.0288086H177.095L171.825 5.50525Z" fill="#98A0B6"/>
<path d="M188.443 11.3038H186.755L185.783 8.77501H180.411L179.439 11.3038H177.751L182.202 0.0288086H183.992L188.443 11.3038ZM183.088 1.81671L180.957 7.37369H185.237L183.088 1.81671Z" fill="#98A0B6"/>
<path d="M193.158 0.0288086H197.933V11.3038H196.364V6.98711H193.994L190.907 11.3038H189.117L192.288 6.89047C191.47 6.71866 190.793 6.31061 190.259 5.66633C189.725 5.03278 189.458 4.31869 189.458 3.52407C189.458 2.55764 189.816 1.73617 190.532 1.05967C191.26 0.372429 192.135 0.0288086 193.158 0.0288086ZM193.158 5.63411H196.364V1.43013H193.158C192.59 1.43013 192.089 1.63416 191.657 2.04221C191.237 2.43952 191.027 2.93347 191.027 3.52407C191.027 4.11467 191.237 4.61399 191.657 5.02204C192.089 5.43009 192.59 5.63411 193.158 5.63411Z" fill="#98A0B6"/>
<path d="M204.755 0.0288086H213.418V11.3038H211.832V1.44624H206.341V11.3038H204.755V0.0288086Z" fill="#98A0B6"/>
<path d="M222.8 5.45693C223.357 5.71465 223.795 6.07437 224.113 6.53611C224.432 6.99785 224.591 7.52402 224.591 8.11462C224.591 9.01662 224.255 9.77366 223.585 10.3857C222.914 10.9978 222.095 11.3038 221.129 11.3038H215.979V0.0288086H220.754C221.698 0.0288086 222.488 0.324107 223.124 0.914704C223.772 1.5053 224.096 2.23549 224.096 3.10528C224.096 4.11467 223.664 4.89855 222.8 5.45693ZM220.754 1.43013H217.565V4.87707H220.754C221.254 4.87707 221.675 4.71063 222.016 4.37775C222.357 4.04487 222.527 3.63682 222.527 3.1536C222.527 2.68113 222.351 2.27845 221.999 1.94556C221.658 1.60194 221.243 1.43013 220.754 1.43013ZM217.565 9.90252H221.129C221.664 9.90252 222.113 9.72534 222.476 9.37098C222.84 9.01662 223.022 8.58173 223.022 8.0663C223.022 7.5616 222.834 7.13208 222.459 6.77772C222.107 6.42336 221.664 6.24618 221.129 6.24618H217.565V9.90252Z" fill="#98A0B6"/>
<path d="M230.943 5.48915L234.78 11.3038H232.972L230.039 6.85826L227.106 11.3038H225.315L229.152 5.50525L225.537 0.0288086H227.328L230.039 4.13614L232.75 0.0288086H234.541L230.943 5.48915Z" fill="#98A0B6"/>
<path d="M240.609 0.0288086H249.271V11.3038H247.686V1.44624H242.195V11.3038H240.609V0.0288086Z" fill="#98A0B6"/>
<path d="M250.793 11.3038V9.95084C251.6 10.0582 252.191 9.84346 252.566 9.30655C252.953 8.76964 253.146 7.80858 253.146 6.42336V0.0288086H261.024V11.3038H259.438V1.44624H254.732V6.42336C254.732 7.42201 254.629 8.26495 254.425 8.95219C254.232 9.63943 253.947 10.1549 253.572 10.4985C253.208 10.8421 252.799 11.0783 252.344 11.2072C251.901 11.3253 251.384 11.3575 250.793 11.3038Z" fill="#98A0B6"/>
<path d="M265.176 6.31061V9.88641H270.718V11.3038H263.59V0.0288086H270.632V1.44624H265.176V4.90929H270.206V6.31061H265.176Z" fill="#98A0B6"/>
<path d="M280.016 4.81264V0.0288086H281.585V11.3038H280.016V6.23008H274.218V11.3038H272.632V0.0288086H274.218V4.81264H280.016Z" fill="#98A0B6"/>
<path d="M287.379 5.50525L292.819 11.3038H290.875L285.725 5.89183V11.3038H284.139V0.0288086H285.725V5.11868L290.704 0.0288086H292.648L287.379 5.50525Z" fill="#98A0B6"/>
<path d="M303.997 11.3038H302.309L301.337 8.77501H295.965L294.993 11.3038H293.305L297.755 0.0288086H299.546L303.997 11.3038ZM298.642 1.81671L296.511 7.37369H300.791L298.642 1.81671Z" fill="#98A0B6"/>
<path d="M146.895 49.0799C151.955 51.9805 154.485 56.3588 154.485 62.2148C154.485 67.0856 152.753 71.0808 149.288 74.2003C145.823 77.3199 141.56 78.8796 136.5 78.8796H111.998V21.4146H134.768C139.663 21.4146 143.815 22.947 147.225 26.0118C150.635 29.0766 152.34 32.9349 152.34 37.5869C152.34 42.3483 150.525 46.1793 146.895 49.0799ZM134.768 32.0045H123.383V44.6469H134.768C136.528 44.6469 137.985 44.0448 139.14 42.8408C140.35 41.6368 140.955 40.1317 140.955 38.3257C140.955 36.5197 140.378 35.0146 139.223 33.8106C138.068 32.6066 136.583 32.0045 134.768 32.0045ZM123.383 68.2896H136.5C138.425 68.2896 140.02 67.6603 141.285 66.4015C142.55 65.088 143.183 63.4462 143.183 61.4759C143.183 59.5604 142.55 57.9733 141.285 56.7145C140.02 55.401 138.425 54.7443 136.5 54.7443H123.383V68.2896Z" fill="#98A0B6"/>
<path d="M211.449 78.8796H199.074L195.609 68.5359H172.591L169.126 78.8796H156.834L177.046 21.4146H191.154L211.449 78.8796ZM184.141 34.4673L176.221 57.9459H192.061L184.141 34.4673Z" fill="#98A0B6"/>
<path d="M236.977 80.0289C230.542 80.0289 225.262 78.2229 221.137 74.6108C217.012 70.9987 214.95 66.1552 214.95 60.0803V21.4146H226.252V59.1773C226.252 62.2421 227.132 64.6502 228.892 66.4015C230.707 68.0981 233.402 68.9464 236.977 68.9464C240.552 68.9464 243.219 68.0981 244.979 66.4015C246.794 64.6502 247.702 62.2421 247.702 59.1773V21.4146H259.087V60.0803C259.087 66.1552 257.024 70.9987 252.899 74.6108C248.774 78.2229 243.467 80.0289 236.977 80.0289Z" fill="#98A0B6"/>
<path d="M303.828 21.4146V32.2508H280.728V45.8783H303.168V56.7145H280.728V78.8796H269.343V21.4146H303.828Z" fill="#98A0B6"/>
</svg>
