<svg width="220" height="221" viewBox="0 0 220 221" fill="none" xmlns="http://www.w3.org/2000/svg">
<circle cx="110" cy="110.029" r="110" fill="white"/>
<path d="M91.0944 40.9728V33.6288H92.2104V42.0288H82.6344V33.6288H83.7504V40.9728H86.8704V33.6288H87.9744V40.9728H91.0944ZM100.349 42.0288H99.2333V35.7648L94.9133 42.0288H94.0133V33.6288H95.1293V39.9048L99.4493 33.6288H100.349V42.0288ZM102.146 33.6288H105.194C105.962 33.6288 106.606 33.8888 107.126 34.4088C107.646 34.9288 107.906 35.5688 107.906 36.3288C107.906 37.0888 107.646 37.7288 107.126 38.2488C106.606 38.7688 105.962 39.0288 105.194 39.0288H103.262V42.0288H102.146V33.6288ZM103.262 37.9848H105.194C105.666 37.9848 106.05 37.8288 106.346 37.5168C106.65 37.1888 106.802 36.7928 106.802 36.3288C106.802 35.8488 106.65 35.4528 106.346 35.1408C106.042 34.8288 105.658 34.6728 105.194 34.6728H103.262V37.9848ZM115.56 42.0288H114.444V35.7648L110.124 42.0288H109.224V33.6288H110.34V39.9048L114.66 33.6288H115.56V42.0288ZM122.553 37.1928V33.6288H123.657V42.0288H122.553V38.2488H118.473V42.0288H117.357V33.6288H118.473V37.1928H122.553ZM132.175 42.0288H130.987L130.303 40.1448H126.523L125.839 42.0288H124.651L127.783 33.6288H129.043L132.175 42.0288ZM128.407 34.9608L126.907 39.1008H129.919L128.407 34.9608ZM53.2379 48.6288H59.3339V57.0288H58.2179V49.6848H54.3539V57.0288H53.2379V48.6288ZM60.6923 52.8288C60.6923 51.6128 61.1123 50.5848 61.9523 49.7448C62.7923 48.8968 63.8203 48.4728 65.0363 48.4728C66.2523 48.4728 67.2803 48.8968 68.1203 49.7448C68.9683 50.5848 69.3923 51.6128 69.3923 52.8288C69.3923 54.0368 68.9683 55.0648 68.1203 55.9128C67.2803 56.7608 66.2523 57.1848 65.0363 57.1848C63.8203 57.1848 62.7923 56.7608 61.9523 55.9128C61.1123 55.0568 60.6923 54.0288 60.6923 52.8288ZM68.2763 52.8288C68.2763 51.9008 67.9643 51.1248 67.3403 50.5008C66.7323 49.8688 65.9643 49.5528 65.0363 49.5528C64.1163 49.5528 63.3443 49.8688 62.7203 50.5008C62.1043 51.1328 61.7963 51.9088 61.7963 52.8288C61.7963 53.7408 62.1043 54.5168 62.7203 55.1568C63.3443 55.7808 64.1163 56.0928 65.0363 56.0928C65.9643 56.0928 66.7323 55.7808 67.3403 55.1568C67.9643 54.5168 68.2763 53.7408 68.2763 52.8288ZM69.5215 57.0288V56.0208C70.0895 56.1008 70.5055 55.9408 70.7695 55.5408C71.0415 55.1408 71.1775 54.4248 71.1775 53.3928V48.6288H76.7215V57.0288H75.6055V49.6848H72.2935V53.3928C72.2935 54.1368 72.2215 54.7648 72.0775 55.2768C71.9415 55.7888 71.7415 56.1728 71.4775 56.4288C71.2215 56.6848 70.9335 56.8608 70.6135 56.9568C70.3015 57.0448 69.9375 57.0688 69.5215 57.0288ZM78.083 52.8288C78.083 51.6128 78.503 50.5848 79.343 49.7448C80.183 48.8968 81.211 48.4728 82.427 48.4728C83.643 48.4728 84.671 48.8968 85.511 49.7448C86.359 50.5848 86.783 51.6128 86.783 52.8288C86.783 54.0368 86.359 55.0648 85.511 55.9128C84.671 56.7608 83.643 57.1848 82.427 57.1848C81.211 57.1848 80.183 56.7608 79.343 55.9128C78.503 55.0568 78.083 54.0288 78.083 52.8288ZM85.667 52.8288C85.667 51.9008 85.355 51.1248 84.731 50.5008C84.123 49.8688 83.355 49.5528 82.427 49.5528C81.507 49.5528 80.735 49.8688 80.111 50.5008C79.495 51.1328 79.187 51.9088 79.187 52.8288C79.187 53.7408 79.495 54.5168 80.111 55.1568C80.735 55.7808 81.507 56.0928 82.427 56.0928C83.355 56.0928 84.123 55.7808 84.731 55.1568C85.355 54.5168 85.667 53.7408 85.667 52.8288ZM86.9601 48.6288H93.0201V49.6848H90.5361V57.0288H89.4321V49.6848H86.9601V48.6288ZM99.3206 52.1928V48.6288H100.425V57.0288H99.3206V53.2488H95.2406V57.0288H94.1246V48.6288H95.2406V52.1928H99.3206ZM108.942 57.0288H107.754L107.07 55.1448H103.29L102.606 57.0288H101.418L104.55 48.6288H105.81L108.942 57.0288ZM105.174 49.9608L103.674 54.1008H106.686L105.174 49.9608ZM114.049 51.9288H116.089C116.809 51.9288 117.425 52.1768 117.937 52.6728C118.441 53.1608 118.693 53.7608 118.693 54.4728C118.693 55.1928 118.441 55.8008 117.937 56.2968C117.449 56.7848 116.833 57.0288 116.089 57.0288H112.933V48.6288H117.973V49.6848H114.049V51.9288ZM114.049 55.9848H116.089C116.505 55.9848 116.857 55.8408 117.145 55.5528C117.441 55.2648 117.589 54.9048 117.589 54.4728C117.589 54.0488 117.441 53.6928 117.145 53.4048C116.857 53.1168 116.505 52.9728 116.089 52.9728H114.049V55.9848ZM121.069 53.3088V55.9728H124.969V57.0288H119.953V48.6288H124.909V49.6848H121.069V52.2648H124.609V53.3088H121.069ZM130.396 52.6848C131.308 53.0768 131.764 53.7608 131.764 54.7368C131.764 55.4568 131.492 56.0448 130.948 56.5008C130.412 56.9568 129.7 57.1848 128.812 57.1848C128.028 57.1848 127.384 57.0128 126.88 56.6688C126.384 56.3248 126.032 55.8528 125.824 55.2528L126.772 54.7128C127.02 55.6568 127.7 56.1288 128.812 56.1288C129.388 56.1288 129.836 56.0008 130.156 55.7448C130.484 55.4888 130.648 55.1408 130.648 54.7008C130.648 54.2608 130.496 53.9128 130.192 53.6568C129.888 53.3928 129.472 53.2608 128.944 53.2608H127.96V52.2408H128.668C129.172 52.2408 129.576 52.1168 129.88 51.8688C130.192 51.6128 130.348 51.2808 130.348 50.8728C130.348 50.4648 130.204 50.1368 129.916 49.8888C129.628 49.6408 129.236 49.5168 128.74 49.5168C127.812 49.5168 127.192 49.9288 126.88 50.7528L125.944 50.2128C126.448 49.0528 127.38 48.4728 128.74 48.4728C129.548 48.4728 130.2 48.6968 130.696 49.1448C131.2 49.5848 131.452 50.1528 131.452 50.8488C131.452 51.6568 131.1 52.2688 130.396 52.6848ZM144.549 55.9728V48.6288H145.665V57.0288H136.089V48.6288H137.205V55.9728H140.325V48.6288H141.429V55.9728H144.549ZM152.268 52.6728C152.66 52.8648 152.968 53.1328 153.192 53.4768C153.416 53.8208 153.528 54.2128 153.528 54.6528C153.528 55.3248 153.292 55.8888 152.82 56.3448C152.348 56.8008 151.772 57.0288 151.092 57.0288H147.468V48.6288H150.828C151.492 48.6288 152.048 48.8488 152.496 49.2888C152.952 49.7288 153.18 50.2728 153.18 50.9208C153.18 51.6728 152.876 52.2568 152.268 52.6728ZM150.828 49.6728H148.584V52.2408H150.828C151.18 52.2408 151.476 52.1168 151.716 51.8688C151.956 51.6208 152.076 51.3168 152.076 50.9568C152.076 50.6048 151.952 50.3048 151.704 50.0568C151.464 49.8008 151.172 49.6728 150.828 49.6728ZM148.584 55.9848H151.092C151.468 55.9848 151.784 55.8528 152.04 55.5888C152.296 55.3248 152.424 55.0008 152.424 54.6168C152.424 54.2408 152.292 53.9208 152.028 53.6568C151.78 53.3928 151.468 53.2608 151.092 53.2608H148.584V55.9848ZM161.571 57.0288H160.383L159.699 55.1448H155.919L155.235 57.0288H154.047L157.179 48.6288H158.439L161.571 57.0288ZM157.803 49.9608L156.303 54.1008H159.315L157.803 49.9608Z" fill="#98A0B6"/>
<path d="M73.1609 166.918C75.3591 168.188 76.4582 170.104 76.4582 172.668C76.4582 174.8 75.7055 176.549 74.2002 177.914C72.6949 179.28 70.8432 179.963 68.645 179.963H58.0005V154.808H67.8924C70.0189 154.808 71.8228 155.478 73.3042 156.82C74.7856 158.162 75.5263 159.851 75.5263 161.887C75.5263 163.971 74.7378 165.648 73.1609 166.918ZM67.8924 159.443H62.9464V164.978H67.8924C68.657 164.978 69.2901 164.714 69.7919 164.187C70.3175 163.66 70.5804 163.001 70.5804 162.21C70.5804 161.42 70.3295 160.761 69.8277 160.234C69.326 159.707 68.6808 159.443 67.8924 159.443ZM62.9464 175.327H68.645C69.4813 175.327 70.1742 175.052 70.7237 174.501C71.2733 173.926 71.5481 173.207 71.5481 172.344C71.5481 171.506 71.2733 170.811 70.7237 170.26C70.1742 169.685 69.4813 169.398 68.645 169.398H62.9464V175.327Z" fill="black"/>
<path d="M101.205 179.963H95.8286L94.3233 175.435H84.3239L82.8187 179.963H77.4785L86.2593 154.808H92.388L101.205 179.963ZM89.3416 160.521L85.9009 170.799H92.7822L89.3416 160.521Z" fill="black"/>
<path d="M112.295 180.466C109.499 180.466 107.206 179.675 105.414 178.094C103.622 176.513 102.726 174.393 102.726 171.733V154.808H107.636V171.338C107.636 172.68 108.018 173.734 108.783 174.501C109.571 175.243 110.742 175.615 112.295 175.615C113.848 175.615 115.007 175.243 115.771 174.501C116.56 173.734 116.954 172.68 116.954 171.338V154.808H121.9V171.733C121.9 174.393 121.004 176.513 119.212 178.094C117.42 179.675 115.114 180.466 112.295 180.466Z" fill="black"/>
<path d="M141.337 154.808V159.551H131.302V165.517H141.05V170.26H131.302V179.963H126.356V154.808H141.337Z" fill="black"/>
<path d="M61.8329 143.128H62.5646V148.02H61.9235V144.198L60.3276 146.86H60.244L58.6481 144.205V148.02H58V143.128H58.7317L60.2858 145.714L61.8329 143.128Z" fill="black"/>
<path d="M67.5104 148.02H66.8205L66.4232 146.923H64.228L63.8308 148.02H63.1409L64.9598 143.128H65.6915L67.5104 148.02ZM65.3222 143.904L64.451 146.315H66.2002L65.3222 143.904Z" fill="black"/>
<path d="M68.0859 143.128H69.856C70.302 143.128 70.676 143.28 70.978 143.583C71.28 143.885 71.431 144.258 71.431 144.701C71.431 145.143 71.28 145.516 70.978 145.819C70.676 146.121 70.302 146.273 69.856 146.273H68.734V148.02H68.0859V143.128ZM68.734 145.665H69.856C70.1301 145.665 70.3531 145.574 70.525 145.392C70.7015 145.201 70.7898 144.971 70.7898 144.701C70.7898 144.421 70.7015 144.191 70.525 144.009C70.3484 143.827 70.1254 143.736 69.856 143.736H68.734V145.665Z" fill="black"/>
<path d="M73.5205 145.504L75.7436 148.02H74.9492L72.8446 145.672V148.02H72.1964V143.128H72.8446V145.337L74.8795 143.128H75.6739L73.5205 145.504Z" fill="black"/>
<path d="M80.0002 148.02H79.3521V144.372L76.8433 148.02H76.3206V143.128H76.9687V146.783L79.4775 143.128H80.0002V148.02Z" fill="black"/>
<path d="M81.0437 143.128H82.8138C83.2598 143.128 83.6338 143.28 83.9358 143.583C84.2378 143.885 84.3888 144.258 84.3888 144.701C84.3888 145.143 84.2378 145.516 83.9358 145.819C83.6338 146.121 83.2598 146.273 82.8138 146.273H81.6918V148.02H81.0437V143.128ZM81.6918 145.665H82.8138C83.0879 145.665 83.3109 145.574 83.4828 145.392C83.6594 145.201 83.7476 144.971 83.7476 144.701C83.7476 144.421 83.6594 144.191 83.4828 144.009C83.3063 143.827 83.0833 143.736 82.8138 143.736H81.6918V145.665Z" fill="black"/>
<path d="M84.8624 145.574C84.8624 144.866 85.1063 144.267 85.5941 143.778C86.082 143.284 86.679 143.038 87.3851 143.038C88.0913 143.038 88.6883 143.284 89.1761 143.778C89.6686 144.267 89.9149 144.866 89.9149 145.574C89.9149 146.277 89.6686 146.876 89.1761 147.37C88.6883 147.864 88.0913 148.111 87.3851 148.111C86.679 148.111 86.082 147.864 85.5941 147.37C85.1063 146.871 84.8624 146.273 84.8624 145.574ZM89.2667 145.574C89.2667 145.034 89.0856 144.582 88.7232 144.218C88.3701 143.85 87.9241 143.666 87.3851 143.666C86.8509 143.666 86.4025 143.85 86.0401 144.218C85.6824 144.587 85.5035 145.038 85.5035 145.574C85.5035 146.105 85.6824 146.557 86.0401 146.93C86.4025 147.293 86.8509 147.475 87.3851 147.475C87.9241 147.475 88.3701 147.293 88.7232 146.93C89.0856 146.557 89.2667 146.105 89.2667 145.574Z" fill="black"/>
<path d="M93.4816 145.483C93.7092 145.595 93.8881 145.751 94.0182 145.951C94.1483 146.152 94.2133 146.38 94.2133 146.636C94.2133 147.027 94.0763 147.356 93.8022 147.621C93.528 147.887 93.1935 148.02 92.7986 148.02H90.694V143.128H92.6453C93.0309 143.128 93.3538 143.257 93.614 143.513C93.8788 143.769 94.0112 144.086 94.0112 144.463C94.0112 144.901 93.8347 145.241 93.4816 145.483ZM92.6453 143.736H91.3421V145.232H92.6453C92.8497 145.232 93.0216 145.159 93.161 145.015C93.3004 144.871 93.3701 144.694 93.3701 144.484C93.3701 144.279 93.2981 144.104 93.154 143.96C93.0147 143.811 92.8451 143.736 92.6453 143.736ZM91.3421 147.412H92.7986C93.017 147.412 93.2005 147.335 93.3492 147.181C93.4978 147.027 93.5722 146.839 93.5722 146.615C93.5722 146.396 93.4955 146.21 93.3422 146.056C93.1982 145.902 93.017 145.826 92.7986 145.826H91.3421V147.412Z" fill="black"/>
<path d="M96.3056 145.504L98.5287 148.02H97.7342L95.6296 145.672V148.02H94.9815V143.128H95.6296V145.337L97.6646 143.128H98.459L96.3056 145.504Z" fill="black"/>
<path d="M103.097 148.02H102.407L102.01 146.923H99.8144L99.4172 148.02H98.7273L100.546 143.128H101.278L103.097 148.02ZM100.909 143.904L100.037 146.315H101.787L100.909 143.904Z" fill="black"/>
<path d="M58 184.055H61.5402V188.947H60.8921V184.67H58.6481V188.947H58V184.055Z" fill="black"/>
<path d="M62.3291 186.501C62.3291 185.793 62.573 185.194 63.0608 184.705C63.5487 184.212 64.1457 183.965 64.8519 183.965C65.558 183.965 66.155 184.212 66.6429 184.705C67.1353 185.194 67.3816 185.793 67.3816 186.501C67.3816 187.205 67.1353 187.803 66.6429 188.297C66.155 188.791 65.558 189.038 64.8519 189.038C64.1457 189.038 63.5487 188.791 63.0608 188.297C62.573 187.798 62.3291 187.2 62.3291 186.501ZM66.7335 186.501C66.7335 185.961 66.5523 185.509 66.1899 185.146C65.8368 184.778 65.3908 184.594 64.8519 184.594C64.3176 184.594 63.8692 184.778 63.5069 185.146C63.1491 185.514 62.9703 185.965 62.9703 186.501C62.9703 187.032 63.1491 187.484 63.5069 187.857C63.8692 188.22 64.3176 188.402 64.8519 188.402C65.3908 188.402 65.8368 188.22 66.1899 187.857C66.5523 187.484 66.7335 187.032 66.7335 186.501Z" fill="black"/>
<path d="M72.6905 186.41C72.9182 186.522 73.097 186.678 73.2271 186.878C73.3572 187.079 73.4223 187.307 73.4223 187.563C73.4223 187.955 73.2852 188.283 73.0111 188.548C72.737 188.814 72.4025 188.947 72.0076 188.947H69.903V184.055H71.8543C72.2399 184.055 72.5628 184.184 72.8229 184.44C73.0878 184.696 73.2202 185.013 73.2202 185.39C73.2202 185.828 73.0436 186.168 72.6905 186.41ZM71.8543 184.663H70.5511V186.159H71.8543C72.0587 186.159 72.2306 186.087 72.37 185.942C72.5093 185.798 72.579 185.621 72.579 185.411C72.579 185.206 72.507 185.031 72.363 184.887C72.2236 184.738 72.054 184.663 71.8543 184.663ZM70.5511 188.339H72.0076C72.2259 188.339 72.4094 188.262 72.5581 188.108C72.7068 187.955 72.7811 187.766 72.7811 187.542C72.7811 187.323 72.7045 187.137 72.5511 186.983C72.4071 186.83 72.2259 186.753 72.0076 186.753H70.5511V188.339Z" fill="black"/>
<path d="M76.4833 189.038C75.7399 189.038 75.129 188.793 74.6504 188.304C74.1719 187.819 73.9326 187.219 73.9326 186.501C73.9326 185.784 74.1719 185.183 74.6504 184.698C75.129 184.209 75.7399 183.965 76.4833 183.965C76.9246 183.965 77.3335 184.072 77.7098 184.286C78.0861 184.5 78.3788 184.789 78.5879 185.153L78.0234 185.481C77.884 185.211 77.6749 184.996 77.3962 184.838C77.1221 184.675 76.8178 184.594 76.4833 184.594C75.9164 184.594 75.4565 184.775 75.1034 185.139C74.7503 185.497 74.5738 185.951 74.5738 186.501C74.5738 187.046 74.7503 187.498 75.1034 187.857C75.4565 188.22 75.9164 188.402 76.4833 188.402C76.8178 188.402 77.1221 188.323 77.3962 188.164C77.6749 188.001 77.884 187.787 78.0234 187.521L78.5879 187.843C78.3834 188.206 78.0931 188.497 77.7167 188.716C77.3451 188.93 76.9339 189.038 76.4833 189.038Z" fill="black"/>
<path d="M79.97 186.781V188.332H82.2349V188.947H79.3219V184.055H82.2V184.67H79.97V186.173H82.0258V186.781H79.97Z" fill="black"/>
<path d="M86.8502 184.055H87.582V188.947H86.9408V185.125L85.3449 187.787H85.2613L83.6654 185.132V188.947H83.0173V184.055H83.7491L85.3031 186.641L86.8502 184.055Z" fill="black"/>
<path d="M90.2489 186.85L91.4197 184.055H92.0747L90.5067 187.787C90.1583 188.607 89.5984 188.993 88.8272 188.947V188.346C89.092 188.374 89.3081 188.337 89.4753 188.234C89.6472 188.127 89.7889 187.941 89.9004 187.675L89.9492 187.563L88.2976 184.055H88.9527L90.2489 186.85Z" fill="black"/>
<path d="M95.734 186.431L97.957 188.947H97.1626L95.058 186.599V188.947H94.4099V184.055H95.058V186.264L97.0929 184.055H97.8873L95.734 186.431Z" fill="black"/>
<path d="M98.534 184.055H100.304C100.75 184.055 101.124 184.207 101.426 184.51C101.728 184.812 101.879 185.185 101.879 185.628C101.879 186.07 101.728 186.443 101.426 186.746C101.124 187.048 100.75 187.2 100.304 187.2H99.1822V188.947H98.534V184.055ZM99.1822 186.592H100.304C100.578 186.592 100.801 186.501 100.973 186.319C101.15 186.128 101.238 185.898 101.238 185.628C101.238 185.348 101.15 185.118 100.973 184.936C100.797 184.754 100.574 184.663 100.304 184.663H99.1822V186.592Z" fill="black"/>
<path d="M106.05 188.947H105.36L104.963 187.85H102.768L102.371 188.947H101.681L103.5 184.055H104.232L106.05 188.947ZM103.862 184.831L102.991 187.242H104.74L103.862 184.831Z" fill="black"/>
<path d="M110.598 183.965C111.304 183.965 111.901 184.212 112.389 184.705C112.882 185.194 113.128 185.793 113.128 186.501C113.128 187.205 112.882 187.803 112.389 188.297C111.901 188.791 111.304 189.038 110.598 189.038C109.934 189.038 109.369 188.819 108.905 188.381C108.44 187.943 108.175 187.396 108.11 186.739H107.274V188.947H106.626V184.055H107.274V186.124H108.131C108.219 185.504 108.494 184.989 108.953 184.58C109.409 184.17 109.957 183.965 110.598 183.965ZM112.48 186.501C112.48 185.961 112.299 185.509 111.936 185.146C111.583 184.778 111.137 184.594 110.598 184.594C110.064 184.594 109.616 184.778 109.253 185.146C108.895 185.514 108.717 185.965 108.717 186.501C108.717 187.032 108.895 187.484 109.253 187.857C109.616 188.22 110.064 188.402 110.598 188.402C111.132 188.402 111.578 188.22 111.936 187.857C112.299 187.484 112.48 187.032 112.48 186.501Z" fill="black"/>
<path d="M115.65 184.055H119.19V188.947H118.542V184.67H116.298V188.947H115.65V184.055Z" fill="black"/>
<path d="M119.979 186.501C119.979 185.793 120.223 185.194 120.711 184.705C121.199 184.212 121.796 183.965 122.502 183.965C123.208 183.965 123.805 184.212 124.293 184.705C124.785 185.194 125.032 185.793 125.032 186.501C125.032 187.205 124.785 187.803 124.293 188.297C123.805 188.791 123.208 189.038 122.502 189.038C121.796 189.038 121.199 188.791 120.711 188.297C120.223 187.798 119.979 187.2 119.979 186.501ZM124.384 186.501C124.384 185.961 124.202 185.509 123.84 185.146C123.487 184.778 123.041 184.594 122.502 184.594C121.968 184.594 121.519 184.778 121.157 185.146C120.799 185.514 120.62 185.965 120.62 186.501C120.62 187.032 120.799 187.484 121.157 187.857C121.519 188.22 121.968 188.402 122.502 188.402C123.041 188.402 123.487 188.22 123.84 187.857C124.202 187.484 124.384 187.032 124.384 186.501Z" fill="black"/>
<path d="M125.107 188.947V188.36C125.437 188.406 125.678 188.313 125.831 188.08C125.989 187.847 126.068 187.43 126.068 186.83V184.055H129.288V188.947H128.64V184.67H126.716V186.83C126.716 187.263 126.675 187.628 126.591 187.927C126.512 188.225 126.396 188.448 126.243 188.597C126.094 188.746 125.927 188.849 125.741 188.905C125.56 188.956 125.348 188.97 125.107 188.947Z" fill="black"/>
<path d="M130.079 186.501C130.079 185.793 130.323 185.194 130.81 184.705C131.298 184.212 131.895 183.965 132.601 183.965C133.308 183.965 133.905 184.212 134.392 184.705C134.885 185.194 135.131 185.793 135.131 186.501C135.131 187.205 134.885 187.803 134.392 188.297C133.905 188.791 133.308 189.038 132.601 189.038C131.895 189.038 131.298 188.791 130.81 188.297C130.323 187.798 130.079 187.2 130.079 186.501ZM134.483 186.501C134.483 185.961 134.302 185.509 133.939 185.146C133.586 184.778 133.14 184.594 132.601 184.594C132.067 184.594 131.619 184.778 131.256 185.146C130.899 185.514 130.72 185.965 130.72 186.501C130.72 187.032 130.899 187.484 131.256 187.857C131.619 188.22 132.067 188.402 132.601 188.402C133.14 188.402 133.586 188.22 133.939 187.857C134.302 187.484 134.483 187.032 134.483 186.501Z" fill="black"/>
<path d="M135.234 184.055H138.753V184.67H137.311V188.947H136.67V184.67H135.234V184.055Z" fill="black"/>
<path d="M142.412 186.131V184.055H143.053V188.947H142.412V186.746H140.043V188.947H139.395V184.055H140.043V186.131H142.412Z" fill="black"/>
<path d="M148 188.947H147.31L146.913 187.85H144.718L144.32 188.947H143.63L145.449 184.055H146.181L148 188.947ZM145.812 184.831L144.941 187.242H146.69L145.812 184.831Z" fill="black"/>
<path d="M110 138.029H160V148.029H120L110 138.029Z" fill="#F9D949"/>
<path d="M160 188.029V138.029H150V178.029L160 188.029Z" fill="#F9D949"/>
<path d="M106.704 93.7788H110.304C113.704 93.7788 116.537 94.7955 118.804 96.8288C121.104 98.8288 122.254 101.629 122.254 105.229C122.254 108.829 121.037 111.645 118.604 113.679C116.237 115.712 113.287 116.729 109.754 116.729C106.887 116.729 104.37 116.095 102.204 114.829C100.07 113.529 98.5204 111.662 97.5537 109.229L103.454 105.779C104.287 108.579 106.387 109.979 109.754 109.979C111.52 109.979 112.887 109.562 113.854 108.729C114.854 107.862 115.354 106.695 115.354 105.229C115.354 103.795 114.87 102.645 113.904 101.779C112.937 100.912 111.62 100.479 109.954 100.479H99.3537L100.754 81.0288H120.604V87.4788H107.154L106.704 93.7788Z" fill="#98A0B6"/>
<path d="M136.239 109.029H137.659V116.029H136.289V111.489L134.319 114.739H134.159L132.189 111.499V116.029H130.809V109.029H132.229L134.239 112.339L136.239 109.029ZM140.343 113.139V114.709H143.293V116.029H138.963V109.029H143.243V110.349H140.343V111.839H142.993V113.139H140.343ZM143.746 109.029H148.896V110.349H147.006V116.029H145.626V110.349H143.746V109.029ZM149.667 109.029H152.277C152.943 109.029 153.51 109.255 153.977 109.709C154.437 110.162 154.667 110.719 154.667 111.379C154.667 112.039 154.437 112.595 153.977 113.049C153.51 113.502 152.943 113.729 152.277 113.729H151.047V116.029H149.667V109.029ZM151.047 112.439H152.277C152.57 112.439 152.813 112.339 153.007 112.139C153.2 111.932 153.297 111.679 153.297 111.379C153.297 111.072 153.2 110.819 153.007 110.619C152.813 110.419 152.57 110.319 152.277 110.319H151.047V112.439ZM161.406 115.119C160.7 115.819 159.84 116.169 158.826 116.169C157.813 116.169 156.953 115.819 156.246 115.119C155.546 114.405 155.196 113.542 155.196 112.529C155.196 111.509 155.546 110.649 156.246 109.949C156.953 109.242 157.813 108.889 158.826 108.889C159.84 108.889 160.7 109.242 161.406 109.949C162.113 110.649 162.466 111.509 162.466 112.529C162.466 113.549 162.113 114.412 161.406 115.119ZM157.216 114.179C157.643 114.605 158.18 114.819 158.826 114.819C159.473 114.819 160.01 114.605 160.436 114.179C160.87 113.745 161.086 113.195 161.086 112.529C161.086 111.862 160.87 111.312 160.436 110.879C160.003 110.445 159.466 110.229 158.826 110.229C158.186 110.229 157.65 110.445 157.216 110.879C156.783 111.312 156.566 111.862 156.566 112.529C156.566 113.195 156.783 113.745 157.216 114.179ZM167.666 112.399C168.279 112.752 168.586 113.285 168.586 113.999C168.586 114.592 168.376 115.079 167.956 115.459C167.536 115.839 167.019 116.029 166.406 116.029H163.436V109.029H166.196C166.789 109.029 167.293 109.215 167.706 109.589C168.119 109.962 168.326 110.432 168.326 110.999C168.326 111.579 168.106 112.045 167.666 112.399ZM166.196 110.319H164.816V111.859H166.196C166.409 111.859 166.586 111.785 166.726 111.639C166.873 111.492 166.946 111.309 166.946 111.089C166.946 110.869 166.876 110.685 166.736 110.539C166.596 110.392 166.416 110.319 166.196 110.319ZM164.816 114.739H166.406C166.639 114.739 166.833 114.662 166.986 114.509C167.139 114.349 167.216 114.149 167.216 113.909C167.216 113.675 167.139 113.482 166.986 113.329C166.833 113.169 166.639 113.089 166.406 113.089H164.816V114.739Z" fill="#98A0B6"/>
<path d="M84 96.5294H32M32 96.5294L41.6069 105.029M32 96.5294L41.6069 88.0288" stroke="#98A0B6" stroke-linecap="square"/>
<path d="M131.5 96.5294H188M188 96.5294L178.393 105.029M188 96.5294L178.393 88.0288" stroke="#98A0B6" stroke-linecap="square"/>
</svg>
