<svg width="160" height="161" viewBox="0 0 160 161" fill="none" xmlns="http://www.w3.org/2000/svg">
<circle cx="80" cy="80.0288" r="80" fill="white"/>
<path d="M65.18 29.8999C65.3012 30.3454 65.4036 30.7764 65.536 31.1979C65.9411 32.4885 66.4736 33.729 67.0765 34.9355C68.2689 37.3218 69.4997 39.6887 70.6918 42.0751C71.6524 43.9982 72.607 45.9253 73.5134 47.8745C74.3951 49.7707 75.1396 51.7235 75.6782 53.7516C76.1198 55.4141 76.318 57.0968 76.174 58.8162C76.0076 60.8042 75.5081 62.6841 74.412 64.3731C73.57 65.6706 72.466 66.6977 71.1834 67.5404C69.8487 68.4173 68.3954 69.0472 66.9123 69.6146C66.8851 69.62 66.8575 69.6228 66.8299 69.6231C66.8808 69.5522 66.9183 69.4964 66.9593 69.4434C68.3905 67.595 69.4198 65.5484 69.971 63.2657C70.2968 61.9266 70.4409 60.5493 70.3994 59.1714C70.2862 55.4875 69.1135 52.1742 66.932 49.2207C66.393 48.4909 65.7786 47.8207 65.0992 47.2213C65.0587 47.1855 65.0159 47.1524 64.937 47.0875C65.0215 47.3854 65.0936 47.642 65.1671 47.8983C65.6296 49.5006 65.9513 51.1408 66.1284 52.7999C66.2878 54.3131 66.3207 55.8296 66.1338 57.3432C66.0058 58.3795 65.8017 59.4014 65.2986 60.3291C65.1286 60.6443 64.9144 60.9332 64.6627 61.1871C64.1653 61.6823 63.5534 61.7259 62.9522 61.3566C62.471 61.061 62.1213 60.6334 61.8138 60.1688C61.1446 59.1576 60.6906 58.0441 60.328 56.8942C60.0579 56.0376 59.837 55.1653 59.5937 54.3002C59.5827 54.2611 59.5667 54.2235 59.5354 54.1356C59.2486 54.6841 58.9687 55.188 58.7172 55.7059C57.7175 57.7643 57.0567 59.9315 56.6785 62.1889C56.3381 64.2712 56.2148 66.3835 56.3105 68.4916C56.4187 70.9445 56.7555 73.3818 57.3165 75.7714C57.9565 78.5445 58.8287 81.2408 60.0017 83.8342C60.2168 84.3098 60.4726 84.7667 60.7096 85.2323C60.7342 85.2724 60.7425 85.3205 60.7327 85.3666C60.4806 85.1644 60.2245 84.9671 59.977 84.7594C57.6335 82.7929 55.7559 80.437 54.24 77.7824C52.494 74.7246 51.2994 71.4568 50.5655 68.0119C50.0336 65.5067 49.825 62.943 49.945 60.3841C50.0123 58.7342 50.1643 57.089 50.4002 55.4548C50.6912 53.4864 51.1193 51.5409 51.6811 49.6327C52.4064 47.1583 53.3631 44.7586 54.5383 42.4658C56.3535 38.9358 58.608 35.7239 61.4207 32.9221C62.5162 31.8308 63.681 30.8223 64.9977 30.0041C65.0542 29.969 65.1131 29.938 65.18 29.8999Z" fill="#FF5422"/>
<path d="M76.1816 73.7456L107.563 57.8184C107.986 57.6035 108.477 57.5667 108.927 57.7159C109.378 57.8652 109.751 58.1884 109.965 58.6145L76.987 75.3519L76.1816 73.7456Z" fill="#F79C16"/>
<path d="M77 75.3376L109.962 58.6079L109.963 58.6081C110.096 58.8734 110.118 59.181 110.026 59.4632C109.934 59.7454 109.734 59.9792 109.47 60.113L77.5016 76.3382L77 75.3376Z" fill="#FFB426"/>
<path d="M73.8607 81.6174C77.1473 79.9492 78.8661 76.7109 77.6996 74.3844C76.5332 72.0579 72.9232 71.5241 69.6366 73.1922C66.3499 74.8604 64.6312 78.0987 65.7976 80.4252C66.9641 82.7517 70.574 83.2855 73.8607 81.6174Z" fill="#F79C16"/>
<path d="M74.2494 81.3507C77.3673 79.7682 79.0037 76.7079 77.9045 74.5154C76.8052 72.3228 73.3865 71.8283 70.2685 73.4108C67.1506 74.9933 65.5142 78.0535 66.6135 80.2461C67.7127 82.4386 71.1315 82.9331 74.2494 81.3507Z" fill="#FF5422"/>
<rect x="-0.708282" width="3.20201" height="62.4882" transform="matrix(0.708282 -0.705929 0.708282 0.705929 43.9887 44.7485)" fill="#FF5422" stroke="white"/>
<path d="M35.6482 113.698V105.839H37.4462V123.759H35.6482V115.387H25.8878V123.759H24.0898V105.839H25.8878V113.698H35.6482Z" fill="#687798"/>
<path d="M43.3458 115.567V122.069H52.0788V123.759H41.5478V105.839H51.9504V107.528H43.3458V113.877H51.3083V115.567H43.3458Z" fill="#687798"/>
<path d="M61.5894 105.839H71.6067V107.528H63.3874V123.759H61.5894V105.839Z" fill="#687798"/>
<path d="M87.7738 121.378C85.9758 123.17 83.7755 124.066 81.1727 124.066C78.5699 124.066 76.3695 123.17 74.5716 121.378C72.7736 119.552 71.8746 117.359 71.8746 114.799C71.8746 112.222 72.7736 110.037 74.5716 108.245C76.3695 106.436 78.5699 105.531 81.1727 105.531C83.7755 105.531 85.9758 106.436 87.7738 108.245C89.5718 110.037 90.4708 112.222 90.4708 114.799C90.4708 117.359 89.5718 119.552 87.7738 121.378ZM73.6726 114.799C73.6726 116.915 74.3918 118.698 75.8301 120.149C77.2685 121.6 79.0494 122.325 81.1727 122.325C83.296 122.325 85.0769 121.6 86.5152 120.149C87.9536 118.698 88.6728 116.915 88.6728 114.799C88.6728 112.699 87.9536 110.925 86.5152 109.474C85.0769 108.006 83.296 107.272 81.1727 107.272C79.0494 107.272 77.2685 108.006 75.8301 109.474C74.3918 110.925 73.6726 112.699 73.6726 114.799Z" fill="#687798"/>
<path d="M93.5456 105.839H99.9669C101.577 105.839 102.921 106.376 104 107.451C105.078 108.527 105.618 109.866 105.618 111.471C105.618 113.075 105.078 114.415 104 115.49C102.921 116.565 101.577 117.103 99.9669 117.103H95.3436V123.759H93.5456V105.839ZM95.3436 115.413H99.9669C101.08 115.413 101.996 115.046 102.715 114.312C103.452 113.578 103.82 112.631 103.82 111.471C103.82 110.327 103.452 109.389 102.715 108.655C101.996 107.904 101.08 107.528 99.9669 107.528H95.3436V115.413Z" fill="#687798"/>
<path d="M122.052 123.759H120.254V109.167L110.237 123.759H108.696V105.839H110.494V120.431L120.511 105.839H122.052V123.759Z" fill="#687798"/>
<path d="M124.613 105.839H137.455V107.528H131.933V123.759H130.135V107.528H124.613V105.839Z" fill="#687798"/>
</svg>
