<svg width="160" height="161" viewBox="0 0 160 161" fill="none" xmlns="http://www.w3.org/2000/svg">
<circle cx="80" cy="80.0288" r="80" fill="white"/>
<path d="M19.627 99.793H29.6442V101.483H21.4249V117.713H19.627V99.793Z" fill="#687798"/>
<path d="M44.032 117.713H42.1313L40.4618 113.31H31.9342L30.2647 117.713H28.364L35.2733 99.793H37.1227L44.032 117.713ZM36.198 102.02L32.5764 111.62H39.8196L36.198 102.02Z" fill="#687798"/>
<path d="M46.3407 99.793H52.762C54.3716 99.793 55.7158 100.331 56.7946 101.406C57.8734 102.481 58.4128 103.821 58.4128 105.425C58.4128 107.029 57.8734 108.369 56.7946 109.444C55.7158 110.519 54.3716 111.057 52.762 111.057H48.1387V117.713H46.3407V99.793ZM48.1387 109.367H52.762C53.8751 109.367 54.7912 109 55.5104 108.267C56.2467 107.533 56.6148 106.585 56.6148 105.425C56.6148 104.281 56.2467 103.343 55.5104 102.609C54.7912 101.858 53.8751 101.483 52.762 101.483H48.1387V109.367Z" fill="#687798"/>
<path d="M73.5551 117.713H71.6544L69.9848 113.31H61.4573L59.7878 117.713H57.8871L64.7964 99.793H66.6458L73.5551 117.713ZM65.7211 102.02L62.0994 111.62H69.3427L65.7211 102.02Z" fill="#687798"/>
<path d="M87.4222 107.652V99.793H89.2202V117.713H87.4222V109.342H77.6618V117.713H75.8638V99.793H77.6618V107.652H87.4222Z" fill="#687798"/>
<path d="M91.7806 99.793H104.623V101.483H99.101V117.713H97.303V101.483H91.7806V99.793Z" fill="#687798"/>
<path d="M120.549 117.713H118.751V103.121L108.734 117.713H107.193V99.793H108.991V114.385L119.008 99.793H120.549V117.713Z" fill="#687798"/>
<path d="M138.007 117.713H136.209V103.121L126.192 117.713H124.651V99.793H126.449V114.385L136.466 99.793H138.007V117.713Z" fill="#687798"/>
<path d="M95.9206 87.8463V86.2591C97.1706 86.4298 98.1038 86.0458 98.7203 85.1071C99.3538 84.1684 99.6706 82.4276 99.6706 79.8847V69.9263H111.332V87.8463H109.534V71.6159H101.469V79.9359C101.469 81.5572 101.34 82.914 101.083 84.0063C100.826 85.0986 100.441 85.9263 99.9275 86.4895C99.4309 87.0527 98.8573 87.4367 98.2066 87.6415C97.573 87.8463 96.811 87.9146 95.9206 87.8463Z" fill="#687798"/>
<path d="M117.247 79.6543V86.1567H125.98V87.8463H115.449V69.9263H125.852V71.6159H117.247V77.9647H125.21V79.6543H117.247Z" fill="#687798"/>
<path d="M127.529 69.9263H140.371V71.6159H134.849V87.8463H133.051V71.6159H127.529V69.9263Z" fill="#687798"/>
<path d="M51.1289 87.8463H22.8751V84.7743L39.3779 67.8783C44.2153 62.8436 46.634 58.6196 46.634 55.2063C46.634 52.305 45.6922 49.9796 43.8086 48.2303C41.9678 46.481 39.6133 45.6063 36.7452 45.6063C31.6937 45.6063 28.1192 47.8676 26.0215 52.3903L23.1319 50.6623C24.459 47.9743 26.2998 45.9263 28.6543 44.5183C31.0516 43.0676 33.7485 42.3423 36.7452 42.3423C40.3839 42.3423 43.509 43.4943 46.1203 45.7983C48.7745 48.1023 50.1015 51.2383 50.1015 55.2063C50.1015 57.6383 49.3952 60.049 47.9825 62.4383C46.6126 64.8276 44.515 67.4516 41.6896 70.3103L27.7553 84.5823H51.1289V87.8463Z" fill="#687798"/>
<path d="M85.9697 82.2783C83.0159 86.4596 78.8848 88.5503 73.5765 88.5503C68.2682 88.5503 64.1372 86.4596 61.1833 82.2783C58.2295 78.1396 56.7526 72.529 56.7526 65.4463C56.7526 58.3636 58.2295 52.753 61.1833 48.6143C64.1372 44.433 68.2682 42.3423 73.5765 42.3423C78.8848 42.3423 83.0159 44.433 85.9697 48.6143C88.9235 52.7956 90.4004 58.4063 90.4004 65.4463C90.4004 72.529 88.9235 78.1396 85.9697 82.2783ZM63.7519 80.1023C66.1492 83.5583 69.4241 85.2863 73.5765 85.2863C77.729 85.2863 81.0039 83.5583 83.4011 80.1023C85.7556 76.6036 86.9329 71.7183 86.9329 65.4463C86.9329 59.1316 85.7556 54.2676 83.4011 50.8543C81.0467 47.3556 77.7718 45.6063 73.5765 45.6063C69.3812 45.6063 66.1064 47.3556 63.7519 50.8543C61.3974 54.2676 60.2201 59.1316 60.2201 65.4463C60.2201 71.7183 61.3974 76.6036 63.7519 80.1023Z" fill="#687798"/>
</svg>
