<svg width="160" height="161" viewBox="0 0 160 161" fill="none" xmlns="http://www.w3.org/2000/svg">
<circle cx="80" cy="80.0288" r="80" fill="white"/>
<path d="M59.0526 95.4103H63.9328C65.4055 95.4103 66.6726 95.9393 67.7343 96.9975C68.7959 98.0556 69.3268 99.3185 69.3268 100.786C69.3268 102.271 68.7959 103.543 67.7343 104.601C66.6897 105.642 65.4226 106.162 63.9328 106.162H57.2547V88.2423H67.7856V89.9319H59.0526V95.4103ZM59.0526 104.473H63.9328C64.926 104.473 65.7736 104.114 66.4757 103.397C67.1778 102.664 67.5288 101.793 67.5288 100.786C67.5288 99.7964 67.1778 98.9345 66.4757 98.2007C65.7907 97.4668 64.9431 97.0999 63.9328 97.0999H59.0526V104.473Z" fill="#687798"/>
<path d="M74.0775 97.9703V104.473H82.8106V106.162H72.2796V88.2423H82.6821V89.9319H74.0775V96.2807H82.04V97.9703H74.0775Z" fill="#687798"/>
<path d="M94.1962 96.8951C95.1894 97.2705 95.9599 97.8423 96.5079 98.6103C97.0558 99.3783 97.3298 100.283 97.3298 101.324C97.3298 102.826 96.7647 104.063 95.6346 105.036C94.5215 105.992 93.0147 106.469 91.1139 106.469C89.4701 106.469 88.1259 106.103 87.0813 105.369C86.0368 104.635 85.3005 103.653 84.8724 102.425L86.4135 101.554C86.6533 102.527 87.1584 103.312 87.929 103.909C88.6995 104.49 89.7612 104.78 91.1139 104.78C92.4838 104.78 93.5626 104.464 94.3503 103.833C95.138 103.201 95.5318 102.365 95.5318 101.324C95.5318 100.283 95.1722 99.4465 94.453 98.8151C93.7338 98.1836 92.7578 97.8679 91.5249 97.8679H89.4701V96.1783H90.8828C92.0985 96.1783 93.066 95.8796 93.7852 95.2823C94.5044 94.6679 94.864 93.8657 94.864 92.8759C94.864 91.9031 94.513 91.118 93.8109 90.5207C93.1088 89.9233 92.167 89.6247 90.9855 89.6247C88.7766 89.6247 87.3211 90.5633 86.619 92.4407L85.1293 91.5703C86.1224 89.1468 88.0745 87.9351 90.9855 87.9351C92.6636 87.9351 94.0335 88.4129 95.0952 89.3687C96.1397 90.3073 96.662 91.4849 96.662 92.9015C96.662 94.6935 95.84 96.0247 94.1962 96.8951Z" fill="#687798"/>
<path d="M42.8882 124.628C43.8814 125.004 44.652 125.576 45.1999 126.344C45.7479 127.112 46.0218 128.016 46.0218 129.057C46.0218 130.559 45.4568 131.796 44.3266 132.769C43.2136 133.725 41.7067 134.203 39.806 134.203C38.1621 134.203 36.8179 133.836 35.7734 133.102C34.7289 132.368 33.9925 131.387 33.5645 130.158L35.1056 129.288C35.3453 130.26 35.8504 131.045 36.621 131.643C37.3916 132.223 38.4532 132.513 39.806 132.513C41.1759 132.513 42.2547 132.197 43.0423 131.566C43.83 130.935 44.2239 130.098 44.2239 129.057C44.2239 128.016 43.8643 127.18 43.1451 126.548C42.4259 125.917 41.4499 125.601 40.217 125.601H38.1621V123.912H39.5748C40.7906 123.912 41.7581 123.613 42.4773 123.016C43.1965 122.401 43.556 121.599 43.556 120.609C43.556 119.636 43.205 118.851 42.5029 118.254C41.8009 117.657 40.8591 117.358 39.6776 117.358C37.4686 117.358 36.0131 118.297 35.3111 120.174L33.8213 119.304C34.8145 116.88 36.7666 115.668 39.6776 115.668C41.3557 115.668 42.7256 116.146 43.7872 117.102C44.8318 118.041 45.354 119.218 45.354 120.635C45.354 122.427 44.5321 123.758 42.8882 124.628Z" fill="#687798"/>
<path d="M62.9852 133.896H61.0845L59.4149 129.492H50.8874L49.2179 133.896H47.3171L54.2265 115.976H56.0758L62.9852 133.896ZM55.1512 118.203L51.5295 127.803H58.7728L55.1512 118.203Z" fill="#687798"/>
<path d="M65.2939 115.976H78.1365V133.896H76.3386V117.665H67.0918V133.896H65.2939V115.976Z" fill="#687798"/>
<path d="M96.1203 133.896H94.2196L92.55 129.492H84.0225L82.3529 133.896H80.4522L87.3616 115.976H89.2109L96.1203 133.896ZM88.2863 118.203L84.6646 127.803H91.9079L88.2863 118.203Z" fill="#687798"/>
<path d="M104.85 124.654L110.758 133.896H108.703L103.823 126.241L98.9426 133.896H96.8878L102.795 124.654L97.2731 115.976H99.3022L103.823 123.041L108.343 115.976H110.373L104.85 124.654Z" fill="#687798"/>
<path d="M127.199 133.896H125.298L123.628 129.492H115.101L113.431 133.896H111.53L118.44 115.976H120.289L127.199 133.896ZM119.364 118.203L115.743 127.803H122.986L119.364 118.203Z" fill="#687798"/>
<path d="M52.1816 20.5113C52.3253 20.2093 52.5119 19.9393 52.8498 19.8411C53.2877 19.714 53.7146 19.7083 54.0667 20.0686C54.1237 20.1269 54.185 20.181 54.2428 20.2386C59.707 25.6834 65.1709 31.1284 70.6345 36.5737C70.6794 36.6186 70.7157 36.6721 70.7701 36.7388C71.0211 36.354 71.2551 36.0005 71.4838 35.6436C72.784 33.6154 74.0031 31.5413 75.0445 29.3673C76.0458 27.2768 76.8828 25.1262 77.3905 22.8599C77.5402 22.1918 77.6348 21.5116 77.7697 20.84C77.8074 20.6413 77.8759 20.4498 77.973 20.2723C78.2256 19.8272 78.7167 19.6651 79.2127 19.8359C79.7556 20.0228 80.0643 20.4653 80.0018 20.9688C79.7764 22.7324 79.374 24.469 78.8008 26.1525C77.9359 28.7265 76.7885 31.1754 75.4298 33.522C74.4978 35.1314 73.49 36.6973 72.5162 38.2827C72.4982 38.3119 72.4808 38.3413 72.4731 38.354C81.647 47.4956 90.8193 56.6357 99.9902 65.7743C100 65.604 100.019 65.4278 100.02 65.2514C100.032 64.1252 101.129 63.9334 101.735 64.2764C102.117 64.4923 102.27 64.8503 102.244 65.2622C102.193 66.056 102.116 66.8485 102.033 67.6398C102.018 67.784 102.042 67.874 102.143 67.9746C103.905 69.7249 105.666 71.4775 107.423 73.2323C107.86 73.6676 107.95 74.1738 107.682 74.6565C107.6 74.8013 107.487 74.9263 107.351 75.0223C107.215 75.1183 107.059 75.183 106.895 75.2117C106.73 75.2404 106.562 75.2323 106.401 75.1882C106.24 75.144 106.091 75.0648 105.965 74.9563C105.895 74.8951 105.828 74.8291 105.762 74.7633C88.0938 57.1572 70.4262 39.5501 52.7597 21.942C52.5467 21.7298 52.3734 21.478 52.1816 21.2447V20.5113Z" fill="#687798"/>
<path d="M98.7045 70.5874C99.1713 71.0867 99.6405 71.5886 100.112 72.0932C99.6515 72.751 99.0781 73.3227 98.4182 73.7822C97.3692 74.5125 96.1978 74.9271 94.9368 75.0953C94.504 75.153 94.066 75.1773 93.6295 75.2027C92.6407 75.2603 91.7043 75.0409 90.8147 74.6257C89.6329 74.0741 88.5487 73.3628 87.4974 72.5957C86.2341 71.6739 84.846 71.0291 83.2859 70.7834C82.4542 70.6587 81.6113 70.6242 80.7721 70.6804C79.2548 70.7696 77.7966 71.1508 76.3374 71.542C73.9796 72.1742 71.5775 72.3902 69.1411 72.2379C67.1076 72.1107 65.1328 71.7175 63.2455 70.9377C61.3882 70.1704 59.7594 69.0847 58.5094 67.4892C57.4329 66.1152 56.8205 64.5593 56.6878 62.8169C56.5527 61.0423 56.9216 59.3486 57.5082 57.6907C58.0548 56.1464 58.7886 54.6886 59.6003 53.2683C61.0575 50.7187 62.7478 48.3227 64.4586 45.9396C65.6666 44.2568 66.8575 42.5618 68.0567 40.8726C68.1674 40.7168 68.2827 40.5643 68.3906 40.4175L69.9575 41.9813C69.524 42.596 69.0862 43.2327 68.6321 43.8578C66.799 46.3818 64.9425 48.8895 63.2366 51.5026C62.193 53.1012 61.2074 54.7333 60.3918 56.4619C59.7825 57.7531 59.2739 59.0788 59.0211 60.4903C58.7942 61.7574 58.7957 63.015 59.2239 64.245C59.7164 65.6597 60.6239 66.7657 61.8238 67.6454C63.2277 68.6748 64.8139 69.2937 66.499 69.6791C68.2638 70.0828 70.0521 70.188 71.8572 70.0784C73.5547 69.9753 75.1995 69.6139 76.8301 69.1492C78.5544 68.6577 80.3146 68.3806 82.1156 68.4279C84.1743 68.4719 86.1813 69.0781 87.9182 70.1802C88.8254 70.7502 89.7011 71.3698 90.5949 71.9611C91.2136 72.3703 91.8517 72.7418 92.5873 72.9107C93.0781 73.0234 93.5728 73.0043 94.0684 72.9678C95.0437 72.8959 95.9799 72.6805 96.8482 72.2146C97.5356 71.8489 98.1311 71.333 98.59 70.7054C98.6141 70.6726 98.6393 70.6406 98.6655 70.6094C98.6774 70.6003 98.6905 70.5929 98.7045 70.5874Z" fill="#687798"/>
</svg>
