<svg width="98" height="66" viewBox="0 0 98 66" fill="none" xmlns="http://www.w3.org/2000/svg">
<path fill-rule="evenodd" clip-rule="evenodd" d="M8.93581 64.9587C6.26895 63.27 3.5429 61.8526 1.05114 59.2934C0.791252 59.0362 0.687911 58.2969 1.00209 58.1705C3.39604 56.8645 5.75181 55.4978 8.27747 54.7674C8.69882 54.655 9.05715 55.5393 8.75769 56.0026C8.19205 56.8778 7.66459 57.8138 7.21104 58.8152L7.26746 60.1068C7.92141 61.2531 8.87102 62.6611 9.35369 63.9525C9.59258 64.5421 9.33866 65.2347 8.93581 64.9587Z" fill="#EB3323"/>
<path d="M6.03415 60.8206C69.3458 72.8618 97.3465 56.4184 97.4512 0.594732C95.8411 59.4284 69.2106 69.9498 5.89945 57.9086L6.03415 60.8206Z" fill="#EB3323"/>
</svg>
